<?xml version="1.0" encoding="UTF-8" standalone="no"?>
<!-- Created with Inkscape (http://www.inkscape.org/) -->

<svg
   xmlns:dc="http://purl.org/dc/elements/1.1/"
   xmlns:cc="http://creativecommons.org/ns#"
   xmlns:rdf="http://www.w3.org/1999/02/22-rdf-syntax-ns#"
   xmlns:svg="http://www.w3.org/2000/svg"
   xmlns="http://www.w3.org/2000/svg"
   xmlns:sodipodi="http://sodipodi.sourceforge.net/DTD/sodipodi-0.dtd"
   xmlns:inkscape="http://www.inkscape.org/namespaces/inkscape"
   width="210mm"
   height="297mm"
   viewBox="0 0 744.09448819 1052.3622047"
   id="svg16377"
   version="1.1"
   inkscape:version="0.91 r13725"
   sodipodi:docname="CreateAccount.svg">
  <defs
     id="defs16379" />
  <sodipodi:namedview
     id="base"
     pagecolor="#ffffff"
     bordercolor="#666666"
     borderopacity="1.0"
     inkscape:pageopacity="0.0"
     inkscape:pageshadow="2"
     inkscape:zoom="0.12374369"
     inkscape:cx="1047.8894"
     inkscape:cy="-203.28963"
     inkscape:document-units="px"
     inkscape:current-layer="layer1"
     showgrid="false"
     inkscape:window-width="1280"
     inkscape:window-height="690"
     inkscape:window-x="0"
     inkscape:window-y="0"
     inkscape:window-maximized="1" />
  <metadata
     id="metadata16382">
    <rdf:RDF>
      <cc:Work
         rdf:about="">
        <dc:format>image/svg+xml</dc:format>
        <dc:type
           rdf:resource="http://purl.org/dc/dcmitype/StillImage" />
        <dc:title></dc:title>
      </cc:Work>
    </rdf:RDF>
  </metadata>
  <g
     inkscape:label="Layer 1"
     inkscape:groupmode="layer"
     id="layer1">
    <rect
       style="opacity:0.76999996;fill:#ffffff;fill-opacity:1;stroke:#1d0017;stroke-width:4.9000001;stroke-miterlimit:4;stroke-dasharray:none;stroke-opacity:0.92307691"
       id="rect4272"
       width="753.125"
       height="1065.625"
       x="1048.838"
       y="8.5680323" />
    <text
       xml:space="preserve"
       style="font-style:normal;font-variant:normal;font-weight:bold;font-stretch:normal;font-size:92.07600403px;line-height:125%;font-family:sans-serif;-inkscape-font-specification:'sans-serif Bold';letter-spacing:0px;word-spacing:0px;fill:#000000;fill-opacity:1;stroke:none;stroke-width:1px;stroke-linecap:butt;stroke-linejoin:miter;stroke-opacity:1"
       x="1256.4844"
       y="203.42953"
       id="text4136"
       sodipodi:linespacing="125%"
       transform="scale(0.94104423,1.0626493)"><tspan
         sodipodi:role="line"
         id="tspan4138"
         x="1256.4844"
         y="203.42953"
         style="font-style:normal;font-variant:normal;font-weight:bold;font-stretch:normal;font-family:sans-serif;-inkscape-font-specification:'sans-serif Bold';letter-spacing:0px"
         dy="0 0 0 0 0 0 0 0 -1.7300086">Tradio GC</tspan></text>
    <rect
       style="opacity:0.76999996;fill:#ffffff;fill-opacity:1;stroke:#1d0017;stroke-width:6.37090206;stroke-miterlimit:4;stroke-dasharray:none;stroke-opacity:0.92307691"
       id="rect4140-9"
       width="536.8327"
       height="91.564796"
       x="1158.011"
       y="367.33917" />
    <rect
       style="opacity:0.76999996;fill:#ffffff;fill-opacity:1;stroke:#1d0017;stroke-width:6.37090206;stroke-miterlimit:4;stroke-dasharray:none;stroke-opacity:0.92307691"
       id="rect4140-3-3"
       width="536.8327"
       height="91.564796"
       x="1159.4841"
       y="504.74994" />
    <text
       xml:space="preserve"
       style="font-style:normal;font-weight:normal;font-size:41.33838654px;line-height:125%;font-family:sans-serif;letter-spacing:0px;word-spacing:0px;fill:#000000;fill-opacity:1;stroke:none;stroke-width:1px;stroke-linecap:butt;stroke-linejoin:miter;stroke-opacity:1"
       x="1190.9121"
       y="581.87122"
       id="text4163-1"
       sodipodi:linespacing="125%"
       transform="scale(1.0334596,0.96762369)"><tspan
         sodipodi:role="line"
         id="tspan4165-4"
         x="1190.9121"
         y="581.87122"
         style="font-style:italic;font-variant:normal;font-weight:normal;font-stretch:normal;font-family:sans-serif;-inkscape-font-specification:'sans-serif Italic'">ENTER PASSWORD</tspan></text>
    <rect
       style="opacity:0.76999996;fill:#ffffff;fill-opacity:1;stroke:#1d0017;stroke-width:4.9000001;stroke-miterlimit:4;stroke-dasharray:none;stroke-opacity:0.92307691"
       id="rect4179-8"
       width="546.875"
       height="96.875"
       x="1162.2755"
       y="828.65723" />
    <text
       xml:space="preserve"
       style="font-style:normal;font-weight:normal;font-size:40px;line-height:125%;font-family:sans-serif;letter-spacing:0px;word-spacing:0px;fill:#000000;fill-opacity:1;stroke:none;stroke-width:1px;stroke-linecap:butt;stroke-linejoin:miter;stroke-opacity:1"
       x="1249.7755"
       y="425.53229"
       id="text4159-2"
       sodipodi:linespacing="125%"><tspan
         sodipodi:role="line"
         id="tspan4161-0"
         x="1249.7755"
         y="425.53229"
         style="font-style:italic;font-variant:normal;font-weight:normal;font-stretch:normal;font-family:sans-serif;-inkscape-font-specification:'sans-serif Italic'">ENTER USERNAME</tspan></text>
    <text
       xml:space="preserve"
       style="font-style:normal;font-weight:normal;font-size:50.41472244px;line-height:125%;font-family:sans-serif;letter-spacing:0px;word-spacing:0px;fill:#000000;fill-opacity:1;stroke:none;stroke-width:1px;stroke-linecap:butt;stroke-linejoin:miter;stroke-opacity:1"
       x="1429.5526"
       y="799.84753"
       id="text4181-3"
       sodipodi:linespacing="125%"
       transform="scale(0.89153607,1.1216596)"><tspan
         sodipodi:role="line"
         id="tspan4183-7"
         x="1429.5526"
         y="799.84753">Create Account</tspan></text>
    <rect
       style="opacity:0.76999996;fill:#ffffff;fill-opacity:1;stroke:#1d0017;stroke-width:4.9000001;stroke-miterlimit:4;stroke-dasharray:none;stroke-opacity:0.92307691"
       id="rect4272-1"
       width="753.125"
       height="1065.625"
       x="3.5254931"
       y="10.130532" />
    <text
       xml:space="preserve"
       style="font-style:normal;font-weight:normal;font-size:92.07600403px;line-height:125%;font-family:sans-serif;letter-spacing:0px;word-spacing:0px;fill:#000000;fill-opacity:1;stroke:none;stroke-width:1px;stroke-linecap:butt;stroke-linejoin:miter;stroke-opacity:1"
       x="158.96709"
       y="210.78143"
       id="text4136-2"
       sodipodi:linespacing="125%"
       transform="scale(0.94104423,1.0626493)"><tspan
         sodipodi:role="line"
         id="tspan4138-6"
         x="158.96709"
         y="210.78143"
         style="font-style:normal;font-variant:normal;font-weight:bold;font-stretch:normal;font-family:sans-serif;-inkscape-font-specification:'sans-serif Bold';letter-spacing:0px"
         dy="0 0 0 0 0 0 0 0 -1.7300086">Tradio GC</tspan></text>
    <rect
       style="opacity:0.76999996;fill:#ffffff;fill-opacity:1;stroke:#1d0017;stroke-width:6.37090206;stroke-miterlimit:4;stroke-dasharray:none;stroke-opacity:0.92307691"
       id="rect4140-9-7"
       width="536.8327"
       height="91.564796"
       x="112.69846"
       y="368.90167" />
    <rect
       style="opacity:0.76999996;fill:#ffffff;fill-opacity:1;stroke:#1d0017;stroke-width:6.37090206;stroke-miterlimit:4;stroke-dasharray:none;stroke-opacity:0.92307691"
       id="rect4140-3-3-4"
       width="536.8327"
       height="91.564796"
       x="114.17162"
       y="506.31244" />
    <text
       xml:space="preserve"
       style="font-style:normal;font-weight:normal;font-size:41.33838654px;line-height:125%;font-family:sans-serif;letter-spacing:0px;word-spacing:0px;fill:#000000;fill-opacity:1;stroke:none;stroke-width:1px;stroke-linecap:butt;stroke-linejoin:miter;stroke-opacity:1"
       x="179.44305"
       y="583.48602"
       id="text4163-1-1"
       sodipodi:linespacing="125%"
       transform="scale(1.0334596,0.96762369)"><tspan
         sodipodi:role="line"
         id="tspan4165-4-7"
         x="179.44305"
         y="583.48602"
         style="font-style:italic;font-variant:normal;font-weight:normal;font-stretch:normal;font-family:sans-serif;-inkscape-font-specification:'sans-serif Italic'">ENTER PASSWORD</tspan></text>
    <rect
       style="opacity:0.76999996;fill:#ffffff;fill-opacity:1;stroke:#1d0017;stroke-width:4.9000001;stroke-miterlimit:4;stroke-dasharray:none;stroke-opacity:0.92307691"
       id="rect4179-8-4"
       width="546.875"
       height="96.875"
       x="116.96299"
       y="830.21973" />
    <text
       xml:space="preserve"
       style="font-style:normal;font-weight:normal;font-size:40px;line-height:125%;font-family:sans-serif;letter-spacing:0px;word-spacing:0px;fill:#000000;fill-opacity:1;stroke:none;stroke-width:1px;stroke-linecap:butt;stroke-linejoin:miter;stroke-opacity:1"
       x="204.46301"
       y="427.09479"
       id="text4159-2-9"
       sodipodi:linespacing="125%"><tspan
         sodipodi:role="line"
         id="tspan4161-0-4"
         x="204.46301"
         y="427.09479"
         style="font-style:italic;font-variant:normal;font-weight:normal;font-stretch:normal;font-family:sans-serif;-inkscape-font-specification:'sans-serif Italic'">ENTER USERNAME</tspan></text>
    <text
       xml:space="preserve"
       style="font-style:normal;font-weight:normal;font-size:50.41472244px;line-height:125%;font-family:sans-serif;letter-spacing:0px;word-spacing:0px;fill:#000000;fill-opacity:1;stroke:none;stroke-width:1px;stroke-linecap:butt;stroke-linejoin:miter;stroke-opacity:1"
       x="257.06784"
       y="801.2406"
       id="text4181-3-6"
       sodipodi:linespacing="125%"
       transform="scale(0.89153607,1.1216596)"><tspan
         sodipodi:role="line"
         id="tspan4183-7-9"
         x="257.06784"
         y="801.2406">Create Account</tspan></text>
    <rect
       style="opacity:0.76999996;fill:#ffffff;fill-opacity:1;stroke:#1d0017;stroke-width:4.9000001;stroke-miterlimit:4;stroke-dasharray:none;stroke-opacity:0.92307691"
       id="rect4272-6"
       width="753.125"
       height="1065.625"
       x="1069.7917"
       y="1680.8319" />
    <text
       xml:space="preserve"
       style="font-style:normal;font-weight:normal;font-size:67.73473358px;line-height:125%;font-family:sans-serif;letter-spacing:0px;word-spacing:0px;fill:#000000;fill-opacity:1;stroke:none;stroke-width:1px;stroke-linecap:butt;stroke-linejoin:miter;stroke-opacity:1"
       x="1608.5933"
       y="1343.2167"
       id="text4136-7"
       sodipodi:linespacing="125%"
       transform="scale(0.7362964,1.3581487)"><tspan
         sodipodi:role="line"
         id="tspan4138-9"
         x="1608.5933"
         y="1343.2167"
         style="font-style:normal;font-variant:normal;font-weight:normal;font-stretch:normal;font-family:sans-serif;-inkscape-font-specification:sans-serif;letter-spacing:0px">Create New Account</tspan></text>
    <rect
       style="opacity:0.76999996;fill:#ffffff;fill-opacity:1;stroke:#1d0017;stroke-width:6.48543596;stroke-miterlimit:4;stroke-dasharray:none;stroke-opacity:0.92307691"
       id="rect4140-9-1"
       width="536.74316"
       height="94.902466"
       x="1175.8845"
       y="1902.1722" />
    <rect
       style="opacity:0.76999996;fill:#ffffff;fill-opacity:1;stroke:#1d0017;stroke-width:6.48543596;stroke-miterlimit:4;stroke-dasharray:none;stroke-opacity:0.92307691"
       id="rect4140-3-3-1"
       width="536.74316"
       height="94.902466"
       x="1177.3574"
       y="2044.5919" />
    <text
       xml:space="preserve"
       style="font-style:normal;font-weight:normal;font-size:42.08155441px;line-height:125%;font-family:sans-serif;letter-spacing:0px;word-spacing:0px;fill:#000000;fill-opacity:1;stroke:none;stroke-width:1px;stroke-linecap:butt;stroke-linejoin:miter;stroke-opacity:1"
       x="1230.121"
       y="2136.6562"
       id="text4163-1-2"
       sodipodi:linespacing="125%"
       transform="scale(1.0150392,0.98518363)"><tspan
         sodipodi:role="line"
         id="tspan4165-4-1"
         x="1230.121"
         y="2136.6562"
         style="font-style:italic;font-variant:normal;font-weight:normal;font-stretch:normal;font-family:sans-serif;-inkscape-font-specification:'sans-serif Italic'">NEW PASSWORD</tspan></text>
    <rect
       style="opacity:0.76999996;fill:#ffffff;fill-opacity:1;stroke:#1d0017;stroke-width:4.71999073;stroke-miterlimit:4;stroke-dasharray:none;stroke-opacity:0.92307691"
       id="rect4179-8-47"
       width="540.41846"
       height="90.961952"
       x="1177.2721"
       y="2322.5535" />
    <text
       xml:space="preserve"
       style="font-style:normal;font-weight:normal;font-size:40.71910858px;line-height:125%;font-family:sans-serif;letter-spacing:0px;word-spacing:0px;fill:#000000;fill-opacity:1;stroke:none;stroke-width:1px;stroke-linecap:butt;stroke-linejoin:miter;stroke-opacity:1"
       x="1290.6379"
       y="1927.5071"
       id="text4159-2-3"
       sodipodi:linespacing="125%"
       transform="scale(0.98217596,1.0181475)"><tspan
         sodipodi:role="line"
         id="tspan4161-0-1"
         x="1290.6379"
         y="1927.5071"
         style="font-style:italic;font-variant:normal;font-weight:normal;font-stretch:normal;font-family:sans-serif;-inkscape-font-specification:'sans-serif Italic'">NEW USERNAME</tspan></text>
    <text
       xml:space="preserve"
       style="font-style:normal;font-weight:normal;font-size:77.37425232px;line-height:125%;font-family:sans-serif;letter-spacing:0px;word-spacing:0px;fill:#000000;fill-opacity:1;stroke:none;stroke-width:1px;stroke-linecap:butt;stroke-linejoin:miter;stroke-opacity:1"
       x="1296.2004"
       y="2309.3801"
       id="text4181-3-1"
       sodipodi:linespacing="125%"
       transform="scale(0.96749713,1.0335948)"><tspan
         sodipodi:role="line"
         id="tspan4183-7-1"
         x="1296.2004"
         y="2309.3801"
         style="font-style:italic;font-variant:normal;font-weight:normal;font-stretch:normal;font-size:58.4214859px;font-family:sans-serif;-inkscape-font-specification:'sans-serif Italic'">Email Address</tspan></text>
    <rect
       style="opacity:0.76999996;fill:#ffffff;fill-opacity:1;stroke:#1d0017;stroke-width:6.51104832;stroke-miterlimit:4;stroke-dasharray:none;stroke-opacity:0.92307691"
       id="rect4140-3-3-1-6"
       width="541.13696"
       height="94.876854"
       x="1174.8706"
       y="2186.2764" />
    <text
       xml:space="preserve"
       style="font-style:normal;font-weight:normal;font-size:42.08155441px;line-height:125%;font-family:sans-serif;letter-spacing:0px;word-spacing:0px;fill:#000000;fill-opacity:1;stroke:none;stroke-width:1px;stroke-linecap:butt;stroke-linejoin:miter;stroke-opacity:1"
       x="1201.5392"
       y="2280.4583"
       id="text4163-1-2-3"
       sodipodi:linespacing="125%"
       transform="scale(1.0150392,0.98518363)"><tspan
         sodipodi:role="line"
         id="tspan4165-4-1-0"
         x="1201.5392"
         y="2280.4583"
         style="font-style:italic;font-variant:normal;font-weight:normal;font-stretch:normal;font-family:sans-serif;-inkscape-font-specification:'sans-serif Italic'">CONFIRM PASSWORD</tspan></text>
    <rect
       style="opacity:0.76999996;fill:#ffffff;fill-opacity:1;stroke:#1d0017;stroke-width:4.9000001;stroke-miterlimit:4;stroke-dasharray:none;stroke-opacity:0.92307691"
       id="rect4439"
       width="387.5"
       height="125"
       x="1258.213"
       y="2524.1934" />
    <text
       xml:space="preserve"
       style="font-style:normal;font-weight:normal;font-size:69.3841095px;line-height:125%;font-family:sans-serif;letter-spacing:0px;word-spacing:0px;fill:#000000;fill-opacity:1;stroke:none;stroke-width:1px;stroke-linecap:butt;stroke-linejoin:miter;stroke-opacity:1"
       x="1729.3375"
       y="2027.6808"
       id="text4441"
       sodipodi:linespacing="125%"
       transform="scale(0.77405449,1.2918987)"><tspan
         sodipodi:role="line"
         id="tspan4443"
         x="1729.3375"
         y="2027.6808">CREATE!</tspan></text>
    <path
       style="fill:#ffaaaa;fill-rule:evenodd;stroke:#000000;stroke-width:0.38935021px;stroke-linecap:butt;stroke-linejoin:miter;stroke-opacity:1"
       d="m 1514.6207,1280.0506 c -6.3782,-3.959 -0.2284,-12.5243 -1.9993,-17.7712 -0.4215,-1.2488 -1.5778,-1.713 -1.9993,-2.9619 -1.866,-5.5288 1.866,-15.2041 0,-20.7329 -0.4214,-1.2489 -1.5778,-1.7131 -1.9993,-2.9619 -0.596,-1.7661 0.4215,-4.0505 0,-5.9237 -1.3235,-5.8821 -2.2852,-15.6568 -3.9985,-20.7331 -0.4215,-1.2488 -1.7013,-1.6372 -1.9993,-2.9619 -0.4215,-1.8731 0.4215,-4.0504 0,-5.9237 -0.2981,-1.3246 -1.5778,-1.713 -1.9994,-2.9619 -3.1234,-9.2545 -6.7664,-20.0483 -9.9964,-29.6185 -0.843,-2.4977 -3.1556,-3.4261 -3.9985,-5.9237 -0.5719,-1.6944 -3.5245,-14.107 -3.9987,-14.8094 -0.9996,-1.4809 -2.9989,-1.4809 -3.9985,-2.9618 -1.4902,-2.2077 -0.5091,-6.678 -1.9993,-8.8856 -0.4712,-0.6981 -1.4033,0.4415 -1.9993,0 -8.3206,-6.1633 2.1373,0.2045 -1.9993,-5.9238 -0.4712,-0.6981 -1.5281,0.6981 -1.9993,0 -0.4713,-0.6981 0.4712,-2.2637 0,-2.9618 -0.4713,-0.6981 -1.528,0.6981 -1.9993,0 -0.9997,-1.481 -0.9997,-4.4428 -1.9993,-5.9237 -4.1366,-6.1282 0.1617,9.3647 -3.9986,-2.9619 -0.298,-0.883 0.4712,-2.2637 0,-2.9619 -0.4712,-0.6981 -1.528,0.6982 -1.9993,0 -0.4712,-0.6981 0.2981,-2.0788 0,-2.9618 -4.1602,-12.3266 0.1381,3.1663 -3.9985,-2.9619 -0.4713,-0.6981 0.4712,-2.2637 0,-2.9618 -0.4713,-0.6982 -1.5281,0.6981 -1.9993,0 -4.1366,-6.1283 6.3213,0.2395 -1.9994,-5.9237 -0.596,-0.4416 -1.528,0.698 -1.9992,0 -1.3107,-1.9418 -0.9977,-10.3636 -1.9993,-11.8475 -0.9997,-1.4809 -2.999,-1.4809 -3.9986,-2.9619 -0.9425,-1.3962 0.5961,-4.1576 0,-5.9237 -0.4215,-1.2488 -1.5778,-1.7131 -1.9993,-2.9619 -0.596,-1.7661 0.9425,-4.5275 0,-5.9237 -0.4712,-0.6981 -1.528,0.6981 -1.9993,0 -1.4193,-2.1027 -4.1695,-26.4035 -1.9992,-29.6186 0.4712,-0.6981 1.528,0.6981 1.9992,0 0.9425,-1.3962 -0.9424,-4.5275 0,-5.9237 0.4713,-0.6981 1.4033,0.4415 1.9993,0 8.3206,-6.1633 -2.1373,0.2044 1.9993,-5.9237 0.4712,-0.6981 1.4032,0.4415 1.9993,0 2.8866,-2.1382 5.1106,-3.7856 7.9972,-5.9238 0.9736,-0.7211 21.6188,-0.2765 21.9922,0 0.843,0.6244 1.1563,2.3375 1.9993,2.9619 1.1921,0.883 3.0561,-1.3962 3.9985,0 0.4712,0.6981 -0.4712,2.2638 0,2.9619 0.9425,1.3962 3.0561,-1.3963 3.9987,0 0.9996,1.4809 0.9996,4.4428 1.9992,5.9237 0.4713,0.6981 1.5281,-0.6981 1.9993,0 0.6665,0.9872 1.3329,7.8983 1.9993,8.8856 0.4712,0.6981 1.5281,-0.6982 1.9993,0 1.0657,1.5787 2.9329,13.2305 3.9986,14.8092 0.4712,0.6982 1.528,-0.698 1.9992,0 0.4713,0.6982 -0.298,2.0789 0,2.9619 0.4216,1.2489 1.5779,1.7131 1.9994,2.9619 0.596,1.7661 -0.9425,4.5275 0,5.9237 0.4712,0.6981 1.528,-0.6981 1.9993,0 0.4712,0.6981 -0.2981,2.0788 0,2.9619 0.4214,1.2488 1.5777,1.713 1.9993,2.9618 0.596,1.7661 -0.9425,4.5275 0,5.9238 0.9996,1.4809 2.9989,1.4809 3.9985,2.9618 0.9425,1.3963 -0.596,4.1577 0,5.9238 1.1645,3.4502 2.8342,5.4354 3.9986,8.8856 0.6036,1.7882 -0.9242,7.5164 0,8.8855 0.4712,0.6981 1.5281,-0.6981 1.9993,0 0.9425,1.3963 -0.9425,4.5275 0,5.9237 0.4713,0.6982 1.528,-0.6981 1.9993,0 0.6664,0.9873 1.3329,7.8984 1.9993,8.8856 0.4712,0.6981 1.9993,-0.9872 1.9993,0 0,0.9873 -1.9993,0.9873 -1.9993,0 0,-1.239 4.0035,-5.9164 1.9993,-8.8856 -0.4712,-0.6981 -1.5281,0.6982 -1.9993,0 -1.2072,-1.7884 -1.2487,-16.6591 -1.9993,-17.7711 -0.4713,-0.6981 -1.528,0.6981 -1.9993,0 -0.9997,-1.4809 0.9996,-7.4047 0,-8.8856 -0.4712,-0.6981 -1.5281,0.6981 -1.9993,0 -0.779,-1.154 0,-10.04 0,-11.8475 0,-21.5739 -1.5079,-44.3776 1.9993,-65.1609 0.3233,-1.9156 -0.5961,-4.1576 0,-5.9238 0.4215,-1.2487 1.5778,-1.713 1.9993,-2.9618 2.5755,-7.63099 -2.1261,-34.97899 0,-44.42789 2.1613,-9.6058 3.8365,-17.051 5.9979,-26.6568 0.3769,-1.6751 -0.803,-7.6959 0,-8.8856 0.4712,-0.6981 1.528,0.6981 1.9993,0 0.4712,-0.6981 -0.2108,-2.0252 0,-2.9618 0.4712,-2.0944 1.707,-3.759 1.9992,-5.9238 0.3921,-2.9043 -0.6322,-6.0756 0,-8.8855 0.2108,-0.9367 1.5281,0.6981 1.9993,0 1.0017,-1.484 0.6886,-9.9058 1.9993,-11.8475 0.4712,-0.6981 1.4032,0.4415 1.9994,0 1.6859,-1.2488 2.4906,-4.2483 3.9985,-5.9237 2.6657,-2.9619 5.0168,-6.678 7.9972,-8.8856 0.5961,-0.4415 1.528,0.6981 1.9992,0 0.4713,-0.6981 -0.596,-2.5204 0,-2.9619 1.7676,-1.3092 22.5363,-5.5207 25.9909,-2.9618 3.7806,2.8004 2.5495,10.516 3.9985,14.8093 0.4215,1.2488 1.5778,1.713 1.9993,2.9619 1.5506,4.5942 0,50.7275 0,59.2372 0,10.3182 1.9956,74.05749 0,79.97029 -1.6324,4.8366 -2.7089,9.0775 -3.9986,14.8093 -0.4214,1.8732 0.5961,4.1575 0,5.9237 -0.4214,1.2488 -1.5778,1.713 -1.9992,2.9618 -0.1954,0.579 -3.3314,36.5308 -1.9993,38.5043 2.6657,3.9491 1.9993,-4.9365 1.9993,2.9618 0,7.7444 -0.1779,8.3587 1.9992,14.8093 0.5961,1.7662 0,7.8984 0,5.9237 0,-19.0043 -0.8594,6.7814 1.9993,-5.9237 2.141,-9.5152 -2.9946,-23.7078 0,-32.5805 0.4215,-1.2488 1.7013,-1.6372 1.9993,-2.9618 1.9963,-8.8723 -2.5849,-27.8834 0,-35.5423 0.298,-0.8831 1.7013,0.883 1.9993,0 1.0663,-3.1594 -1.0662,-8.6882 0,-11.8475 4.1603,-12.3266 -0.138,3.1663 3.9986,-2.9619 0.4592,-0.6802 3.9112,-11.7179 3.9986,-11.8474 0.8378,-1.2412 4.7862,-2.0644 5.9978,-2.9619 0.843,-0.6244 1.1052,-2.5203 1.9993,-2.9619 1.8967,-0.9365 4.5842,2.0944 5.9979,0 0.4713,-0.698 -0.4712,-2.2637 0,-2.9618 1.8766,-2.78009 5.0205,2.2378 5.9979,2.9618 0.5961,0.4416 1.5281,-0.698 1.9993,0 0.4712,0.6981 -0.4712,2.2638 0,2.9619 0.4712,0.6981 1.528,-0.6981 1.9993,0 2.8838,4.2723 -1.8971,21.0359 0,26.6568 0.4215,1.2488 1.5778,1.713 1.9993,2.9619 0.8322,2.466 -1.2682,9.9687 0,11.8474 0.4712,0.6981 1.5281,-0.6981 1.9993,0 1.4137,2.0944 0,5.9237 0,8.8855 0,7.865 4.5929,24.8959 1.9993,32.5806 -1.1645,3.4502 -2.8342,5.4354 -3.9986,8.8856 -0.2981,0.883 0.6664,2.9618 0,2.9618 -0.064,0 0.081,-26.2989 0,-26.6568 -0.4713,-2.0943 -1.5281,-3.8294 -1.9993,-5.9237 -0.8307,-3.6916 -1.1283,-41.0849 0,-44.4279 1.4908,-4.4174 4.4729,-7.3293 5.9979,-11.8475 0.596,-1.7661 -0.9425,-4.5274 0,-5.9237 0.9424,-1.3962 2.7341,0.6244 3.9985,0 14.4817,-7.1513 -3.152,0.8539 5.9979,-5.9237 3.7699,-2.79249 7.9067,-4.40929 11.9958,-5.92379 0.8939,-0.331 7.4287,-0.8421 7.9972,0 1.4136,2.0944 -0.6323,6.07579 0,8.88559 0.6903,3.068 3.0068,5.9473 3.9985,8.8856 1.1387,3.3739 1.087,28.5258 1.9993,32.5805 2.8768,12.7853 3.9986,24.6483 3.9986,38.5042 0,2.808 0.8302,9.3877 0,11.8475 -2.4705,7.32 -1.9993,-1.0224 -1.9993,5.9237 0,2.9619 1.9993,8.8856 0,8.8856 -0.3439,0 0.4037,-24.8624 0,-26.6568 -0.4712,-2.0943 -1.6379,-3.7819 -1.9993,-5.9237 -0.3233,-1.9156 0.4215,-4.0505 0,-5.9237 -0.298,-1.3246 -1.7012,-1.6373 -1.9993,-2.9619 -0.6872,-3.0541 -1.1196,-44.0724 0,-47.3898 4.1603,-12.3265 -0.138,3.1664 3.9986,-2.9618 0.7474,-1.1072 1.5672,-6.4843 3.9986,-8.8856 4.4705,-4.4153 9.1894,-8.2877 13.995,-11.84749 1.1922,-0.883 3.0561,1.39629 3.9986,0 0.4713,-0.6981 -0.4712,-2.2637 0,-2.9619 0.9425,-1.3962 5.3315,0 3.9986,0 -11.0039,0 2.9449,-1.561 3.9986,0 0.4712,0.6982 -0.4712,2.2638 0,2.9619 1.3425,1.98889 2.6561,-1.9888 3.9985,0 0.9997,1.48089 0.9997,4.44279 1.9993,5.92369 0.4713,0.6981 1.5281,-0.698 1.9993,0 0.4712,0.6981 -0.4712,2.2638 0,2.9619 0.4712,0.6981 1.5281,-0.6981 1.9994,0 1.3328,1.9746 -1.3329,9.8729 0,11.8475 0.4712,0.6981 1.528,-0.6981 1.9992,0 0.9242,1.3691 -0.6036,7.0972 0,8.8856 1.4433,4.2763 2.5554,7.5711 3.9986,11.8474 0.6036,1.7883 -0.9242,7.5165 0,8.8856 0.4712,0.6981 1.5281,-0.6981 1.9993,0 0.9425,1.3962 0,3.9491 0,5.9237 0,5.7363 1.6941,18.6753 0,23.6949 -0.4215,1.2488 -1.7013,1.6373 -1.9993,2.9619 -0.6421,2.8536 1.4894,15.5647 0,17.7712 -0.4712,0.698 -1.5281,-0.6982 -1.9993,0 -1.6661,2.4681 1.6661,12.3411 0,14.8092 -0.4712,0.6982 -1.528,-0.6981 -1.9993,0 -2.2779,3.3746 2.2779,44.0152 0,47.3899 -0.4712,0.698 -1.4032,-0.4416 -1.9992,0 -2.904,2.1509 -4.3101,4.5581 -7.9972,5.9237 -8.4268,3.1209 3.5025,5.6564 -4.51,11.5916 -8.3206,6.1632 -1.4429,1.0283 -5.5795,7.1565 5.5795,-7.1565 22.5533,-15.8439 -4.8044,7.1565 l -9.0251,7.5876 c -2.5762,2.1659 37.6352,-41.835 37.6352,-41.835 -4.0484,0.037 -52.3692,57.7071 -53.702,61.6563 -0.4216,1.2488 -1.5779,1.713 -1.9994,2.9618 -1.7252,5.1117 0,27.9012 0,35.5423 l 0,23.695"
       id="path4528"
       inkscape:connector-curvature="0"
       sodipodi:nodetypes="ccccccccccsccccsccccscscccccssccccccsccsccccccccccccccccccccccsccccccssccccccssccsscccsccsccsccsccsscccsscssccccsccscccccccccccsscsccsscscccssssssscccsscssccscccccccccsscssccccccccsscssscssc" />
    <rect
       style="opacity:0.76999996;fill:#000000;fill-opacity:1;stroke:#1d0017;stroke-width:4.47606182;stroke-miterlimit:4;stroke-dasharray:none;stroke-opacity:0.92307691"
       id="rect4541"
       width="18.101608"
       height="417.76385"
       x="1267.535"
       y="1091.1226" />
    <path
       style="opacity:0.81720001;fill:#000000;fill-opacity:1;stroke:#1d0017;stroke-width:4.9000001;stroke-miterlimit:4;stroke-dasharray:none;stroke-opacity:0.92307691"
       d="m 1194.1505,1511.6921 0,10.1231 c 2.4574,3.9841 4.7829,8.0572 6.916,12.2578 0.3012,0.5931 0.526,1.0732 0.7969,1.6211 2.0811,3.2465 3.9668,6.6059 5.6035,10.0937 1.9299,4.1128 3.0477,8.5583 4.5723,12.8379 0.075,0.2359 0.3343,1.0453 0.4297,1.3438 2.7043,5.0582 4.9844,9.5206 6.9511,13.5937 3.9687,2.3235 7.3824,4.9998 8.9766,10.2813 2.9066,7.293 -3.8609,-9.5008 3.3633,6.7988 0.7725,1.743 1.2286,3.6128 1.9512,5.377 2.2112,5.3993 4.5965,10.7325 6.8945,16.1015 5.9399,6.8515 11.7453,13.8223 17.1347,21.1074 9.7007,13.1129 17.7429,27.2248 25.5547,41.4707 1.5757,-2.8857 3.5013,-5.5483 5.7442,-7.9843 6.9122,-14.12 15.058,-27.6419 22.5234,-41.4727 1.1441,-2.1195 2.2375,-4.1796 3.3281,-6.2344 0.3375,-0.8683 0.6679,-1.7394 1.0313,-2.5976 7.2694,-17.1698 12.2922,-25.8316 20.8555,-41.7832 0.2508,-0.7091 0.4905,-1.4223 0.7597,-2.125 6.2599,-16.3382 15.2884,-31.4612 23.3692,-46.9121 0.4677,-0.8943 0.9154,-1.7988 1.375,-2.6973 0.9535,-2.2556 1.6459,-3.7955 2.1816,-4.8105 l 0,-6.3907 -170.3125,0 z"
       id="rect4646"
       inkscape:connector-curvature="0" />
    <rect
       style="opacity:0.76999996;fill:#ffffff;fill-opacity:1;stroke:#1d0017;stroke-width:4.9000001;stroke-miterlimit:4;stroke-dasharray:none;stroke-opacity:0.92307691"
       id="rect4272-6-3"
       width="753.125"
       height="1065.625"
       x="2270.0427"
       y="1681.0541" />
    <text
       xml:space="preserve"
       style="font-style:normal;font-weight:normal;font-size:67.73473358px;line-height:125%;font-family:sans-serif;letter-spacing:0px;word-spacing:0px;fill:#000000;fill-opacity:1;stroke:none;stroke-width:1px;stroke-linecap:butt;stroke-linejoin:miter;stroke-opacity:1"
       x="3238.7126"
       y="1343.3802"
       id="text4136-7-0"
       sodipodi:linespacing="125%"
       transform="scale(0.7362964,1.3581487)"><tspan
         sodipodi:role="line"
         id="tspan4138-9-7"
         x="3238.7126"
         y="1343.3802"
         style="font-style:normal;font-variant:normal;font-weight:normal;font-stretch:normal;font-family:sans-serif;-inkscape-font-specification:sans-serif;letter-spacing:0px">Create New Account</tspan></text>
    <rect
       style="opacity:0.76999996;fill:#ffffff;fill-opacity:1;stroke:#1d0017;stroke-width:6.48543596;stroke-miterlimit:4;stroke-dasharray:none;stroke-opacity:0.92307691"
       id="rect4140-9-1-6"
       width="536.74316"
       height="94.902466"
       x="2376.1355"
       y="1902.3942" />
    <rect
       style="opacity:0.76999996;fill:#ffffff;fill-opacity:1;stroke:#1d0017;stroke-width:6.48543596;stroke-miterlimit:4;stroke-dasharray:none;stroke-opacity:0.92307691"
       id="rect4140-3-3-1-5"
       width="536.74316"
       height="94.902466"
       x="2377.6084"
       y="2044.8141" />
    <text
       xml:space="preserve"
       style="font-style:normal;font-weight:normal;font-size:42.08155441px;line-height:125%;font-family:sans-serif;letter-spacing:0px;word-spacing:0px;fill:#000000;fill-opacity:1;stroke:none;stroke-width:1px;stroke-linecap:butt;stroke-linejoin:miter;stroke-opacity:1"
       x="2530.1448"
       y="2132.396"
       id="text4163-1-2-8"
       sodipodi:linespacing="125%"
       transform="scale(1.0150392,0.98518363)"><tspan
         sodipodi:role="line"
         id="tspan4165-4-1-1"
         x="2530.1448"
         y="2132.396"
         style="font-style:italic;font-variant:normal;font-weight:normal;font-stretch:normal;font-family:sans-serif;-inkscape-font-specification:'sans-serif Italic'">1234</tspan></text>
    <rect
       style="opacity:0.76999996;fill:#ffffff;fill-opacity:1;stroke:#1d0017;stroke-width:4.71999073;stroke-miterlimit:4;stroke-dasharray:none;stroke-opacity:0.92307691"
       id="rect4179-8-47-2"
       width="540.41846"
       height="90.961952"
       x="2377.5229"
       y="2322.7756" />
    <text
       xml:space="preserve"
       style="font-style:normal;font-weight:normal;font-size:40.71910858px;line-height:125%;font-family:sans-serif;letter-spacing:0px;word-spacing:0px;fill:#000000;fill-opacity:1;stroke:none;stroke-width:1px;stroke-linecap:butt;stroke-linejoin:miter;stroke-opacity:1"
       x="2571.166"
       y="1923.3848"
       id="text4159-2-3-1"
       sodipodi:linespacing="125%"
       transform="scale(0.98217596,1.0181475)"><tspan
         sodipodi:role="line"
         id="tspan4161-0-1-4"
         x="2571.166"
         y="1923.3848"
         style="font-style:italic;font-variant:normal;font-weight:normal;font-stretch:normal;font-family:sans-serif;-inkscape-font-specification:'sans-serif Italic'">John Smith</tspan></text>
    <text
       xml:space="preserve"
       style="font-style:normal;font-weight:normal;font-size:66.38092804px;line-height:125%;font-family:sans-serif;letter-spacing:0px;word-spacing:0px;fill:#000000;fill-opacity:1;stroke:none;stroke-width:1px;stroke-linecap:butt;stroke-linejoin:miter;stroke-opacity:1"
       x="2586.8191"
       y="2231.9824"
       id="text4181-3-1-7"
       sodipodi:linespacing="125%"
       transform="scale(0.93704158,1.0671885)"><tspan
         sodipodi:role="line"
         id="tspan4183-7-1-0"
         x="2586.8191"
         y="2231.9824"
         style="font-style:italic;font-variant:normal;font-weight:normal;font-stretch:normal;font-size:50.12096786px;font-family:sans-serif;-inkscape-font-specification:'sans-serif Italic'">Jsmith@email.com</tspan></text>
    <rect
       style="opacity:0.76999996;fill:#ffffff;fill-opacity:1;stroke:#1d0017;stroke-width:6.51104832;stroke-miterlimit:4;stroke-dasharray:none;stroke-opacity:0.92307691"
       id="rect4140-3-3-1-6-8"
       width="541.13696"
       height="94.876854"
       x="2375.1216"
       y="2186.4985" />
    <text
       xml:space="preserve"
       style="font-style:normal;font-weight:normal;font-size:42.08155441px;line-height:125%;font-family:sans-serif;letter-spacing:0px;word-spacing:0px;fill:#000000;fill-opacity:1;stroke:none;stroke-width:1px;stroke-linecap:butt;stroke-linejoin:miter;stroke-opacity:1"
       x="2529.8137"
       y="2284.7439"
       id="text4163-1-2-3-5"
       sodipodi:linespacing="125%"
       transform="scale(1.0150392,0.98518363)"><tspan
         sodipodi:role="line"
         id="tspan4165-4-1-0-2"
         x="2529.8137"
         y="2284.7439"
         style="font-style:italic;font-variant:normal;font-weight:normal;font-stretch:normal;font-family:sans-serif;-inkscape-font-specification:'sans-serif Italic'">1234</tspan></text>
    <rect
       style="opacity:0.76999996;fill:#ffffff;fill-opacity:1;stroke:#1d0017;stroke-width:4.9000001;stroke-miterlimit:4;stroke-dasharray:none;stroke-opacity:0.92307691"
       id="rect4439-2"
       width="387.5"
       height="125"
       x="2458.4639"
       y="2524.4155" />
    <text
       xml:space="preserve"
       style="font-style:normal;font-weight:normal;font-size:69.3841095px;line-height:125%;font-family:sans-serif;letter-spacing:0px;word-spacing:0px;fill:#000000;fill-opacity:1;stroke:none;stroke-width:1px;stroke-linecap:butt;stroke-linejoin:miter;stroke-opacity:1"
       x="3279.9399"
       y="2027.8529"
       id="text4441-8"
       sodipodi:linespacing="125%"
       transform="scale(0.77405449,1.2918987)"><tspan
         sodipodi:role="line"
         id="tspan4443-8"
         x="3279.9399"
         y="2027.8529">CREATE!</tspan></text>
    <rect
       style="opacity:0.76999996;fill:#000000;fill-opacity:1;stroke:#1d0017;stroke-width:3.87215018;stroke-miterlimit:4;stroke-dasharray:none;stroke-opacity:0.92307691"
       id="rect4541-5-4"
       width="18.308365"
       height="309.10831"
       x="-2132.3882"
       y="1821.824"
       transform="matrix(0,-1,1,0,0,0)" />
    <path
       style="opacity:0.81720001;fill:#000000;fill-opacity:1;stroke:#1d0017;stroke-width:3.93939829;stroke-miterlimit:4;stroke-dasharray:none;stroke-opacity:0.92307691"
       d="m 2134.317,2191.2902 8.3524,0 c 3.2873,-1.9251 6.6479,-3.7469 10.1138,-5.4179 0.4893,-0.2359 0.8855,-0.412 1.3375,-0.6242 2.6787,-1.6303 5.4505,-3.1076 8.3282,-4.3897 3.3934,-1.5118 7.0613,-2.3875 10.5923,-3.5818 0.1947,-0.059 0.8625,-0.2619 1.1088,-0.3367 4.1734,-2.1183 7.8553,-3.9045 11.2159,-5.4453 1.917,-3.109 4.1253,-5.7832 8.483,-7.0321 6.0173,-2.2768 -7.8391,3.0246 5.6095,-2.6346 1.4381,-0.6052 2.9809,-0.9625 4.4365,-1.5286 4.4548,-1.7322 8.8552,-3.6007 13.285,-5.4009 5.6531,-4.6532 11.4047,-9.201 17.4155,-13.4229 10.8192,-7.5992 22.4627,-13.8994 34.2168,-20.019 -2.381,-1.2343 -4.5779,-2.7428 -6.5877,-4.4998 -11.6503,-5.4149 -22.8069,-11.7961 -34.2185,-17.6443 -1.7488,-0.8962 -3.4486,-1.7527 -5.1439,-2.6071 -0.7164,-0.2644 -1.4352,-0.5232 -2.1433,-0.8079 -14.1665,-5.6946 -21.3132,-9.6294 -34.4746,-16.3376 -0.5851,-0.1965 -1.1735,-0.3843 -1.7533,-0.5952 -13.4804,-4.9038 -25.9581,-11.9765 -38.7064,-18.3068 -0.7379,-0.3664 -1.4842,-0.7171 -2.2256,-1.0772 -1.8609,-0.7469 -3.1315,-1.2893 -3.969,-1.709 l -5.2729,0 0,133.4185 z"
       id="rect4646-3-6"
       inkscape:connector-curvature="0" />
    <path
       style="fill:#ffaaaa;fill-rule:evenodd;stroke:#000000;stroke-width:0.20834115px;stroke-linecap:butt;stroke-linejoin:miter;stroke-opacity:1"
       d="m 3103.1977,2254.1816 c -2.0936,3.4534 -6.6231,0.1236 -9.3978,1.0825 -0.6604,0.2282 -0.9059,0.8543 -1.5664,1.0825 -2.9237,1.0104 -8.0402,-1.0103 -10.964,0 -0.6605,0.2282 -0.9059,0.8543 -1.5663,1.0825 -0.934,0.3227 -2.142,-0.2282 -3.1326,0 -3.1106,0.7166 -8.2797,1.2374 -10.9642,2.165 -0.6604,0.2282 -0.8658,0.9212 -1.5663,1.0825 -0.9905,0.2283 -2.142,-0.2282 -3.1326,0 -0.7005,0.1614 -0.9059,0.8543 -1.5663,1.0826 -4.894,1.6912 -10.602,3.6637 -15.663,5.4126 -1.3208,0.4564 -1.8118,1.7086 -3.1326,2.165 -0.896,0.3096 -7.4601,1.9083 -7.8316,2.165 -0.7831,0.5413 -0.7831,1.6238 -1.5662,2.165 -1.1675,0.8069 -3.5315,0.2757 -4.6989,1.0826 -0.3692,0.2551 0.2334,0.7598 0,1.0825 -3.2593,4.5052 0.1081,-1.1573 -3.1327,1.0825 -0.3692,0.2551 0.3692,0.8274 0,1.0825 -0.3692,0.2552 -1.1971,-0.2551 -1.5663,0 -0.3691,0.2552 0.3692,0.8274 0,1.0825 -0.7831,0.5413 -2.3494,0.5413 -3.1326,1.0826 -3.2407,2.2397 4.9523,-0.088 -1.5663,2.165 -0.4669,0.1614 -1.1971,-0.2551 -1.5663,0 -0.3692,0.2551 0.3692,0.8273 0,1.0825 -0.3692,0.2552 -1.0993,-0.1614 -1.5663,0 -6.5186,2.2526 1.6744,-0.075 -1.5663,2.165 -0.3692,0.2552 -1.1971,-0.2551 -1.5663,0 -0.3692,0.2552 0.3692,0.8274 0,1.0825 -3.2408,2.2398 0.1267,-3.4226 -3.1326,1.0826 -0.2335,0.3227 0.3692,0.8273 0,1.0825 -1.0268,0.7096 -5.4805,0.5402 -6.2652,1.0825 -0.7831,0.5413 -0.7831,1.6238 -1.5663,2.165 -0.7384,0.5103 -2.1987,-0.3227 -3.1326,0 -0.6604,0.2283 -0.9059,0.8543 -1.5663,1.0826 -0.934,0.3227 -2.3943,-0.5104 -3.1326,0 -0.3692,0.2551 0.3691,0.8273 0,1.0825 -1.112,0.7685 -13.9628,2.2575 -15.6631,1.0824 -0.3691,-0.2551 0.3692,-0.8273 0,-1.0824 -0.7383,-0.5103 -2.3942,0.5102 -3.1326,0 -0.3691,-0.2552 0.2335,-0.7598 0,-1.0825 -3.2593,-4.5052 0.1081,1.1572 -3.1326,-1.0826 -0.3691,-0.2551 0.2335,-0.7597 0,-1.0825 -1.1307,-1.5629 -2.0019,-2.7671 -3.1326,-4.3301 -0.3813,-0.5271 -0.1462,-11.7055 0,-11.9076 0.3302,-0.4565 1.2361,-0.6261 1.5663,-1.0826 0.467,-0.6454 -0.7383,-1.6547 0,-2.165 0.3692,-0.2551 1.1972,0.2552 1.5663,0 0.7384,-0.5103 -0.7383,-1.6547 0,-2.165 0.7832,-0.5413 2.3495,-0.5413 3.1326,-1.0825 0.3692,-0.2552 -0.3691,-0.8274 0,-1.0825 0.5221,-0.3609 4.1769,-0.7217 4.699,-1.0826 0.3691,-0.2551 -0.3693,-0.8273 0,-1.0825 0.8348,-0.577 6.9966,-1.588 7.8314,-2.165 0.3692,-0.2551 -0.3691,-0.8274 0,-1.0825 0.3692,-0.2552 1.0994,0.1614 1.5663,0 0.6605,-0.2283 0.906,-0.8543 1.5664,-1.0826 0.9339,-0.3227 2.3942,0.5104 3.1326,0 0.3691,-0.2551 -0.3692,-0.8273 0,-1.0825 0.3691,-0.2551 1.0993,0.1614 1.5663,0 0.6604,-0.2281 0.9059,-0.8542 1.5663,-1.0825 0.9339,-0.3227 2.3942,0.5103 3.1326,0 0.7831,-0.5412 0.7831,-1.6238 1.5663,-2.165 0.7384,-0.5103 2.1987,0.3227 3.1326,0 1.8246,-0.6305 2.8744,-1.5346 4.6989,-2.165 0.9457,-0.3268 3.9749,0.5004 4.6989,0 0.3692,-0.2552 -0.3692,-0.8274 0,-1.0825 0.7384,-0.5104 2.3943,0.5103 3.1326,0 0.3692,-0.2552 -0.3692,-0.8274 0,-1.0826 0.5221,-0.3608 4.1769,-0.7217 4.6989,-1.0825 0.3692,-0.2551 -0.522,-1.0825 0,-1.0825 0.5221,0 0.5221,1.0825 0,1.0825 -0.6552,0 -3.1287,-2.1677 -4.6989,-1.0825 -0.3692,0.2551 0.3692,0.8274 0,1.0825 -0.9458,0.6536 -8.8097,0.6761 -9.3978,1.0825 -0.3692,0.2552 0.3692,0.8274 0,1.0826 -0.7831,0.5412 -3.9158,-0.5413 -4.6989,0 -0.3692,0.2551 0.3692,0.8273 0,1.0825 -0.6103,0.4218 -5.3094,0 -6.2652,0 -11.4088,0 -23.468,0.8164 -34.4587,-1.0825 -1.0131,-0.1751 -2.1987,0.3227 -3.1327,0 -0.6603,-0.2283 -0.9059,-0.8543 -1.5663,-1.0826 -4.0354,-1.3945 -18.4977,1.1512 -23.4945,0 -5.0798,-1.1702 -9.017,-2.0772 -14.0967,-3.2475 -0.8859,-0.2041 -4.0698,0.4348 -4.699,0 -0.3691,-0.2552 0.3692,-0.8274 0,-1.0826 -0.3691,-0.2551 -1.0709,0.1142 -1.5662,0 -1.1076,-0.2551 -1.9879,-0.9242 -3.1327,-1.0824 -1.5358,-0.2123 -3.2129,0.3423 -4.6989,0 -0.4953,-0.1142 0.3692,-0.8274 0,-1.0825 -0.7847,-0.5424 -5.2384,-0.3729 -6.2652,-1.0826 -0.3692,-0.2551 0.2335,-0.7597 0,-1.0825 -0.6604,-0.9129 -2.2466,-1.3486 -3.1326,-2.165 -1.5663,-1.4434 -3.5315,-2.7164 -4.6989,-4.3301 -0.2335,-0.3228 0.3692,-0.8273 0,-1.0825 -0.3692,-0.2552 -1.3329,0.3227 -1.5663,0 -0.6924,-0.957 -2.9195,-12.2022 -1.5663,-14.0727 1.4809,-2.047 5.5611,-1.3805 7.8315,-2.165 0.6604,-0.2282 0.9059,-0.8543 1.5663,-1.0825 2.4296,-0.8396 26.826,0 31.3261,0 5.4565,0 39.1634,-1.0806 42.2902,0 2.5578,0.8838 4.8004,1.4667 7.8316,2.165 0.9906,0.2282 2.1985,-0.3228 3.1326,0 0.6603,0.2282 0.9058,0.8543 1.5662,1.0825 0.3062,0.1058 19.3184,1.8037 20.362,1.0825 2.0884,-1.4434 -2.6105,-1.0825 1.5663,-1.0825 4.0954,0 4.4203,0.096 7.8315,-1.0825 0.934,-0.3228 4.1769,0 3.1326,0 -10.0499,0 3.5862,0.4653 -3.1326,-1.0825 -5.0319,-1.1593 -12.5372,1.6214 -17.2293,0 -0.6604,-0.2282 -0.8658,-0.9212 -1.5663,-1.0825 -4.6919,-1.0809 -14.7454,1.3995 -18.7956,0 -0.467,-0.1614 0.4669,-0.9212 0,-1.0826 -1.6708,-0.5773 -4.5946,0.5773 -6.2653,0 -6.5186,-2.2526 1.6744,0.075 -1.5663,-2.165 -0.3597,-0.2486 -6.1968,-2.1177 -6.2652,-2.165 -0.6564,-0.4537 -1.0917,-2.5915 -1.5664,-3.2476 -0.3302,-0.4564 -1.3328,-0.5984 -1.5663,-1.0825 -0.4952,-1.0269 1.1076,-2.4821 0,-3.2475 -0.3691,-0.2552 -1.1971,0.2551 -1.5663,0 -1.4701,-1.0161 1.1834,-2.7184 1.5663,-3.2476 0.2335,-0.3228 -0.3691,-0.8274 0,-1.0825 0.3692,-0.2552 1.1972,0.2551 1.5663,0 0.3692,-0.2552 -0.3691,-0.8274 0,-1.0825 2.2593,-1.5615 11.1244,1.0271 14.0968,0 0.6604,-0.2283 0.9059,-0.8543 1.5664,-1.0826 1.304,-0.4506 5.2717,0.6867 6.2652,0 0.3691,-0.2551 -0.3692,-0.8274 0,-1.0825 1.1075,-0.7654 3.1325,0 4.6988,0 4.1592,0 13.1656,-2.4868 17.2294,-1.0825 1.8246,0.6305 2.8744,1.5346 4.6989,2.165 0.467,0.1614 1.5663,-0.3608 1.5663,0 0,0.035 -13.9075,-0.044 -14.0967,0 -1.1076,0.2552 -2.0251,0.8274 -3.1326,1.0826 -1.9522,0.4497 -21.7267,0.6109 -23.4946,0 -2.336,-0.8072 -3.8759,-2.4219 -6.2652,-3.2476 -0.934,-0.3227 -2.3943,0.5103 -3.1327,0 -0.7383,-0.5103 0.3302,-1.4804 0,-2.165 -3.7817,-7.8411 0.4516,1.7067 -3.1326,-3.2476 -1.4767,-2.0412 -2.3317,-4.281 -3.1326,-6.4951 -0.175,-0.484 -0.4453,-4.0222 0,-4.3301 1.1076,-0.7654 3.213,0.3424 4.6989,0 1.6224,-0.3737 3.1451,-1.628 4.699,-2.1649 1.7842,-0.6166 15.0851,-0.5886 17.2293,-1.0826 6.7612,-1.5576 13.0346,-2.165 20.362,-2.165 1.4849,0 4.9644,-0.4495 6.2652,0 3.871,1.3376 -0.5407,1.0825 3.1326,1.0825 1.5663,0 4.6989,-1.0825 4.6989,0 0,0.1862 -13.1478,-0.2186 -14.0967,0 -1.1075,0.2551 -2,0.8869 -3.1326,1.0825 -1.013,0.1751 -2.142,-0.2282 -3.1326,0 -0.7005,0.1614 -0.8659,0.9211 -1.5663,1.0826 -1.6151,0.372 -23.3066,0.6062 -25.0609,0 -6.5186,-2.2526 1.6745,0.075 -1.5663,-2.1651 -0.5855,-0.4047 -3.429,-0.8485 -4.6989,-2.165 -2.335,-2.4206 -4.3828,-4.9756 -6.2653,-7.5776 -0.4669,-0.6455 0.7384,-1.6547 0,-2.1651 -0.3692,-0.2551 -1.1971,0.2552 -1.5663,0 -0.7384,-0.5103 0,-2.8867 0,-2.165 0,5.9581 -0.8255,-1.5945 0,-2.165 0.3692,-0.2552 1.1971,0.2551 1.5663,0 1.0518,-0.7269 -1.0517,-1.4382 0,-2.165 0.7832,-0.5413 2.3495,-0.5413 3.1326,-1.0826 0.3692,-0.2551 -0.3691,-0.8273 0,-1.0825 0.3692,-0.2551 1.1972,0.2552 1.5663,0 0.3692,-0.2551 -0.3691,-0.8274 0,-1.0825 1.0443,-0.7217 5.2211,0.7217 6.2653,0 0.3692,-0.2552 -0.3691,-0.8274 0,-1.0825 0.724,-0.5004 3.7532,0.3268 4.6989,0 2.2615,-0.7815 4.0038,-1.3836 6.2652,-2.1651 0.9457,-0.3268 3.9749,0.5005 4.699,0 0.3691,-0.2551 -0.3692,-0.8273 0,-1.0825 0.7383,-0.5103 2.0883,0 3.1325,0 3.0335,0 9.876,-0.9172 12.5305,0 0.6604,0.2282 0.8658,0.9212 1.5663,1.0825 1.5091,0.3477 8.231,-0.8064 9.3978,0 0.3692,0.2552 -0.3692,0.8274 0,1.0826 1.3052,0.9021 6.5263,-0.9021 7.8315,0 0.3692,0.2551 -0.3692,0.8273 0,1.0825 1.7846,1.2334 23.2763,-1.2334 25.0609,0 0.3691,0.2551 -0.2335,0.7598 0,1.0825 1.1375,1.5723 2.4104,2.3337 3.1326,4.33 1.6504,4.5627 2.9912,-1.8964 6.1299,2.442 3.2593,4.5052 0.5438,0.7812 3.7845,3.021 -3.7845,-3.021 -8.3786,-12.2115 3.7846,2.6013 l 4.0125,4.8867 c 1.1454,1.3949 -22.1234,-20.3776 -22.1234,-20.3776 0.02,2.192 30.5169,28.3553 32.6054,29.0769 0.6604,0.2283 0.9058,0.8544 1.5662,1.0826 2.7032,0.9341 14.7549,0 18.7956,0 l 12.5305,0"
       id="path4528-0"
       inkscape:connector-curvature="0"
       sodipodi:nodetypes="ccccccccccsccccsccccscscccccssccccccsccsccccccccccccccccccccccsccccccssccccccssccsscccsccsccsccsccsscccsscssccccsccscccccccccccsscsccsscscccssssssscccsscssccscccccccccsscssccccccccsscssscssc" />
    <path
       style="fill:#ffaaaa;fill-rule:evenodd;stroke:#000000;stroke-width:0.20264898px;stroke-linecap:butt;stroke-linejoin:miter;stroke-opacity:1"
       d="m 3116.406,2394.9639 c -2.1785,3.14 -6.8918,0.1125 -9.779,0.9843 -0.6872,0.2074 -0.9427,0.7767 -1.6299,0.9842 -3.0424,0.9187 -8.3665,-0.9186 -11.4088,0 -0.6873,0.2075 -0.9427,0.7768 -1.6299,0.9843 -0.9718,0.2934 -2.2289,-0.2075 -3.2597,0 -3.2368,0.6515 -8.6156,1.1249 -11.4089,1.9684 -0.6873,0.2075 -0.901,0.8375 -1.6299,0.9842 -1.0307,0.2075 -2.2289,-0.2075 -3.2597,0 -0.7289,0.1468 -0.9426,0.7768 -1.6298,0.9843 -5.0926,1.5377 -11.0322,3.3311 -16.2985,4.9212 -1.3744,0.4151 -1.8853,1.5536 -3.2597,1.9685 -0.9323,0.2816 -7.7627,1.7351 -8.1492,1.9685 -0.8149,0.4922 -0.8149,1.4764 -1.6298,1.9685 -1.2148,0.7336 -3.6747,0.2506 -4.8896,0.9843 -0.3841,0.2319 0.243,0.6908 0,0.9842 -3.3915,4.0962 0.1126,-1.0522 -3.2597,0.9842 -0.3841,0.232 0.3842,0.7523 0,0.9843 -0.3841,0.232 -1.2456,-0.232 -1.6298,0 -0.3841,0.232 0.3842,0.7522 0,0.9842 -0.8149,0.4922 -2.4447,0.4922 -3.2597,0.9843 -3.3722,2.0363 5.1532,-0.08 -1.6299,1.9685 -0.4858,0.1467 -1.2456,-0.232 -1.6298,0 -0.3842,0.2319 0.3842,0.7522 0,0.9842 -0.3842,0.232 -1.1439,-0.1468 -1.6298,0 -6.7831,2.0481 1.7423,-0.068 -1.6299,1.9684 -0.3841,0.2321 -1.2456,-0.232 -1.6298,0 -0.3842,0.2321 0.3842,0.7523 0,0.9843 -3.3722,2.0364 0.1318,-3.112 -3.2597,0.9843 -0.243,0.2934 0.3841,0.7522 0,0.9842 -1.0685,0.6452 -5.7028,0.4912 -6.5194,0.9842 -0.8148,0.4922 -0.8148,1.4764 -1.6299,1.9685 -0.7682,0.464 -2.2877,-0.2934 -3.2596,0 -0.6872,0.2076 -0.9427,0.7768 -1.6299,0.9843 -0.9719,0.2934 -2.4914,-0.464 -3.2597,0 -0.3841,0.2319 0.3842,0.7522 0,0.9842 -1.157,0.6988 -14.5292,2.0527 -16.2984,0.9842 -0.3842,-0.2319 0.3842,-0.7522 0,-0.9842 -0.7684,-0.464 -2.4914,0.464 -3.2597,0 -0.3841,-0.232 0.243,-0.6908 0,-0.9842 -3.3915,-4.0962 0.1125,1.0522 -3.2597,-0.9843 -0.3841,-0.2319 0.243,-0.6907 0,-0.9842 -1.1766,-1.4211 -2.0831,-2.516 -3.2597,-3.937 -0.3968,-0.4793 -0.1522,-10.6428 0,-10.8266 0.3436,-0.4151 1.2863,-0.5694 1.6299,-0.9843 0.4859,-0.5868 -0.7684,-1.5045 0,-1.9685 0.3841,-0.2319 1.2457,0.232 1.6298,0 0.7683,-0.464 -0.7684,-1.5045 0,-1.9685 0.8149,-0.4921 2.4448,-0.4921 3.2597,-0.9842 0.3842,-0.232 -0.3841,-0.7523 0,-0.9843 0.5433,-0.3281 4.3463,-0.6561 4.8895,-0.9842 0.3842,-0.232 -0.3842,-0.7523 0,-0.9843 0.8687,-0.5246 7.2805,-1.4438 8.1492,-1.9684 0.3843,-0.2321 -0.3841,-0.7522 0,-0.9843 0.3843,-0.232 1.144,0.1467 1.6299,0 0.6872,-0.2075 0.9427,-0.7768 1.6298,-0.9843 0.9719,-0.2933 2.4914,0.4641 3.2597,0 0.3842,-0.2319 -0.3841,-0.7522 0,-0.9842 0.3842,-0.232 1.144,0.1468 1.6299,0 0.6872,-0.2074 0.9427,-0.7767 1.6298,-0.9842 0.9719,-0.2935 2.4914,0.464 3.2597,0 0.815,-0.4922 0.815,-1.4764 1.6298,-1.9685 0.7684,-0.464 2.2879,0.2934 3.2598,0 1.8985,-0.5732 2.991,-1.3952 4.8895,-1.9685 0.984,-0.2971 4.1361,0.455 4.8895,0 0.3842,-0.2319 -0.3841,-0.7522 0,-0.9842 0.7684,-0.4641 2.4914,0.464 3.2597,0 0.3842,-0.232 -0.3842,-0.7523 0,-0.9842 0.5433,-0.3282 4.3463,-0.6563 4.8895,-0.9843 0.3842,-0.232 -0.5432,-0.9843 0,-0.9843 0.5433,0 0.5433,0.9843 0,0.9843 -0.6818,0 -3.2557,-1.9709 -4.8895,-0.9843 -0.3842,0.232 0.3842,0.7523 0,0.9843 -0.9842,0.5943 -9.1671,0.6147 -9.7791,0.9843 -0.3841,0.2319 0.3842,0.7522 0,0.9842 -0.8148,0.4921 -4.0745,-0.4921 -4.8895,0 -0.3841,0.232 0.3842,0.7523 0,0.9842 -0.635,0.3835 -5.5248,0 -6.5194,0 -11.8716,0 -24.42,0.7424 -35.8566,-0.9842 -1.0541,-0.1592 -2.2878,0.2934 -3.2597,0 -0.6871,-0.2075 -0.9426,-0.7767 -1.6298,-0.9842 -4.1992,-1.2679 -19.2482,1.0466 -24.4477,0 -5.2858,-1.064 -9.3827,-1.8888 -14.6686,-2.9528 -0.9217,-0.1856 -4.2349,0.3953 -4.8895,0 -0.3842,-0.2319 0.3841,-0.7523 0,-0.9842 -0.3842,-0.232 -1.1145,0.1037 -1.6298,0 -1.1526,-0.232 -2.0685,-0.8404 -3.2598,-0.9843 -1.5981,-0.193 -3.3433,0.3113 -4.8895,0 -0.5154,-0.1038 0.3842,-0.7523 0,-0.9842 -0.8166,-0.4931 -5.4509,-0.339 -6.5194,-0.9843 -0.3842,-0.2319 0.243,-0.6907 0,-0.9843 -0.6872,-0.8299 -2.3377,-1.2261 -3.2596,-1.9684 -1.6299,-1.3123 -3.6748,-2.4698 -4.8896,-3.937 -0.2429,-0.2934 0.3842,-0.7522 0,-0.9842 -0.3842,-0.232 -1.3869,0.2934 -1.6298,0 -0.7205,-0.8702 -3.038,-11.0945 -1.6299,-12.7952 1.541,-1.8612 5.7868,-1.2551 8.1493,-1.9685 0.6871,-0.2075 0.9426,-0.7767 1.6298,-0.9842 2.5281,-0.7633 27.9142,0 32.5968,0 5.678,0 40.7522,-0.9824 44.0059,0 2.6615,0.8036 4.9952,1.3336 8.1492,1.9684 1.0309,0.2076 2.2878,-0.2933 3.2597,0 0.6872,0.2076 0.9427,0.7768 1.6298,0.9843 0.3186,0.096 20.1021,1.64 21.1881,0.9842 2.1731,-1.3123 -2.7165,-0.9842 1.6298,-0.9842 4.2615,0 4.5996,0.088 8.1492,-0.9843 0.9719,-0.2933 4.3463,0 3.2597,0 -10.4576,0 3.7316,0.4232 -3.2597,-0.9842 -5.236,-1.0539 -13.0458,1.4742 -17.9283,0 -0.6871,-0.2075 -0.9009,-0.8375 -1.6298,-0.9842 -4.8822,-0.9828 -15.3436,1.2725 -19.5581,0 -0.486,-0.1467 0.4859,-0.8376 0,-0.9843 -1.7386,-0.5249 -4.781,0.5249 -6.5194,0 -6.7831,-2.048 1.7423,0.068 -1.6299,-1.9685 -0.3743,-0.226 -6.4481,-1.9254 -6.5194,-1.9685 -0.683,-0.4124 -1.1359,-2.3561 -1.6298,-2.9526 -0.3436,-0.4151 -1.3869,-0.5441 -1.6299,-0.9843 -0.5153,-0.9337 1.1525,-2.2568 0,-2.9527 -0.3841,-0.232 -1.2457,0.2319 -1.6298,0 -1.5298,-0.9238 1.2314,-2.4716 1.6298,-2.9528 0.243,-0.2934 -0.3841,-0.7523 0,-0.9842 0.3841,-0.2319 1.2457,0.2319 1.6299,0 0.3841,-0.2319 -0.3842,-0.7523 0,-0.9843 2.3509,-1.4196 11.5756,0.934 14.6686,0 0.6872,-0.2075 0.9427,-0.7767 1.6299,-0.9842 1.3569,-0.4097 5.4855,0.6243 6.5193,0 0.3842,-0.232 -0.3841,-0.7523 0,-0.9843 1.1526,-0.6959 3.2597,0 4.8895,0 4.3279,0 13.6997,-2.261 17.9284,-0.9842 1.8985,0.5733 2.991,1.3952 4.8895,1.9685 0.4859,0.1468 1.6298,-0.3281 1.6298,0 0,0.032 -14.4717,-0.04 -14.6686,0 -1.1524,0.232 -2.1072,0.7523 -3.2597,0.9842 -2.0314,0.409 -22.6081,0.5555 -24.4476,0 -2.4308,-0.7339 -4.0332,-2.2019 -6.5195,-2.9527 -0.9718,-0.2934 -2.4913,0.464 -3.2596,0 -0.7684,-0.4639 0.3435,-1.346 0,-1.9685 -3.9353,-7.1293 0.4699,1.5518 -3.2597,-2.9527 -1.5366,-1.8559 -2.4264,-3.8924 -3.2597,-5.9055 -0.1822,-0.4401 -0.4634,-3.6572 0,-3.9369 1.1525,-0.696 3.3434,0.3113 4.8895,0 1.6883,-0.3399 3.2727,-1.4803 4.8895,-1.9685 1.8566,-0.5606 15.6971,-0.5352 17.9284,-0.9843 7.0354,-1.4162 13.5634,-1.9685 21.1879,-1.9685 1.5452,0 5.1659,-0.4087 6.5194,0 4.0281,1.2162 -0.5626,0.9843 3.2597,0.9843 1.6299,0 4.8896,-0.9843 4.8896,0 0,0.1693 -13.6812,-0.1988 -14.6687,0 -1.1524,0.2319 -2.0811,0.8064 -3.2596,0.9842 -1.0541,0.1592 -2.2289,-0.2075 -3.2597,0 -0.7289,0.1468 -0.901,0.8375 -1.6299,0.9843 -1.6805,0.3383 -24.252,0.5512 -26.0775,0 -6.783,-2.0482 1.7424,0.068 -1.6298,-1.9685 -0.6092,-0.3679 -3.5682,-0.7716 -4.8896,-1.9685 -2.4296,-2.2008 -4.5605,-4.5239 -6.5194,-6.8897 -0.4858,-0.5869 0.7684,-1.5045 0,-1.9685 -0.3841,-0.232 -1.2456,0.232 -1.6298,0 -0.7683,-0.464 0,-2.6247 0,-1.9684 0,5.417 -0.859,-1.4499 0,-1.9686 0.3842,-0.2319 1.2457,0.232 1.6298,0 1.0945,-0.6608 -1.0943,-1.3075 0,-1.9684 0.8149,-0.4922 2.4448,-0.4922 3.2597,-0.9843 0.3841,-0.232 -0.3841,-0.7523 0,-0.9842 0.3841,-0.232 1.2457,0.2319 1.6299,0 0.3841,-0.232 -0.3842,-0.7523 0,-0.9843 1.0866,-0.6561 5.4328,0.6562 6.5194,0 0.3841,-0.232 -0.3842,-0.7522 0,-0.9842 0.7534,-0.455 3.9054,0.2972 4.8895,0 2.3532,-0.7106 4.1662,-1.258 6.5194,-1.9685 0.984,-0.2972 4.1361,0.455 4.8895,0 0.3842,-0.232 -0.3841,-0.7523 0,-0.9843 0.7683,-0.4639 2.1731,0 3.2597,0 3.1566,0 10.2766,-0.834 13.0388,0 0.6871,0.2075 0.9009,0.8376 1.6298,0.9843 1.5703,0.3161 8.565,-0.7332 9.7791,0 0.3841,0.2319 -0.3842,0.7523 0,0.9842 1.3582,0.8203 6.7911,-0.8201 8.1492,0 0.3842,0.232 -0.3842,0.7523 0,0.9843 1.857,1.1214 24.2205,-1.1214 26.0775,0 0.3842,0.232 -0.2429,0.6908 0,0.9842 1.1837,1.4296 2.5083,2.1218 3.2597,3.937 1.7174,4.1485 3.1126,-1.7243 6.3786,2.2202 3.3916,4.0963 0.5659,0.7104 3.9381,2.7468 -3.9381,-2.7468 -8.7186,-11.1029 3.9381,2.3652 l 4.1753,4.443 c 1.1918,1.2683 -23.0209,-18.5277 -23.0209,-18.5277 0.021,1.9931 31.7549,25.7812 33.9281,26.4374 0.6872,0.2075 0.9425,0.7767 1.6298,0.9842 2.8128,0.8493 15.3533,0 19.5581,0 l 13.0388,0"
       id="path4528-5"
       inkscape:connector-curvature="0"
       sodipodi:nodetypes="ccccccccccsccccsccccscscccccssccccccsccsccccccccccccccccccccccsccccccssccccccssccsscccsccsccsccsccsscccsscssccccsccscccccccccccsscsccsscscccssssssscccsscssccscccccccccsscssccccccccsscssscssc" />
    <path
       style="fill:#ffaaaa;fill-rule:evenodd;stroke:#000000;stroke-width:0.21385327px;stroke-linecap:butt;stroke-linejoin:miter;stroke-opacity:1"
       d="m 3129.5308,2115.2785 c -2.3481,3.2443 -7.4283,0.1162 -10.5403,1.017 -0.7406,0.2144 -1.016,0.8025 -1.7567,1.0169 -3.2792,0.9492 -9.0177,-0.9491 -12.2968,0 -0.7408,0.2144 -1.0161,0.8026 -1.7568,1.017 -1.0475,0.3031 -2.4024,-0.2144 -3.5134,0 -3.4887,0.6732 -9.2861,1.1623 -12.2969,2.0338 -0.7407,0.2144 -0.9711,0.8653 -1.7568,1.0169 -1.1109,0.2144 -2.4023,-0.2144 -3.5134,0 -0.7856,0.1517 -1.016,0.8026 -1.7567,1.017 -5.4889,1.5887 -11.8908,3.4417 -17.567,5.0847 -1.4814,0.4287 -2.032,1.605 -3.5134,2.0338 -1.0049,0.2909 -8.3669,1.7927 -8.7835,2.0339 -0.8784,0.5085 -0.8784,1.5254 -1.7567,2.0338 -1.3094,0.758 -3.9608,0.259 -5.2701,1.017 -0.4141,0.2397 0.2618,0.7138 0,1.0169 -3.6555,4.2323 0.1213,-1.0871 -3.5135,1.017 -0.414,0.2396 0.4141,0.7772 0,1.0169 -0.414,0.2397 -1.3426,-0.2397 -1.7567,0 -0.414,0.2397 0.4141,0.7772 0,1.0169 -0.8783,0.5085 -2.635,0.5085 -3.5134,1.017 -3.6346,2.104 5.5543,-0.082 -1.7567,2.0339 -0.5237,0.1515 -1.3426,-0.2397 -1.7567,0 -0.4141,0.2396 0.4141,0.7772 0,1.0169 -0.4141,0.2397 -1.233,-0.1516 -1.7567,0 -7.311,2.1161 1.878,-0.07 -1.7567,2.0338 -0.414,0.2397 -1.3426,-0.2397 -1.7567,0 -0.4141,0.2397 0.4141,0.7773 0,1.017 -3.6347,2.104 0.1421,-3.2154 -3.5134,1.017 -0.2619,0.3031 0.414,0.7772 0,1.0168 -1.1517,0.6667 -6.1467,0.5075 -7.0268,1.017 -0.8783,0.5085 -0.8783,1.5254 -1.7567,2.0339 -0.8281,0.4794 -2.4659,-0.3032 -3.5134,0 -0.7407,0.2144 -1.0161,0.8025 -1.7568,1.0169 -1.0475,0.3031 -2.6853,-0.4794 -3.5134,0 -0.414,0.2397 0.4141,0.7772 0,1.0169 -1.2471,0.722 -15.6601,2.1208 -17.567,1.0169 -0.414,-0.2397 0.4141,-0.7772 0,-1.0169 -0.8281,-0.4794 -2.6853,0.4794 -3.5134,0 -0.414,-0.2397 0.2619,-0.7138 0,-1.0169 -3.6555,-4.2323 0.1212,1.0871 -3.5134,-1.0169 -0.414,-0.2397 0.2619,-0.7138 0,-1.017 -1.2682,-1.4682 -2.2453,-2.5995 -3.5134,-4.0677 -0.4277,-0.4953 -0.164,-10.9964 0,-11.1863 0.3703,-0.4288 1.3863,-0.5882 1.7567,-1.017 0.5237,-0.6063 -0.8281,-1.5544 0,-2.0338 0.414,-0.2397 1.3427,0.2397 1.7567,0 0.8281,-0.4794 -0.8281,-1.5545 0,-2.0339 0.8783,-0.5085 2.6351,-0.5085 3.5134,-1.0169 0.4141,-0.2397 -0.414,-0.7773 0,-1.0169 0.5855,-0.3391 4.6846,-0.678 5.2701,-1.017 0.4141,-0.2397 -0.4141,-0.7772 0,-1.0169 0.9364,-0.5421 7.8472,-1.4918 8.7835,-2.0339 0.4141,-0.2397 -0.414,-0.7772 0,-1.0169 0.4141,-0.2397 1.233,0.1516 1.7567,0 0.7408,-0.2144 1.0161,-0.8026 1.7567,-1.017 1.0475,-0.3031 2.6853,0.4794 3.5134,0 0.4141,-0.2397 -0.414,-0.7772 0,-1.0169 0.4141,-0.2397 1.233,0.1516 1.7568,0 0.7406,-0.2144 1.016,-0.8025 1.7566,-1.017 1.0475,-0.3031 2.6853,0.4794 3.5135,0 0.8783,-0.5084 0.8783,-1.5253 1.7567,-2.0338 0.8281,-0.4794 2.4659,0.3032 3.5134,0 2.0464,-0.5923 3.2238,-1.4416 5.2701,-2.0339 1.0606,-0.307 4.4581,0.4701 5.2701,0 0.414,-0.2396 -0.414,-0.7772 0,-1.0169 0.8282,-0.4794 2.6853,0.4794 3.5134,0 0.4141,-0.2397 -0.4141,-0.7772 0,-1.0169 0.5856,-0.339 4.6846,-0.678 5.2701,-1.017 0.4141,-0.2397 -0.5855,-1.0169 0,-1.0169 0.5856,0 0.5856,1.0169 0,1.0169 -0.7348,0 -3.509,-2.0363 -5.2701,-1.0169 -0.4141,0.2397 0.4141,0.7772 0,1.0169 -1.0607,0.6141 -9.8807,0.6352 -10.5402,1.017 -0.414,0.2397 0.4141,0.7772 0,1.0169 -0.8783,0.5085 -4.3918,-0.5084 -5.2701,0 -0.4141,0.2397 0.414,0.7773 0,1.0169 -0.6845,0.3963 -5.9548,0 -7.0269,0 -12.7956,0 -26.3207,0.767 -38.6475,-1.0169 -1.1361,-0.1644 -2.4659,0.3032 -3.5134,0 -0.7407,-0.2144 -1.016,-0.8025 -1.7567,-1.0169 -4.526,-1.3101 -20.7463,1.0814 -26.3506,0 -5.6972,-1.0994 -10.1131,-1.9515 -15.8103,-3.0509 -0.9936,-0.1917 -4.5645,0.4085 -5.2702,0 -0.414,-0.2396 0.4141,-0.7772 0,-1.0169 -0.414,-0.2397 -1.2011,0.1072 -1.7566,0 -1.2422,-0.2397 -2.2295,-0.8683 -3.5135,-1.0169 -1.7225,-0.1994 -3.6035,0.3216 -5.27,0 -0.5556,-0.1072 0.414,-0.7772 0,-1.0169 -0.8802,-0.5095 -5.8753,-0.3503 -7.0269,-1.017 -0.414,-0.2396 0.2619,-0.7137 0,-1.017 -0.7407,-0.8575 -2.5197,-1.2668 -3.5134,-2.0338 -1.7567,-1.3559 -3.9608,-2.5518 -5.2701,-4.0677 -0.2619,-0.3032 0.414,-0.7773 0,-1.0169 -0.4141,-0.2398 -1.4949,0.3031 -1.7567,0 -0.7765,-0.8991 -3.2744,-11.4631 -1.7567,-13.2202 1.6609,-1.923 6.2371,-1.2968 8.7835,-2.0339 0.7407,-0.2144 1.016,-0.8025 1.7567,-1.0169 2.7249,-0.7887 30.0869,0 35.1341,0 6.1198,0 43.9242,-1.0151 47.4311,0 2.8686,0.8303 5.384,1.3779 8.7835,2.0339 1.111,0.2143 2.4659,-0.3032 3.5134,0 0.7407,0.2143 1.016,0.8025 1.7567,1.0169 0.3434,0.099 21.6667,1.6945 22.8372,1.0169 2.3423,-1.3559 -2.9279,-1.0169 1.7567,-1.0169 4.5932,0 4.9576,0.091 8.7835,-1.0169 1.0475,-0.3032 4.6846,0 3.5134,0 -11.2716,0 4.0221,0.4371 -3.5134,-1.017 -5.6435,-1.089 -14.0613,1.5232 -19.3238,0 -0.7406,-0.2144 -0.971,-0.8653 -1.7566,-1.0169 -5.2623,-1.0154 -16.5379,1.3148 -21.0805,0 -0.5237,-0.1516 0.5238,-0.8654 0,-1.0169 -1.8738,-0.5424 -5.153,0.5423 -7.0268,0 -7.311,-2.1162 1.8779,0.07 -1.7567,-2.0339 -0.4035,-0.2336 -6.9501,-1.9894 -7.0269,-2.0339 -0.7362,-0.4261 -1.2244,-2.4345 -1.7567,-3.0508 -0.3704,-0.4288 -1.4948,-0.5621 -1.7567,-1.0169 -0.5555,-0.9648 1.2422,-2.3317 0,-3.0508 -0.414,-0.2397 -1.3427,0.2397 -1.7567,0 -1.6489,-0.9545 1.3272,-2.5537 1.7567,-3.0508 0.2619,-0.3032 -0.414,-0.7773 0,-1.017 0.414,-0.2397 1.3426,0.2397 1.7567,0 0.414,-0.2397 -0.4141,-0.7772 0,-1.0169 2.5339,-1.4669 12.4766,0.9649 15.8104,0 0.7407,-0.2144 1.016,-0.8026 1.7567,-1.017 1.4626,-0.4233 5.9126,0.6451 7.0268,0 0.4141,-0.2396 -0.414,-0.7772 0,-1.0169 1.2422,-0.7191 3.5134,0 5.2701,0 4.6648,0 14.766,-2.3362 19.3238,-1.0169 2.0464,0.5923 3.2238,1.4416 5.2701,2.0338 0.5238,0.1517 1.7567,-0.3389 1.7567,0 0,0.033 -15.5981,-0.041 -15.8104,0 -1.2421,0.2398 -2.2712,0.7773 -3.5134,1.017 -2.1895,0.4225 -24.3678,0.5739 -26.3505,0 -2.62,-0.7583 -4.3471,-2.2751 -7.0269,-3.0508 -1.0475,-0.3032 -2.6853,0.4794 -3.5134,0 -0.8281,-0.4794 0.3703,-1.3907 0,-2.0339 -4.2415,-7.366 0.5064,1.6033 -3.5134,-3.0508 -1.6563,-1.9175 -2.6152,-4.0217 -3.5135,-6.1016 -0.1963,-0.4547 -0.4994,-3.7786 0,-4.0678 1.2422,-0.719 3.6036,0.3216 5.2702,0 1.8196,-0.3511 3.5273,-1.5294 5.2701,-2.0338 2.0011,-0.5792 16.9189,-0.5529 19.3238,-1.0169 7.5831,-1.4633 14.6191,-2.0339 22.8372,-2.0339 1.6654,0 5.5679,-0.4223 7.0268,0 4.3416,1.2566 -0.6064,1.0169 3.5134,1.0169 1.7567,0 5.2701,-1.0169 5.2701,0 0,0.1749 -14.7461,-0.2053 -15.8103,0 -1.2422,0.2397 -2.2431,0.8331 -3.5134,1.017 -1.1362,0.1644 -2.4024,-0.2144 -3.5134,0 -0.7857,0.1515 -0.9711,0.8653 -1.7568,1.0169 -1.8114,0.3495 -26.1397,0.5695 -28.1072,0 -7.311,-2.1161 1.878,0.07 -1.7567,-2.0339 -0.6567,-0.3801 -3.8459,-0.7971 -5.2702,-2.0339 -2.6187,-2.2739 -4.9155,-4.6741 -7.0268,-7.1185 -0.5238,-0.6064 0.8281,-1.5545 0,-2.0339 -0.4141,-0.2397 -1.3427,0.2397 -1.7568,0 -0.8281,-0.4794 0,-2.7118 0,-2.0338 0,5.5971 -0.9258,-1.4979 0,-2.0339 0.4141,-0.2397 1.3427,0.2397 1.7568,0 1.1796,-0.6829 -1.1796,-1.351 0,-2.0338 0.8783,-0.5085 2.635,-0.5085 3.5134,-1.017 0.414,-0.2397 -0.414,-0.7772 0,-1.0169 0.414,-0.2397 1.3426,0.2397 1.7567,0 0.414,-0.2397 -0.4141,-0.7773 0,-1.017 1.1711,-0.6779 5.8557,0.678 7.0269,0 0.414,-0.2397 -0.4141,-0.7772 0,-1.0169 0.812,-0.4701 4.2094,0.307 5.2701,0 2.5363,-0.7341 4.4905,-1.2998 7.0268,-2.0339 1.0607,-0.307 4.4581,0.4701 5.2701,0 0.4141,-0.2396 -0.414,-0.7772 0,-1.0169 0.8281,-0.4794 2.3423,0 3.5134,0 3.4023,0 11.0765,-0.8617 14.0537,0 0.7406,0.2144 0.9711,0.8653 1.7567,1.0169 1.6925,0.3266 9.2315,-0.7576 10.5402,0 0.414,0.2397 -0.4141,0.7773 0,1.017 1.4639,0.8474 7.3196,-0.8475 8.7835,0 0.4141,0.2396 -0.4141,0.7772 0,1.0169 2.0015,1.1587 26.1058,-1.1586 28.1073,0 0.414,0.2397 -0.2619,0.7137 0,1.0169 1.2758,1.4771 2.7035,2.1923 3.5134,4.0677 1.8511,4.2863 3.3549,-1.7815 6.8751,2.294 3.6554,4.2323 0.6099,0.734 4.2446,2.838 -4.2446,-2.838 -9.3972,-11.4716 4.2446,2.4438 l 4.5002,4.5906 c 1.2846,1.3104 -24.8127,-19.1431 -24.8127,-19.1431 0.022,2.0592 34.2266,26.6375 36.5689,27.3154 0.7407,0.2145 1.016,0.8026 1.7567,1.017 3.0318,0.8775 16.5484,0 21.0804,0 l 14.0537,0"
       id="path4528-55"
       inkscape:connector-curvature="0"
       sodipodi:nodetypes="ccccccccccsccccsccccscscccccssccccccsccsccccccccccccccccccccccsccccccssccccccssccsscccsccsccsccsccsscccsscssccccsccscccccccccccsscsccsscscccssssssscccsscssccscccccccccsscssccccccccsscssscssc" />
    <path
       style="fill:#ffaaaa;fill-rule:evenodd;stroke:#000000;stroke-width:0.17732278px;stroke-linecap:butt;stroke-linejoin:miter;stroke-opacity:1"
       d="m 3081.2326,1958.0638 c -1.9242,2.722 -6.087,0.097 -8.6371,0.8532 -0.6069,0.1799 -0.8325,0.6734 -1.4395,0.8533 -2.6871,0.7963 -7.3894,-0.7964 -10.0765,0 -0.607,0.1798 -0.8326,0.6733 -1.4395,0.8532 -0.8584,0.2544 -1.9687,-0.1799 -2.8791,0 -2.8587,0.5649 -7.6094,0.9753 -10.0765,1.7065 -0.607,0.1799 -0.7958,0.7261 -1.4396,0.8532 -0.9103,0.1799 -1.9685,-0.1798 -2.879,0 -0.6438,0.1273 -0.8325,0.6734 -1.4395,0.8533 -4.4978,1.333 -9.7438,2.8878 -14.395,4.2662 -1.214,0.3598 -1.6652,1.3468 -2.879,1.7065 -0.8236,0.2441 -6.8563,1.5042 -7.1976,1.7065 -0.7198,0.4266 -0.7198,1.2799 -1.4395,1.7065 -1.073,0.636 -3.2456,0.2173 -4.3185,0.8533 -0.3393,0.201 0.2145,0.5988 0,0.8532 -2.9955,3.551 0.099,-0.9121 -2.8791,0.8533 -0.3393,0.2011 0.3393,0.6521 0,0.8532 -0.3393,0.2011 -1.1002,-0.2011 -1.4395,0 -0.3393,0.2011 0.3393,0.6521 0,0.8533 -0.7198,0.4266 -2.1592,0.4266 -2.879,0.8532 -2.9784,1.7654 4.5514,-0.069 -1.4395,1.7065 -0.4292,0.1272 -1.1002,-0.2011 -1.4395,0 -0.3393,0.2011 0.3393,0.6521 0,0.8533 -0.3393,0.2011 -1.0104,-0.1273 -1.4395,0 -5.9909,1.7754 1.5388,-0.059 -1.4395,1.7064 -0.3393,0.2012 -1.1002,-0.2011 -1.4395,0 -0.3394,0.2012 0.3393,0.6522 0,0.8533 -2.9785,1.7654 0.1164,-2.6978 -2.879,0.8533 -0.2147,0.2543 0.3392,0.6521 0,0.8532 -0.9438,0.5593 -5.0369,0.4258 -5.7581,0.8532 -0.7197,0.4267 -0.7197,1.2799 -1.4395,1.7065 -0.6786,0.4023 -2.0207,-0.2544 -2.879,0 -0.607,0.1799 -0.8326,0.6734 -1.4396,0.8533 -0.8583,0.2543 -2.2004,-0.4023 -2.879,0 -0.3392,0.2011 0.3393,0.6521 0,0.8532 -1.0219,0.6057 -12.8325,1.7795 -14.395,0.8532 -0.3393,-0.2011 0.3392,-0.6521 0,-0.8532 -0.6786,-0.4022 -2.2005,0.4022 -2.879,0 -0.3393,-0.2011 0.2145,-0.5989 0,-0.8532 -2.9955,-3.551 0.099,0.9121 -2.8791,-0.8533 -0.3392,-0.2011 0.2146,-0.5988 0,-0.8532 -1.0391,-1.232 -1.8398,-2.1811 -2.879,-3.413 -0.3505,-0.4155 -0.1344,-9.2264 0,-9.3857 0.3035,-0.3598 1.1361,-0.4935 1.4395,-0.8533 0.4292,-0.5088 -0.6786,-1.3043 0,-1.7065 0.3393,-0.2011 1.1003,0.2011 1.4395,0 0.6786,-0.4022 -0.6786,-1.3042 0,-1.7065 0.7198,-0.4266 2.1593,-0.4266 2.8791,-0.8532 0.3392,-0.2011 -0.3393,-0.6522 0,-0.8533 0.4797,-0.2844 3.8386,-0.5688 4.3185,-0.8532 0.3393,-0.2011 -0.3393,-0.6522 0,-0.8533 0.7673,-0.4548 6.4302,-1.2516 7.1975,-1.7065 0.3393,-0.2011 -0.3393,-0.6521 0,-0.8532 0.3393,-0.2011 1.0104,0.1272 1.4395,0 0.607,-0.1799 0.8326,-0.6734 1.4395,-0.8533 0.8584,-0.2543 2.2005,0.4023 2.879,0 0.3393,-0.2011 -0.3392,-0.6521 0,-0.8532 0.3393,-0.2011 1.0104,0.1272 1.4396,0 0.6069,-0.1799 0.8325,-0.6733 1.4394,-0.8533 0.8584,-0.2543 2.2005,0.4023 2.8791,0 0.7197,-0.4266 0.7197,-1.2798 1.4395,-1.7064 0.6786,-0.4023 2.0207,0.2543 2.879,0 1.6769,-0.497 2.6417,-1.2096 4.3186,-1.7065 0.8691,-0.2576 3.653,0.3944 4.3185,0 0.3392,-0.2011 -0.3393,-0.6522 0,-0.8533 0.6786,-0.4022 2.2004,0.4023 2.879,0 0.3393,-0.2011 -0.3393,-0.6521 0,-0.8532 0.4798,-0.2844 3.8387,-0.5689 4.3185,-0.8533 0.3393,-0.2011 -0.4798,-0.8532 0,-0.8532 0.4798,0 0.4798,0.8532 0,0.8532 -0.6022,0 -2.8755,-1.7086 -4.3185,-0.8532 -0.3393,0.2011 0.3393,0.6521 0,0.8532 -0.8692,0.5152 -8.0966,0.5329 -8.6371,0.8533 -0.3392,0.2011 0.3393,0.6521 0,0.8532 -0.7197,0.4267 -3.5988,-0.4266 -4.3185,0 -0.3393,0.2011 0.3393,0.6522 0,0.8533 -0.5609,0.3324 -4.8796,0 -5.7581,0 -10.4852,0 -21.5681,0.6435 -31.6692,-0.8533 -0.931,-0.138 -2.0206,0.2544 -2.879,0 -0.6069,-0.1799 -0.8326,-0.6733 -1.4395,-0.8532 -3.7088,-1.0992 -17.0003,0.9073 -21.5926,0 -4.6686,-0.9224 -8.2871,-1.6373 -12.9556,-2.5598 -0.8141,-0.1608 -3.7403,0.3427 -4.3186,0 -0.3392,-0.2011 0.3393,-0.6521 0,-0.8532 -0.3392,-0.2011 -0.9842,0.09 -1.4394,0 -1.0179,-0.2011 -1.827,-0.7285 -2.8791,-0.8532 -1.4115,-0.1674 -2.9528,0.2698 -4.3185,0 -0.4552,-0.09 0.3393,-0.6522 0,-0.8533 -0.7212,-0.4275 -4.8143,-0.2939 -5.758,-0.8532 -0.3393,-0.2011 0.2145,-0.5989 0,-0.8533 -0.607,-0.7195 -2.0648,-1.063 -2.879,-1.7065 -1.4396,-1.1376 -3.2456,-2.141 -4.3186,-3.413 -0.2145,-0.2544 0.3393,-0.6521 0,-0.8532 -0.3393,-0.2011 -1.2249,0.2544 -1.4395,0 -0.6363,-0.7544 -2.6831,-9.6179 -1.4395,-11.0923 1.3611,-1.6134 5.111,-1.088 7.1976,-1.7064 0.6069,-0.1799 0.8325,-0.6734 1.4395,-0.8533 2.2328,-0.6617 24.6543,0 28.7901,0 5.0148,0 35.9931,-0.8516 38.8668,0 2.3507,0.6967 4.4118,1.1561 7.1976,1.7065 0.9104,0.1799 2.0206,-0.2544 2.879,0 0.6069,0.1799 0.8325,0.6734 1.4395,0.8532 0.2814,0.083 17.7545,1.4218 18.7136,0.8533 1.9194,-1.1377 -2.3992,-0.8533 1.4395,-0.8533 3.7639,0 4.0625,0.076 7.1976,-0.8532 0.8584,-0.2544 3.8387,0 2.879,0 -9.2364,0 3.2958,0.3668 -2.879,-0.8532 -4.6246,-0.9137 -11.5224,1.278 -15.8347,0 -0.6069,-0.1799 -0.7957,-0.7261 -1.4394,-0.8533 -4.3121,-0.8519 -13.5518,1.1032 -17.2741,0 -0.4292,-0.1272 0.4291,-0.726 0,-0.8532 -1.5355,-0.4551 -4.2226,0.455 -5.7581,0 -5.9909,-1.7755 1.5389,0.059 -1.4395,-1.7065 -0.3306,-0.196 -5.6951,-1.6692 -5.7581,-1.7065 -0.6032,-0.3576 -1.0033,-2.0427 -1.4395,-2.5597 -0.3035,-0.3598 -1.2249,-0.4717 -1.4395,-0.8533 -0.4552,-0.8094 1.0179,-1.9564 0,-2.5597 -0.3393,-0.2012 -1.1002,0.2011 -1.4395,0 -1.3512,-0.8009 1.0876,-2.1427 1.4395,-2.5598 0.2146,-0.2544 -0.3393,-0.6521 0,-0.8532 0.3393,-0.2011 1.1002,0.2011 1.4395,0 0.3393,-0.2011 -0.3393,-0.6522 0,-0.8533 2.0764,-1.2307 10.2238,0.8096 12.9557,0 0.6069,-0.1799 0.8325,-0.6734 1.4395,-0.8532 1.1985,-0.3552 4.8449,0.5412 5.758,0 0.3393,-0.2011 -0.3393,-0.6522 0,-0.8533 1.0179,-0.6033 2.879,0 4.3185,0 3.8225,0 12.0998,-1.9601 15.8346,-0.8532 1.6769,0.4969 2.6417,1.2095 4.3186,1.7065 0.4291,0.1272 1.4394,-0.2844 1.4394,0 0,0.027 -12.7816,-0.035 -12.9556,0 -1.0178,0.2011 -1.8611,0.6521 -2.879,0.8532 -1.7941,0.3545 -19.9678,0.4815 -21.5926,0 -2.1469,-0.6362 -3.5621,-1.9089 -5.758,-2.5597 -0.8584,-0.2544 -2.2005,0.4022 -2.8791,0 -0.6786,-0.4022 0.3035,-1.1669 0,-1.7065 -3.4756,-6.1804 0.415,1.3452 -2.879,-2.5598 -1.3572,-1.6089 -2.143,-3.3743 -2.8791,-5.1195 -0.1608,-0.3815 -0.4092,-3.1703 0,-3.413 1.018,-0.6033 2.953,0.2699 4.3186,0 1.4911,-0.2946 2.8905,-1.2832 4.3186,-1.7064 1.6397,-0.486 13.8639,-0.4639 15.8346,-0.8533 6.2138,-1.2277 11.9794,-1.7065 18.7136,-1.7065 1.3647,0 4.5625,-0.3543 5.758,0 3.5577,1.0544 -0.4969,0.8533 2.879,0.8533 1.4396,0 4.3186,-0.8533 4.3186,0 0,0.1467 -12.0835,-0.1723 -12.9556,0 -1.0179,0.2011 -1.8381,0.699 -2.879,0.8532 -0.931,0.138 -1.9686,-0.1799 -2.879,0 -0.6438,0.1272 -0.7958,0.7261 -1.4396,0.8533 -1.4843,0.2933 -21.4198,0.4778 -23.0321,0 -5.9909,-1.7755 1.5389,0.059 -1.4395,-1.7065 -0.5381,-0.319 -3.1515,-0.6689 -4.3186,-1.7065 -2.1459,-1.9079 -4.0279,-3.9218 -5.758,-5.9727 -0.4292,-0.5088 0.6786,-1.3043 0,-1.7065 -0.3393,-0.2012 -1.1002,0.2011 -1.4396,0 -0.6785,-0.4023 0,-2.2754 0,-1.7065 0,4.6961 -0.7586,-1.2568 0,-1.7065 0.3394,-0.2011 1.1003,0.2011 1.4396,0 0.9666,-0.573 -0.9666,-1.1336 0,-1.7065 0.7197,-0.4266 2.1592,-0.4266 2.879,-0.8533 0.3393,-0.2011 -0.3393,-0.6521 0,-0.8532 0.3393,-0.2011 1.1002,0.2011 1.4395,0 0.3393,-0.2011 -0.3393,-0.6522 0,-0.8533 0.9597,-0.5688 4.7984,0.5689 5.7581,0 0.3393,-0.2011 -0.3393,-0.6521 0,-0.8532 0.6654,-0.3944 3.4494,0.2576 4.3185,0 2.0784,-0.616 3.6797,-1.0906 5.7581,-1.7065 0.8691,-0.2576 3.6531,0.3944 4.3185,0 0.3393,-0.2011 -0.3393,-0.6522 0,-0.8533 0.6786,-0.4022 1.9193,0 2.879,0 2.7879,0 9.0765,-0.723 11.5161,0 0.6069,0.1799 0.7957,0.7261 1.4395,0.8533 1.3869,0.274 7.5647,-0.6356 8.6371,0 0.3392,0.2011 -0.3394,0.6522 0,0.8532 1.1995,0.7111 5.9979,-0.711 7.1975,0 0.3393,0.2011 -0.3393,0.6522 0,0.8533 1.6401,0.9721 21.392,-0.9722 23.0322,0 0.3392,0.2011 -0.2147,0.5988 0,0.8532 1.0453,1.2394 2.2153,1.8394 2.879,3.413 1.5168,3.5964 2.7491,-1.4948 5.6336,1.9248 2.9955,3.551 0.4998,0.6158 3.4782,2.3812 -3.4782,-2.3812 -7.7004,-9.6252 3.4782,2.0503 l 3.6877,3.8517 c 1.0526,1.0995 -20.3325,-16.0617 -20.3325,-16.0617 0.018,1.7277 28.0465,22.3498 29.9659,22.9186 0.6069,0.18 0.8326,0.6734 1.4395,0.8533 2.4844,0.7363 13.5604,0 17.2741,0 l 11.5161,0"
       id="path4528-04"
       inkscape:connector-curvature="0"
       sodipodi:nodetypes="ccccccccccsccccsccccscscccccssccccccsccsccccccccccccccccccccccsccccccssccccccssccsscccsccsccsccsccsscccsscssccccsccscccccccccccsscsccsscscccssssssscccsscssccscccccccccsscssccccccccsscssscssc" />
    <path
       style="fill:#ffaaaa;fill-rule:evenodd;stroke:#000000;stroke-width:0.38935021px;stroke-linecap:butt;stroke-linejoin:miter;stroke-opacity:1"
       d="m 3212.2883,2638.7294 c -3.959,6.3782 -12.5243,0.2284 -17.7712,1.9993 -1.2488,0.4215 -1.713,1.5778 -2.9619,1.9993 -5.5288,1.866 -15.2041,-1.866 -20.7329,0 -1.2489,0.4214 -1.7131,1.5778 -2.9619,1.9993 -1.7661,0.596 -4.0505,-0.4215 -5.9237,0 -5.8821,1.3235 -15.6568,2.2852 -20.7331,3.9985 -1.2488,0.4215 -1.6372,1.7013 -2.9619,1.9993 -1.8731,0.4215 -4.0504,-0.4215 -5.9237,0 -1.3246,0.2981 -1.713,1.5778 -2.9619,1.9994 -9.2545,3.1234 -20.0483,6.7664 -29.6185,9.9964 -2.4977,0.843 -3.4261,3.1556 -5.9237,3.9985 -1.6944,0.5719 -14.107,3.5245 -14.8094,3.9987 -1.4809,0.9996 -1.4809,2.9989 -2.9618,3.9985 -2.2077,1.4902 -6.678,0.5091 -8.8856,1.9993 -0.6981,0.4712 0.4415,1.4033 0,1.9993 -6.1633,8.3206 0.2045,-2.1373 -5.9238,1.9993 -0.6981,0.4712 0.6981,1.5281 0,1.9993 -0.6981,0.4713 -2.2637,-0.4712 -2.9618,0 -0.6981,0.4713 0.6981,1.528 0,1.9993 -1.481,0.9997 -4.4428,0.9997 -5.9237,1.9993 -6.1282,4.1366 9.3647,-0.1617 -2.9619,3.9986 -0.883,0.298 -2.2637,-0.4712 -2.9619,0 -0.6981,0.4712 0.6982,1.528 0,1.9993 -0.6981,0.4712 -2.0788,-0.2981 -2.9618,0 -12.3266,4.1602 3.1663,-0.1381 -2.9619,3.9985 -0.6981,0.4713 -2.2637,-0.4712 -2.9618,0 -0.6982,0.4713 0.6981,1.5281 0,1.9993 -6.1283,4.1366 0.2395,-6.3213 -5.9237,1.9994 -0.4416,0.596 0.698,1.528 0,1.9992 -1.9418,1.3107 -10.3636,0.9977 -11.8475,1.9993 -1.4809,0.9997 -1.4809,2.999 -2.9619,3.9986 -1.3962,0.9425 -4.1576,-0.5961 -5.9237,0 -1.2488,0.4215 -1.7131,1.5778 -2.9619,1.9993 -1.7661,0.596 -4.5275,-0.9425 -5.9237,0 -0.6981,0.4712 0.6981,1.528 0,1.9993 -2.1027,1.4193 -26.4035,4.1695 -29.6186,1.9992 -0.6981,-0.4712 0.6981,-1.528 0,-1.9992 -1.3962,-0.9425 -4.5275,0.9424 -5.9237,0 -0.6981,-0.4713 0.4415,-1.4033 0,-1.9993 -6.1633,-8.3206 0.2044,2.1373 -5.9237,-1.9993 -0.6981,-0.4712 0.4415,-1.4032 0,-1.9993 -2.1382,-2.8866 -3.7856,-5.1106 -5.9238,-7.9972 -0.7211,-0.9736 -0.2765,-21.6188 0,-21.9922 0.6244,-0.843 2.3375,-1.1563 2.9619,-1.9993 0.883,-1.1921 -1.3962,-3.0561 0,-3.9985 0.6981,-0.4712 2.2638,0.4712 2.9619,0 1.3962,-0.9425 -1.3963,-3.0561 0,-3.9987 1.4809,-0.9996 4.4428,-0.9996 5.9237,-1.9992 0.6981,-0.4713 -0.6981,-1.5281 0,-1.9993 0.9872,-0.6665 7.8983,-1.3329 8.8856,-1.9993 0.6981,-0.4712 -0.6982,-1.5281 0,-1.9993 1.5787,-1.0657 13.2305,-2.9329 14.8092,-3.9986 0.6982,-0.4712 -0.698,-1.528 0,-1.9992 0.6982,-0.4713 2.0789,0.298 2.9619,0 1.2489,-0.4216 1.7131,-1.5779 2.9619,-1.9994 1.7661,-0.596 4.5275,0.9425 5.9237,0 0.6981,-0.4712 -0.6981,-1.528 0,-1.9993 0.6981,-0.4712 2.0788,0.2981 2.9619,0 1.2488,-0.4214 1.713,-1.5777 2.9618,-1.9993 1.7661,-0.596 4.5275,0.9425 5.9238,0 1.4809,-0.9996 1.4809,-2.9989 2.9618,-3.9985 1.3963,-0.9425 4.1577,0.596 5.9238,0 3.4502,-1.1645 5.4354,-2.8342 8.8856,-3.9986 1.7882,-0.6036 7.5164,0.9242 8.8855,0 0.6981,-0.4712 -0.6981,-1.5281 0,-1.9993 1.3963,-0.9425 4.5275,0.9425 5.9237,0 0.6982,-0.4713 -0.6981,-1.528 0,-1.9993 0.9873,-0.6664 7.8984,-1.3329 8.8856,-1.9993 0.6981,-0.4712 -0.9872,-1.9993 0,-1.9993 0.9873,0 0.9873,1.9993 0,1.9993 -1.239,0 -5.9164,-4.0035 -8.8856,-1.9993 -0.6981,0.4712 0.6982,1.5281 0,1.9993 -1.7884,1.2072 -16.6591,1.2487 -17.7711,1.9993 -0.6981,0.4713 0.6981,1.528 0,1.9993 -1.4809,0.9997 -7.4047,-0.9996 -8.8856,0 -0.6981,0.4712 0.6981,1.5281 0,1.9993 -1.154,0.779 -10.04,0 -11.8475,0 -21.5739,0 -44.3776,1.5079 -65.1609,-1.9993 -1.9156,-0.3233 -4.1576,0.5961 -5.9238,0 -1.2487,-0.4215 -1.713,-1.5778 -2.9618,-1.9993 -7.631,-2.5755 -34.979,2.1261 -44.4279,0 -9.6058,-2.1613 -17.051,-3.8365 -26.6568,-5.9979 -1.6751,-0.3769 -7.6959,0.803 -8.8856,0 -0.6981,-0.4712 0.6981,-1.528 0,-1.9993 -0.6981,-0.4712 -2.0252,0.2108 -2.9618,0 -2.0944,-0.4712 -3.759,-1.707 -5.9238,-1.9992 -2.9043,-0.3921 -6.0756,0.6322 -8.8855,0 -0.9367,-0.2108 0.6981,-1.5281 0,-1.9993 -1.484,-1.0017 -9.9058,-0.6886 -11.8475,-1.9993 -0.6981,-0.4712 0.4415,-1.4032 0,-1.9994 -1.2488,-1.6859 -4.2483,-2.4906 -5.9237,-3.9985 -2.9619,-2.6657 -6.678,-5.0168 -8.8856,-7.9972 -0.4415,-0.5961 0.6981,-1.528 0,-1.9992 -0.6981,-0.4713 -2.5204,0.596 -2.9619,0 -1.3092,-1.7676 -5.5207,-22.5363 -2.9618,-25.9909 2.8004,-3.7806 10.516,-2.5495 14.8093,-3.9985 1.2488,-0.4215 1.713,-1.5778 2.9619,-1.9993 4.5942,-1.5506 50.7275,0 59.2372,0 10.3182,0 74.0575,-1.9956 79.9703,0 4.8366,1.6324 9.0775,2.7089 14.8093,3.9986 1.8732,0.4214 4.1575,-0.5961 5.9237,0 1.2488,0.4214 1.713,1.5778 2.9618,1.9992 0.579,0.1954 36.5308,3.3314 38.5043,1.9993 3.9491,-2.6657 -4.9365,-1.9993 2.9618,-1.9993 7.7444,0 8.3587,0.1779 14.8093,-1.9992 1.7662,-0.5961 7.8984,0 5.9237,0 -19.0043,0 6.7814,0.8594 -5.9237,-1.9993 -9.5152,-2.141 -23.7078,2.9946 -32.5805,0 -1.2488,-0.4215 -1.6372,-1.7013 -2.9618,-1.9993 -8.8723,-1.9963 -27.8834,2.5849 -35.5423,0 -0.8831,-0.298 0.883,-1.7013 0,-1.9993 -3.1594,-1.0663 -8.6882,1.0662 -11.8475,0 -12.3266,-4.1603 3.1663,0.138 -2.9619,-3.9986 -0.6802,-0.4592 -11.7179,-3.9112 -11.8474,-3.9986 -1.2412,-0.8378 -2.0644,-4.7862 -2.9619,-5.9978 -0.6244,-0.843 -2.5203,-1.1052 -2.9619,-1.9993 -0.9365,-1.8967 2.0944,-4.5842 0,-5.9979 -0.698,-0.4713 -2.2637,0.4712 -2.9618,0 -2.7801,-1.8766 2.2378,-5.0205 2.9618,-5.9979 0.4416,-0.5961 -0.698,-1.5281 0,-1.9993 0.6981,-0.4712 2.2638,0.4712 2.9619,0 0.6981,-0.4712 -0.6981,-1.528 0,-1.9993 4.2723,-2.8838 21.0359,1.8971 26.6568,0 1.2488,-0.4215 1.713,-1.5778 2.9619,-1.9993 2.466,-0.8322 9.9687,1.2682 11.8474,0 0.6981,-0.4712 -0.6981,-1.5281 0,-1.9993 2.0944,-1.4137 5.9237,0 8.8855,0 7.865,0 24.8959,-4.5929 32.5806,-1.9993 3.4502,1.1645 5.4354,2.8342 8.8856,3.9986 0.883,0.2981 2.9618,-0.6664 2.9618,0 0,0.064 -26.2989,-0.081 -26.6568,0 -2.0943,0.4713 -3.8294,1.5281 -5.9237,1.9993 -3.6916,0.8307 -41.0849,1.1283 -44.4279,0 -4.4174,-1.4908 -7.3293,-4.4729 -11.8475,-5.9979 -1.7661,-0.596 -4.5274,0.9425 -5.9237,0 -1.3962,-0.9424 0.6244,-2.7341 0,-3.9985 -7.1513,-14.4817 0.8539,3.152 -5.9237,-5.9979 -2.7925,-3.7699 -4.4093,-7.9067 -5.9238,-11.9958 -0.331,-0.8939 -0.8421,-7.4287 0,-7.9972 2.0944,-1.4136 6.0758,0.6323 8.8856,0 3.068,-0.6903 5.9473,-3.0068 8.8856,-3.9985 3.3739,-1.1387 28.5258,-1.087 32.5805,-1.9993 12.7853,-2.8768 24.6483,-3.9986 38.5042,-3.9986 2.808,0 9.3877,-0.8302 11.8475,0 7.32,2.4705 -1.0224,1.9993 5.9237,1.9993 2.9619,0 8.8856,-1.9993 8.8856,0 0,0.3439 -24.8624,-0.4037 -26.6568,0 -2.0943,0.4712 -3.7819,1.6379 -5.9237,1.9993 -1.9156,0.3233 -4.0505,-0.4215 -5.9237,0 -1.3246,0.298 -1.6373,1.7012 -2.9619,1.9993 -3.0541,0.6872 -44.0724,1.1196 -47.3898,0 -12.3265,-4.1603 3.1664,0.138 -2.9618,-3.9986 -1.1072,-0.7474 -6.4843,-1.5672 -8.8856,-3.9986 -4.4153,-4.4705 -8.2877,-9.1894 -11.8475,-13.995 -0.883,-1.1922 1.3963,-3.0561 0,-3.9986 -0.6981,-0.4713 -2.2637,0.4712 -2.9619,0 -1.3962,-0.9425 0,-5.3315 0,-3.9986 0,11.0039 -1.561,-2.9449 0,-3.9986 0.6982,-0.4712 2.2638,0.4712 2.9619,0 1.9889,-1.3425 -1.9888,-2.6561 0,-3.9985 1.4809,-0.9997 4.4428,-0.9997 5.9237,-1.9993 0.6981,-0.4713 -0.698,-1.5281 0,-1.9993 0.6981,-0.4712 2.2638,0.4712 2.9619,0 0.6981,-0.4712 -0.6981,-1.5281 0,-1.9994 1.9746,-1.3328 9.8729,1.3329 11.8475,0 0.6981,-0.4712 -0.6981,-1.528 0,-1.9992 1.3691,-0.9242 7.0972,0.6036 8.8856,0 4.2763,-1.4433 7.5711,-2.5554 11.8474,-3.9986 1.7883,-0.6036 7.5165,0.9242 8.8856,0 0.6981,-0.4712 -0.6981,-1.5281 0,-1.9993 1.3962,-0.9425 3.9491,0 5.9237,0 5.7363,0 18.6753,-1.6941 23.6949,0 1.2488,0.4215 1.6373,1.7013 2.9619,1.9993 2.8536,0.6421 15.5647,-1.4894 17.7712,0 0.698,0.4712 -0.6982,1.5281 0,1.9993 2.4681,1.6661 12.3411,-1.6661 14.8092,0 0.6982,0.4712 -0.6981,1.528 0,1.9993 3.3746,2.2779 44.0152,-2.2779 47.3899,0 0.698,0.4712 -0.4416,1.4032 0,1.9992 2.1509,2.904 4.5581,4.3101 5.9237,7.9972 3.1209,8.4268 5.6564,-3.5025 11.5916,4.51 6.1632,8.3206 1.0283,1.4429 7.1565,5.5795 -7.1565,-5.5795 -15.8439,-22.5533 7.1565,4.8044 l 7.5876,9.0251 c 2.1659,2.5762 -41.835,-37.6352 -41.835,-37.6352 0.037,4.0484 57.7071,52.3692 61.6563,53.702 1.2488,0.4216 1.713,1.5779 2.9618,1.9994 5.1117,1.7252 27.9012,0 35.5423,0 l 23.695,0"
       id="path4528-8"
       inkscape:connector-curvature="0"
       sodipodi:nodetypes="ccccccccccsccccsccccscscccccssccccccsccsccccccccccccccccccccccsccccccssccccccssccsscccsccsccsccsccsscccsscssccccsccscccccccccccsscsccsscscccssssssscccsscssccscccccccccsscssccccccccsscssscssc" />
    <text
       xml:space="preserve"
       style="font-style:normal;font-weight:normal;font-size:40px;line-height:125%;font-family:sans-serif;letter-spacing:0px;word-spacing:0px;fill:#000000;fill-opacity:1;stroke:none;stroke-width:1px;stroke-linecap:butt;stroke-linejoin:miter;stroke-opacity:1"
       x="3008.9973"
       y="1931.0238"
       id="text4987"
       sodipodi:linespacing="125%"><tspan
         sodipodi:role="line"
         id="tspan4989"
         x="3008.9973"
         y="1931.0238">1</tspan></text>
    <text
       xml:space="preserve"
       style="font-style:normal;font-weight:normal;font-size:40px;line-height:125%;font-family:sans-serif;letter-spacing:0px;word-spacing:0px;fill:#000000;fill-opacity:1;stroke:none;stroke-width:1px;stroke-linecap:butt;stroke-linejoin:miter;stroke-opacity:1"
       x="3044.3525"
       y="2085.7036"
       id="text4991"
       sodipodi:linespacing="125%"><tspan
         sodipodi:role="line"
         id="tspan4993"
         x="3044.3525"
         y="2085.7036">2</tspan></text>
    <text
       xml:space="preserve"
       style="font-style:normal;font-weight:normal;font-size:40px;line-height:125%;font-family:sans-serif;letter-spacing:0px;word-spacing:0px;fill:#000000;fill-opacity:1;stroke:none;stroke-width:1px;stroke-linecap:butt;stroke-linejoin:miter;stroke-opacity:1"
       x="3026.6748"
       y="2222.7056"
       id="text4995"
       sodipodi:linespacing="125%"><tspan
         sodipodi:role="line"
         id="tspan4997"
         x="3026.6748"
         y="2222.7056">3</tspan></text>
    <text
       xml:space="preserve"
       style="font-style:normal;font-weight:normal;font-size:40px;line-height:125%;font-family:sans-serif;letter-spacing:0px;word-spacing:0px;fill:#000000;fill-opacity:1;stroke:none;stroke-width:1px;stroke-linecap:butt;stroke-linejoin:miter;stroke-opacity:1"
       x="3040.3525"
       y="2368.5464"
       id="text4999"
       sodipodi:linespacing="125%"><tspan
         sodipodi:role="line"
         id="tspan5001"
         x="3040.3525"
         y="2368.5464">4</tspan></text>
    <text
       xml:space="preserve"
       style="font-style:normal;font-weight:normal;font-size:40px;line-height:125%;font-family:sans-serif;letter-spacing:0px;word-spacing:0px;fill:#000000;fill-opacity:1;stroke:none;stroke-width:1px;stroke-linecap:butt;stroke-linejoin:miter;stroke-opacity:1"
       x="3092.9663"
       y="2563.0007"
       id="text5003"
       sodipodi:linespacing="125%"><tspan
         sodipodi:role="line"
         id="tspan5005"
         x="3092.9663"
         y="2563.0007">5</tspan></text>
    <rect
       style="opacity:0.76999996;fill:#000000;fill-opacity:1;stroke:#1d0017;stroke-width:9.05438232;stroke-miterlimit:4;stroke-dasharray:none;stroke-opacity:0.92307691"
       id="rect4541-5-0"
       width="13.523288"
       height="2288.1855"
       x="3147.1653"
       y="-2651.6152"
       transform="matrix(0,1,-1,0,0,0)" />
    <rect
       style="opacity:0.76999996;fill:#000000;fill-opacity:1;stroke:#1d0017;stroke-width:4.47606182;stroke-miterlimit:4;stroke-dasharray:none;stroke-opacity:0.92307691"
       id="rect4541-5-2"
       width="18.101608"
       height="417.76385"
       x="2657.8835"
       y="2745.3257" />
    <rect
       style="opacity:0.76999996;fill:#000000;fill-opacity:1;stroke:#1d0017;stroke-width:8.41559124;stroke-miterlimit:4;stroke-dasharray:none;stroke-opacity:0.92307691"
       id="rect4541-5-5"
       width="14.16208"
       height="1887.5481"
       x="362.97668"
       y="1250.9633" />
    <path
       style="opacity:0.81720001;fill:#000000;fill-opacity:1;stroke:#1d0017;stroke-width:4.9000001;stroke-miterlimit:4;stroke-dasharray:none;stroke-opacity:0.92307691"
       d="m 461.39352,1244.2694 0,-10.1231 c -2.4574,-3.9841 -4.7829,-8.0572 -6.916,-12.2578 -0.3012,-0.5931 -0.526,-1.0732 -0.7969,-1.6211 -2.0811,-3.2465 -3.9668,-6.6059 -5.6035,-10.0937 -1.9299,-4.1128 -3.0477,-8.5583 -4.5723,-12.8379 -0.075,-0.2359 -0.3343,-1.0453 -0.4297,-1.3438 -2.7043,-5.0582 -4.9844,-9.5206 -6.9511,-13.5937 -3.9687,-2.3235 -7.3824,-4.9998 -8.9766,-10.2813 -2.9066,-7.293 3.8609,9.5008 -3.3633,-6.7988 -0.7725,-1.743 -1.2286,-3.6128 -1.9512,-5.377 -2.2112,-5.3993 -4.5965,-10.7325 -6.8945,-16.1015 -5.9399,-6.8515 -11.7453,-13.8223 -17.1347,-21.1074 -9.7007,-13.1129 -17.7429,-27.2248 -25.5547,-41.4707 -1.5757,2.8857 -3.5013,5.5483 -5.7442,7.9843 -6.9122,14.12 -15.058,27.6419 -22.5234,41.4727 -1.1441,2.1195 -2.2375,4.1796 -3.3281,6.2344 -0.3375,0.8683 -0.6679,1.7394 -1.0313,2.5976 -7.2694,17.1698 -12.2922,25.8316 -20.8555,41.7832 -0.2508,0.7091 -0.4905,1.4223 -0.7597,2.125 -6.2599,16.3382 -15.2884,31.4612 -23.3692,46.9121 -0.4677,0.8943 -0.9154,1.7988 -1.375,2.6973 -0.9535,2.2556 -1.6459,3.7955 -2.1816,4.8105 l 0,6.3907 170.3125,0 z"
       id="rect4646-3-7"
       inkscape:connector-curvature="0" />
    <rect
       style="opacity:0.76999996;fill:#000000;fill-opacity:1;stroke:#1d0017;stroke-width:2.65226007;stroke-miterlimit:4;stroke-dasharray:none;stroke-opacity:0.92307691"
       id="rect4541-5-1"
       width="121.572"
       height="21.840092"
       x="758.39014"
       y="483.79309" />
    <path
       style="opacity:0.81720001;fill:#000000;fill-opacity:1;stroke:#1d0017;stroke-width:4.55769682;stroke-miterlimit:4;stroke-dasharray:none;stroke-opacity:0.92307691"
       d="m 872.22626,560.97419 10.68546,0 c 4.20528,-2.01428 8.50473,-3.92027 12.93853,-5.66866 0.62614,-0.24691 1.13291,-0.43117 1.71124,-0.65319 3.42672,-1.7058 6.97287,-3.2514 10.65427,-4.59281 4.3413,-1.58182 9.0336,-2.49807 13.5509,-3.74769 0.2491,-0.0613 1.1034,-0.27404 1.4186,-0.35213 5.339,-2.2166 10.0494,-4.08543 14.3486,-5.69745 2.4526,-3.25294 5.2775,-6.05089 10.8524,-7.35761 7.698,-2.38234 -10.0286,3.16459 7.1764,-2.75665 1.8398,-0.63313 3.8134,-1.00697 5.6756,-1.59928 5.6992,-1.81244 11.3286,-3.76751 16.9958,-5.65097 7.2321,-4.86862 14.59,-9.62693 22.27984,-14.04433 13.8412,-7.95109 28.7369,-14.54273 43.774,-20.94563 -3.0459,-1.2915 -5.8564,-2.86978 -8.4277,-4.70818 -14.9043,-5.66548 -29.1771,-12.34218 -43.77624,-18.46101 -2.2371,-0.93784 -4.4117,-1.83403 -6.5806,-2.72787 -0.9166,-0.27663 -1.836,-0.54748 -2.7419,-0.84535 -18.1235,-5.95828 -27.2664,-10.07509 -44.104,-17.09401 -0.7484,-0.2055 -1.5013,-0.40203 -2.243,-0.62263 -17.2457,-5.13086 -33.2087,-12.53093 -49.51775,-19.1543 -0.94397,-0.38339 -1.89861,-0.75027 -2.84711,-1.12706 -2.38089,-0.78153 -4.00631,-1.34907 -5.07768,-1.78814 l -6.74566,0 0,139.59495 z"
       id="rect4646-3-3"
       inkscape:connector-curvature="0" />
    <rect
       style="opacity:0.81720001;fill:#ffffff;fill-opacity:1;stroke:#1d0017;stroke-width:4.00083447;stroke-miterlimit:4;stroke-dasharray:none;stroke-opacity:0.92307691"
       id="rect5168-8-4"
       width="528.89917"
       height="88.899155"
       x="115.76342"
       y="632.36841" />
    <text
       xml:space="preserve"
       style="font-style:normal;font-weight:normal;font-size:47.87596893px;line-height:125%;font-family:sans-serif;letter-spacing:0px;word-spacing:0px;fill:#000000;fill-opacity:1;stroke:none;stroke-width:1px;stroke-linecap:butt;stroke-linejoin:miter;stroke-opacity:1"
       x="355.27866"
       y="621.08563"
       id="text5170-1-5"
       sodipodi:linespacing="125%"
       transform="scale(0.90001111,1.1110974)"><tspan
         sodipodi:role="line"
         id="tspan5172-7-3"
         x="355.27866"
         y="621.08563"
         style="font-style:normal;font-variant:normal;font-weight:bold;font-stretch:normal;font-family:sans-serif;-inkscape-font-specification:'sans-serif Bold'">Login</tspan></text>
    <rect
       style="opacity:0.81720001;fill:#ffffff;fill-opacity:1;stroke:#1d0017;stroke-width:4.00083447;stroke-miterlimit:4;stroke-dasharray:none;stroke-opacity:0.92307691"
       id="rect5168-8-7"
       width="528.89917"
       height="88.899155"
       x="1163.7634"
       y="628.36841" />
    <text
       xml:space="preserve"
       style="font-style:normal;font-weight:normal;font-size:47.87596893px;line-height:125%;font-family:sans-serif;letter-spacing:0px;word-spacing:0px;fill:#000000;fill-opacity:1;stroke:none;stroke-width:1px;stroke-linecap:butt;stroke-linejoin:miter;stroke-opacity:1"
       x="1519.7086"
       y="617.4856"
       id="text5170-1-2"
       sodipodi:linespacing="125%"
       transform="scale(0.90001111,1.1110974)"><tspan
         sodipodi:role="line"
         id="tspan5172-7-5"
         x="1519.7086"
         y="617.4856"
         style="font-style:normal;font-variant:normal;font-weight:bold;font-stretch:normal;font-family:sans-serif;-inkscape-font-specification:'sans-serif Bold'">Login</tspan></text>
  </g>
</svg>
