<?xml version="1.0" encoding="UTF-8" standalone="no"?>
<!-- Created with Inkscape (http://www.inkscape.org/) -->

<svg
   xmlns:dc="http://purl.org/dc/elements/1.1/"
   xmlns:cc="http://creativecommons.org/ns#"
   xmlns:rdf="http://www.w3.org/1999/02/22-rdf-syntax-ns#"
   xmlns:svg="http://www.w3.org/2000/svg"
   xmlns="http://www.w3.org/2000/svg"
   xmlns:sodipodi="http://sodipodi.sourceforge.net/DTD/sodipodi-0.dtd"
   xmlns:inkscape="http://www.inkscape.org/namespaces/inkscape"
   width="210mm"
   height="297mm"
   viewBox="0 0 744.09448819 1052.3622047"
   id="svg16669"
   version="1.1"
   inkscape:version="0.91 r13725"
   sodipodi:docname="Login.svg">
  <defs
     id="defs16671" />
  <sodipodi:namedview
     id="base"
     pagecolor="#ffffff"
     bordercolor="#666666"
     borderopacity="1.0"
     inkscape:pageopacity="0.0"
     inkscape:pageshadow="2"
     inkscape:zoom="0.12374369"
     inkscape:cx="2103.042"
     inkscape:cy="865.86807"
     inkscape:document-units="px"
     inkscape:current-layer="layer1"
     showgrid="false"
     inkscape:window-width="1280"
     inkscape:window-height="690"
     inkscape:window-x="0"
     inkscape:window-y="0"
     inkscape:window-maximized="1" />
  <metadata
     id="metadata16674">
    <rdf:RDF>
      <cc:Work
         rdf:about="">
        <dc:format>image/svg+xml</dc:format>
        <dc:type
           rdf:resource="http://purl.org/dc/dcmitype/StillImage" />
        <dc:title></dc:title>
      </cc:Work>
    </rdf:RDF>
  </metadata>
  <g
     inkscape:label="Layer 1"
     inkscape:groupmode="layer"
     id="layer1">
    <rect
       style="opacity:0.76999996;fill:#ffffff;fill-opacity:1;stroke:#1d0017;stroke-width:4.9000001;stroke-miterlimit:4;stroke-dasharray:none;stroke-opacity:0.92307691"
       id="rect4272-1-0"
       width="753.125"
       height="1065.625"
       x="4.5658216"
       y="1.9849683" />
    <text
       xml:space="preserve"
       style="font-style:normal;font-weight:normal;font-size:92.07600403px;line-height:125%;font-family:sans-serif;letter-spacing:0px;word-spacing:0px;fill:#000000;fill-opacity:1;stroke:none;stroke-width:1px;stroke-linecap:butt;stroke-linejoin:miter;stroke-opacity:1"
       x="146.78946"
       y="197.23476"
       id="text4136-2-8"
       sodipodi:linespacing="125%"
       transform="scale(0.94104423,1.0626493)"><tspan
         sodipodi:role="line"
         id="tspan4138-6-4"
         x="146.78946"
         y="197.23476"
         style="font-style:normal;font-variant:normal;font-weight:bold;font-stretch:normal;font-family:sans-serif;-inkscape-font-specification:'sans-serif Bold';letter-spacing:0px"
         dy="0 0 0 0 0 0 0 0 -1.7300086">Tradio GC</tspan></text>
    <rect
       style="opacity:0.76999996;fill:#ffffff;fill-opacity:1;stroke:#1d0017;stroke-width:6.37090206;stroke-miterlimit:4;stroke-dasharray:none;stroke-opacity:0.92307691"
       id="rect4140-9-7-5"
       width="536.8327"
       height="91.564796"
       x="113.73879"
       y="360.75626" />
    <rect
       style="opacity:0.76999996;fill:#ffffff;fill-opacity:1;stroke:#1d0017;stroke-width:6.37090206;stroke-miterlimit:4;stroke-dasharray:none;stroke-opacity:0.92307691"
       id="rect4140-3-3-4-0"
       width="536.8327"
       height="91.564796"
       x="115.21194"
       y="498.16702" />
    <text
       xml:space="preserve"
       style="font-style:normal;font-weight:normal;font-size:41.33838654px;line-height:125%;font-family:sans-serif;letter-spacing:0px;word-spacing:0px;fill:#000000;fill-opacity:1;stroke:none;stroke-width:1px;stroke-linecap:butt;stroke-linejoin:miter;stroke-opacity:1"
       x="180.44966"
       y="575.06793"
       id="text4163-1-1-9"
       sodipodi:linespacing="125%"
       transform="scale(1.0334596,0.96762369)"><tspan
         sodipodi:role="line"
         id="tspan4165-4-7-0"
         x="180.44966"
         y="575.06793"
         style="font-style:italic;font-variant:normal;font-weight:normal;font-stretch:normal;font-family:sans-serif;-inkscape-font-specification:'sans-serif Italic'">ENTER PASSWORD</tspan></text>
    <rect
       style="opacity:0.76999996;fill:#ffffff;fill-opacity:1;stroke:#1d0017;stroke-width:4.9000001;stroke-miterlimit:4;stroke-dasharray:none;stroke-opacity:0.92307691"
       id="rect4179-8-4-2"
       width="546.875"
       height="96.875"
       x="118.00332"
       y="822.07428" />
    <text
       xml:space="preserve"
       style="font-style:normal;font-weight:normal;font-size:40px;line-height:125%;font-family:sans-serif;letter-spacing:0px;word-spacing:0px;fill:#000000;fill-opacity:1;stroke:none;stroke-width:1px;stroke-linecap:butt;stroke-linejoin:miter;stroke-opacity:1"
       x="205.50333"
       y="418.94937"
       id="text4159-2-9-1"
       sodipodi:linespacing="125%"><tspan
         sodipodi:role="line"
         id="tspan4161-0-4-7"
         x="205.50333"
         y="418.94937"
         style="font-style:italic;font-variant:normal;font-weight:normal;font-stretch:normal;font-family:sans-serif;-inkscape-font-specification:'sans-serif Italic'">ENTER USERNAME</tspan></text>
    <text
       xml:space="preserve"
       style="font-style:normal;font-weight:normal;font-size:50.41472244px;line-height:125%;font-family:sans-serif;letter-spacing:0px;word-spacing:0px;fill:#000000;fill-opacity:1;stroke:none;stroke-width:1px;stroke-linecap:butt;stroke-linejoin:miter;stroke-opacity:1"
       x="258.23474"
       y="793.97864"
       id="text4181-3-6-7"
       sodipodi:linespacing="125%"
       transform="scale(0.89153607,1.1216596)"><tspan
         sodipodi:role="line"
         id="tspan4183-7-9-2"
         x="258.23474"
         y="793.97864">Create Account</tspan></text>
    <rect
       style="opacity:0.81720001;fill:#ffffff;fill-opacity:1;stroke:#1d0017;stroke-width:4.00083447;stroke-miterlimit:4;stroke-dasharray:none;stroke-opacity:0.92307691"
       id="rect5168-8"
       width="528.89917"
       height="88.899155"
       x="120.67873"
       y="624.34796" />
    <text
       xml:space="preserve"
       style="font-style:normal;font-variant:normal;font-weight:bold;font-stretch:normal;font-size:47.87596893px;line-height:125%;font-family:sans-serif;-inkscape-font-specification:'sans-serif Bold';letter-spacing:0px;word-spacing:0px;fill:#000000;fill-opacity:1;stroke:none;stroke-width:1px;stroke-linecap:butt;stroke-linejoin:miter;stroke-opacity:1"
       x="360.74002"
       y="613.86707"
       id="text5170-1"
       sodipodi:linespacing="125%"
       transform="scale(0.90001111,1.1110974)"><tspan
         sodipodi:role="line"
         id="tspan5172-7"
         x="360.74002"
         y="613.86707">Login</tspan></text>
    <rect
       transform="matrix(0.0034139,-0.99999417,0.99999417,0.0034139,0,0)"
       y="753.51794"
       x="-484.21515"
       height="417.76385"
       width="18.101608"
       id="rect4541-5-6"
       style="opacity:0.76999996;fill:#000000;fill-opacity:1;stroke:#1d0017;stroke-width:4.47606182;stroke-miterlimit:4;stroke-dasharray:none;stroke-opacity:0.92307691" />
    <path
       inkscape:connector-curvature="0"
       id="rect4646-3-9"
       d="m 1174.8748,564.16443 10.123,0.035 c 3.9925,-2.4437 8.0735,-4.7553 12.2813,-6.8741 0.5942,-0.2991 1.075,-0.5223 1.6238,-0.7913 3.2536,-2.07 6.6194,-3.9443 10.1128,-5.569 4.1194,-1.9159 8.5687,-3.0185 12.8534,-4.5285 0.2362,-0.074 1.0465,-0.3307 1.3453,-0.4251 5.0674,-2.687 9.5376,-4.9519 13.6174,-6.9047 2.337,-3.9607 5.0249,-7.3652 10.3118,-8.9414 7.3029,-2.8817 -9.5139,3.8284 6.8103,-3.3401 1.7456,-0.7665 3.617,-1.2162 5.3836,-1.9328 5.4068,-2.1928 10.7481,-4.5598 16.125,-6.8395 6.8717,-5.9165 13.8623,-11.698 21.1657,-17.0625 13.146,-9.6559 27.2852,-17.6499 41.5577,-25.413 -2.8803,-1.5856 -5.5363,-3.5202 -7.9646,-5.7714 -14.0963,-6.9604 -27.5903,-15.1523 -41.3956,-22.6649 -2.1156,-1.1513 -4.1719,-2.2517 -6.223,-3.3493 -0.8671,-0.3405 -1.7371,-0.6739 -2.594,-1.0402 -17.1449,-7.328 -25.7895,-12.3803 -41.7118,-20.998 -0.7082,-0.2533 -1.4206,-0.4954 -2.1224,-0.767 -16.3167,-6.3156 -31.4088,-15.3957 -46.832,-23.5292 -0.8927,-0.4708 -1.7957,-0.9215 -2.6926,-1.3842 -2.2524,-0.9612 -3.7899,-1.6588 -4.8031,-2.198 l -6.3906,-0.022 -0.5814,170.3115 z"
       style="opacity:0.81720001;fill:#000000;fill-opacity:1;stroke:#1d0017;stroke-width:4.9000001;stroke-miterlimit:4;stroke-dasharray:none;stroke-opacity:0.92307691" />
    <rect
       style="opacity:0.76999996;fill:#ffffff;fill-opacity:1;stroke:#1d0017;stroke-width:4.9000001;stroke-miterlimit:4;stroke-dasharray:none;stroke-opacity:0.92307691"
       id="rect4272-1-0-6"
       width="753.125"
       height="1065.625"
       x="1345.8965"
       y="5.5655956" />
    <text
       xml:space="preserve"
       style="font-style:normal;font-weight:normal;font-size:92.07600403px;line-height:125%;font-family:sans-serif;letter-spacing:0px;word-spacing:0px;fill:#000000;fill-opacity:1;stroke:none;stroke-width:1px;stroke-linecap:butt;stroke-linejoin:miter;stroke-opacity:1"
       x="1585.4366"
       y="206.48573"
       id="text4136-2-8-4"
       sodipodi:linespacing="125%"
       transform="scale(0.94104424,1.0626493)"><tspan
         sodipodi:role="line"
         id="tspan4138-6-4-6"
         x="1585.4366"
         y="206.48573"
         style="font-style:normal;font-variant:normal;font-weight:bold;font-stretch:normal;font-family:sans-serif;-inkscape-font-specification:'sans-serif Bold';letter-spacing:0px"
         dy="0 0 0 0 0 0 0 0 -1.7300086">Tradio GC</tspan></text>
    <rect
       style="opacity:0.76999996;fill:#ffffff;fill-opacity:1;stroke:#1d0017;stroke-width:6.37090206;stroke-miterlimit:4;stroke-dasharray:none;stroke-opacity:0.92307691"
       id="rect4140-9-7-5-5"
       width="536.8327"
       height="91.564796"
       x="1455.0695"
       y="364.33707" />
    <rect
       style="opacity:0.76999996;fill:#ffffff;fill-opacity:1;stroke:#1d0017;stroke-width:6.37090206;stroke-miterlimit:4;stroke-dasharray:none;stroke-opacity:0.92307691"
       id="rect4140-3-3-4-0-8"
       width="536.8327"
       height="91.564796"
       x="1456.5426"
       y="501.74771" />
    <text
       xml:space="preserve"
       style="font-style:normal;font-weight:normal;font-size:41.33838654px;line-height:125%;font-family:sans-serif;letter-spacing:0px;word-spacing:0px;fill:#000000;fill-opacity:1;stroke:none;stroke-width:1px;stroke-linecap:butt;stroke-linejoin:miter;stroke-opacity:1"
       x="1611.0903"
       y="580.22992"
       id="text4163-1-1-9-1"
       sodipodi:linespacing="125%"
       transform="scale(1.0334596,0.96762369)"><tspan
         sodipodi:role="line"
         id="tspan4165-4-7-0-2"
         x="1611.0903"
         y="580.22992"
         style="font-style:italic;font-variant:normal;font-weight:normal;font-stretch:normal;font-family:sans-serif;-inkscape-font-specification:'sans-serif Italic'">1234</tspan></text>
    <rect
       style="opacity:0.76999996;fill:#ffffff;fill-opacity:1;stroke:#1d0017;stroke-width:4.9000001;stroke-miterlimit:4;stroke-dasharray:none;stroke-opacity:0.92307691"
       id="rect4179-8-4-2-7"
       width="546.875"
       height="96.875"
       x="1459.334"
       y="825.65509" />
    <text
       xml:space="preserve"
       style="font-style:normal;font-weight:normal;font-size:40px;line-height:125%;font-family:sans-serif;letter-spacing:0px;word-spacing:0px;fill:#000000;fill-opacity:1;stroke:none;stroke-width:1px;stroke-linecap:butt;stroke-linejoin:miter;stroke-opacity:1"
       x="1611.8878"
       y="421.116"
       id="text4159-2-9-1-3"
       sodipodi:linespacing="125%"><tspan
         sodipodi:role="line"
         id="tspan4161-0-4-7-5"
         x="1611.8878"
         y="421.116"
         style="font-style:italic;font-variant:normal;font-weight:normal;font-stretch:normal;font-family:sans-serif;-inkscape-font-specification:'sans-serif Italic'">John Smith</tspan></text>
    <text
       xml:space="preserve"
       style="font-style:normal;font-weight:normal;font-size:50.41472244px;line-height:125%;font-family:sans-serif;letter-spacing:0px;word-spacing:0px;fill:#000000;fill-opacity:1;stroke:none;stroke-width:1px;stroke-linecap:butt;stroke-linejoin:miter;stroke-opacity:1"
       x="1762.7511"
       y="797.1709"
       id="text4181-3-6-7-2"
       sodipodi:linespacing="125%"
       transform="scale(0.89153607,1.1216596)"><tspan
         sodipodi:role="line"
         id="tspan4183-7-9-2-3"
         x="1762.7511"
         y="797.1709">Create Account</tspan></text>
    <rect
       style="opacity:0.81720001;fill:#ffffff;fill-opacity:1;stroke:#1d0017;stroke-width:4.00083447;stroke-miterlimit:4;stroke-dasharray:none;stroke-opacity:0.92307691"
       id="rect5168-8-0"
       width="528.89917"
       height="88.899155"
       x="1462.0094"
       y="627.92865" />
    <text
       xml:space="preserve"
       style="font-style:normal;font-weight:normal;font-size:47.87596893px;line-height:125%;font-family:sans-serif;letter-spacing:0px;word-spacing:0px;fill:#000000;fill-opacity:1;stroke:none;stroke-width:1px;stroke-linecap:butt;stroke-linejoin:miter;stroke-opacity:1"
       x="1851.089"
       y="617.0896"
       id="text5170-1-9"
       sodipodi:linespacing="125%"
       transform="scale(0.90001111,1.1110974)"><tspan
         sodipodi:role="line"
         id="tspan5172-7-37"
         x="1851.089"
         y="617.0896"
         style="font-style:normal;font-variant:normal;font-weight:bold;font-stretch:normal;font-family:sans-serif;-inkscape-font-specification:'sans-serif Bold'">Login</tspan></text>
    <rect
       style="opacity:0.76999996;fill:#ffffff;fill-opacity:1;stroke:#1d0017;stroke-width:4.9000001;stroke-miterlimit:4;stroke-dasharray:none;stroke-opacity:0.92307691"
       id="rect4272-1-0-5-6"
       width="753.125"
       height="1065.625"
       x="4212.2598"
       y="13.65271" />
    <rect
       style="opacity:0.81720001;fill:#ffffff;fill-opacity:1;stroke:#1d0017;stroke-width:4.9000001;stroke-miterlimit:4;stroke-dasharray:none;stroke-opacity:0.92307691"
       id="rect5543-8"
       width="640.81555"
       height="145.84077"
       x="4275.0435"
       y="321.07474" />
    <rect
       style="opacity:0.81720001;fill:#ffffff;fill-opacity:1;stroke:#1d0017;stroke-width:4.9000001;stroke-miterlimit:4;stroke-dasharray:none;stroke-opacity:0.92307691"
       id="rect5543-1-1"
       width="640.81555"
       height="145.84077"
       x="4274.1284"
       y="567.64691" />
    <rect
       style="opacity:0.81720001;fill:#ffffff;fill-opacity:1;stroke:#1d0017;stroke-width:4.9000001;stroke-miterlimit:4;stroke-dasharray:none;stroke-opacity:0.92307691"
       id="rect5543-4-7"
       width="640.81555"
       height="145.84077"
       x="4272.834"
       y="809.42029" />
    <text
       xml:space="preserve"
       style="font-style:normal;font-variant:normal;font-weight:bold;font-stretch:normal;font-size:82.80503082px;line-height:125%;font-family:sans-serif;-inkscape-font-specification:'sans-serif Bold';letter-spacing:0px;word-spacing:0px;fill:#000000;fill-opacity:1;stroke:none;stroke-width:1px;stroke-linecap:butt;stroke-linejoin:miter;stroke-opacity:1"
       x="5331.71"
       y="126.46874"
       id="text5569-1"
       sodipodi:linespacing="125%"
       transform="scale(0.82400037,1.2135917)"><tspan
         sodipodi:role="line"
         id="tspan5571-9"
         x="5331.71"
         y="126.46874">Main Menu</tspan></text>
    <text
       xml:space="preserve"
       style="font-style:normal;font-weight:normal;font-size:76.32368469px;line-height:125%;font-family:sans-serif;letter-spacing:0px;word-spacing:0px;fill:#000000;fill-opacity:1;stroke:none;stroke-width:1px;stroke-linecap:butt;stroke-linejoin:miter;stroke-opacity:1"
       x="4945.5049"
       y="385.05493"
       id="text5573-3"
       sodipodi:linespacing="125%"
       transform="scale(0.9047333,1.1052981)"><tspan
         sodipodi:role="line"
         id="tspan5575-2"
         x="4945.5049"
         y="385.05493">Market</tspan></text>
    <text
       xml:space="preserve"
       style="font-style:normal;font-weight:normal;font-size:73.99671173px;line-height:125%;font-family:sans-serif;letter-spacing:0px;word-spacing:0px;fill:#000000;fill-opacity:1;stroke:none;stroke-width:1px;stroke-linecap:butt;stroke-linejoin:miter;stroke-opacity:1"
       x="5108.6133"
       y="589.862"
       id="text5577-6"
       sodipodi:linespacing="125%"
       transform="scale(0.87714958,1.1400564)"><tspan
         sodipodi:role="line"
         id="tspan5579-5"
         x="5108.6133"
         y="589.862">Friends</tspan></text>
    <text
       xml:space="preserve"
       style="font-style:normal;font-weight:normal;font-size:82.24266815px;line-height:125%;font-family:sans-serif;letter-spacing:0px;word-spacing:0px;fill:#000000;fill-opacity:1;stroke:none;stroke-width:1px;stroke-linecap:butt;stroke-linejoin:miter;stroke-opacity:1"
       x="5024.0366"
       y="812.49811"
       id="text5581-5"
       sodipodi:linespacing="125%"
       transform="scale(0.89299388,1.1198285)"><tspan
         sodipodi:role="line"
         id="tspan5583-9"
         x="5024.0366"
         y="812.49811">Profile</tspan></text>
    <path
       style="fill:#ffaaaa;fill-rule:evenodd;stroke:#000000;stroke-width:0.20461024px;stroke-linecap:butt;stroke-linejoin:miter;stroke-opacity:1"
       d="m 2213.8176,441.53183 c -2.1413,3.2569 -6.7736,0.116 -9.6113,1.0208 -0.6753,0.2153 -0.9264,0.8058 -1.6018,1.021 -2.9902,0.9528 -8.2229,-0.9529 -11.213,0 -0.6755,0.2151 -0.9266,0.8056 -1.6019,1.0209 -0.9552,0.3044 -2.1907,-0.2153 -3.2038,0 -3.1812,0.6759 -8.4677,1.1669 -11.213,2.0418 -0.6755,0.2153 -0.8856,0.8688 -1.602,1.0209 -1.013,0.2152 -2.1905,-0.2152 -3.2037,0 -0.7164,0.1523 -0.9264,0.8057 -1.6019,1.0209 -5.0051,1.595 -10.8428,3.4553 -16.0185,5.1046 -1.351,0.4305 -1.8531,1.6114 -3.2038,2.0418 -0.9165,0.2921 -7.6296,1.7998 -8.0094,2.0418 -0.8009,0.5104 -0.8009,1.5314 -1.6018,2.0418 -1.194,0.761 -3.6117,0.26 -4.8056,1.021 -0.3776,0.2405 0.2387,0.7165 0,1.0209 -3.3333,4.2488 0.1102,-1.0914 -3.2038,1.021 -0.3776,0.2406 0.3776,0.7802 0,1.0208 -0.3776,0.2406 -1.2243,-0.2406 -1.6019,0 -0.3775,0.2406 0.3776,0.7802 0,1.021 -0.801,0.5104 -2.4027,0.5104 -3.2037,1.0208 -3.3143,2.1123 5.0648,-0.083 -1.6018,2.0419 -0.4777,0.1522 -1.2243,-0.2406 -1.6019,0 -0.3776,0.2406 0.3776,0.7802 0,1.0209 -0.3776,0.2407 -1.1244,-0.1523 -1.6019,0 -6.6666,2.1243 1.7124,-0.071 -1.6018,2.0418 -0.3776,0.2407 -1.2243,-0.2407 -1.6019,0 -0.3777,0.2407 0.3776,0.7803 0,1.0209 -3.3144,2.1123 0.1296,-3.2279 -3.2037,1.021 -0.2389,0.3043 0.3775,0.7802 0,1.0209 -1.0502,0.6692 -5.605,0.5094 -6.4075,1.0208 -0.8009,0.5106 -0.8009,1.5314 -1.6019,2.0419 -0.7551,0.4813 -2.2486,-0.3044 -3.2037,0 -0.6755,0.2152 -0.9265,0.8057 -1.602,1.0209 -0.9551,0.3043 -2.4486,-0.4813 -3.2037,0 -0.3774,0.2406 0.3776,0.7803 0,1.0209 -1.1371,0.7247 -14.2798,2.1292 -16.0186,1.0208 -0.3775,-0.2406 0.3775,-0.7802 0,-1.0208 -0.7551,-0.4812 -2.4487,0.4812 -3.2037,0 -0.3775,-0.2406 0.2387,-0.7166 0,-1.0209 -3.3333,-4.2488 0.1102,1.0914 -3.2038,-1.0209 -0.3775,-0.2407 0.2388,-0.7165 0,-1.0209 -1.1563,-1.4741 -2.0473,-2.6097 -3.2037,-4.0837 -0.3901,-0.4971 -0.1496,-11.0394 0,-11.23 0.3377,-0.4305 1.2642,-0.5905 1.6018,-1.021 0.4776,-0.6087 -0.7551,-1.5605 0,-2.0418 0.3776,-0.2406 1.2244,0.2406 1.6019,0 0.7551,-0.4812 -0.7551,-1.5605 0,-2.0418 0.801,-0.5104 2.4028,-0.5104 3.2038,-1.0209 0.3775,-0.2406 -0.3775,-0.7803 0,-1.0209 0.5338,-0.3403 4.2716,-0.6806 4.8056,-1.0209 0.3776,-0.2406 -0.3776,-0.7804 0,-1.021 0.8538,-0.5441 7.1554,-1.4975 8.0093,-2.0418 0.3775,-0.2406 -0.3776,-0.7802 0,-1.0209 0.3775,-0.2406 1.1243,0.1522 1.6018,0 0.6755,-0.2152 0.9265,-0.8057 1.6019,-1.0209 0.9552,-0.3043 2.4487,0.4813 3.2037,0 0.3776,-0.2407 -0.3774,-0.7803 0,-1.0209 0.3776,-0.2406 1.1244,0.1522 1.602,0 0.6753,-0.2152 0.9264,-0.8056 1.6017,-1.021 0.9552,-0.3042 2.4487,0.4814 3.2039,0 0.8008,-0.5104 0.8008,-1.5313 1.6018,-2.0417 0.7551,-0.4813 2.2486,0.3043 3.2037,0 1.8661,-0.5946 2.9397,-1.4473 4.8057,-2.0418 0.9671,-0.3082 4.065,0.4719 4.8056,0 0.3774,-0.2406 -0.3776,-0.7804 0,-1.021 0.7551,-0.4812 2.4486,0.4814 3.2037,0 0.3776,-0.2406 -0.3776,-0.7802 0,-1.0208 0.5339,-0.3403 4.2717,-0.6807 4.8056,-1.021 0.3775,-0.2406 -0.5339,-1.0209 0,-1.0209 0.5339,0 0.5339,1.0209 0,1.0209 -0.6702,0 -3.1999,-2.0444 -4.8056,-1.0209 -0.3776,0.2406 0.3776,0.7803 0,1.0209 -0.9672,0.6164 -9.0098,0.6376 -9.6113,1.021 -0.3774,0.2406 0.3776,0.7802 0,1.0208 -0.8008,0.5106 -4.0047,-0.5104 -4.8055,0 -0.3776,0.2406 0.3775,0.7804 0,1.021 -0.6242,0.3977 -5.43,0 -6.4076,0 -11.6678,0 -24.0007,0.7699 -35.2411,-1.021 -1.036,-0.1651 -2.2485,0.3044 -3.2037,0 -0.6753,-0.2152 -0.9265,-0.8056 -1.6018,-1.0208 -4.1271,-1.3152 -18.9178,1.0855 -24.028,0 -5.1952,-1.1037 -9.2218,-1.9591 -14.4168,-3.0629 -0.906,-0.1923 -4.1622,0.4101 -4.8057,0 -0.3775,-0.2406 0.3775,-0.7802 0,-1.0208 -0.3775,-0.2406 -1.0952,0.1077 -1.6018,0 -1.1327,-0.2406 -2.033,-0.8717 -3.2038,-1.0209 -1.5707,-0.2003 -3.2858,0.3229 -4.8056,0 -0.5065,-0.1076 0.3776,-0.7803 0,-1.0209 -0.8025,-0.5115 -5.3573,-0.3517 -6.4074,-1.0209 -0.3776,-0.2406 0.2387,-0.7166 0,-1.021 -0.6755,-0.8609 -2.2977,-1.2718 -3.2037,-2.0418 -1.602,-1.3611 -3.6117,-2.5617 -4.8057,-4.0837 -0.2387,-0.3044 0.3776,-0.7802 0,-1.0208 -0.3776,-0.2406 -1.363,0.3044 -1.6019,0 -0.708,-0.9027 -2.9857,-11.5079 -1.6018,-13.272 1.5146,-1.9304 5.6874,-1.3018 8.0094,-2.0417 0.6753,-0.2152 0.9264,-0.8057 1.6018,-1.021 2.4847,-0.7917 27.435,0 32.0373,0 5.5804,0 40.0527,-1.0189 43.2505,0 2.6158,0.8336 4.9094,1.3833 8.0094,2.0419 1.0131,0.2152 2.2485,-0.3044 3.2037,0 0.6754,0.2152 0.9264,0.8057 1.6019,1.0208 0.3131,0.099 19.7569,1.7012 20.8242,1.021 2.1359,-1.3613 -2.6698,-1.021 1.6019,-1.021 4.1884,0 4.5207,0.091 8.0094,-1.0208 0.9552,-0.3044 4.2716,0 3.2037,0 -10.2782,0 3.6675,0.4388 -3.2037,-1.0209 -5.1462,-1.0932 -12.822,1.5291 -17.6207,0 -0.6753,-0.2152 -0.8854,-0.8688 -1.6017,-1.021 -4.7985,-1.0193 -15.0803,1.32 -19.2224,0 -0.4776,-0.1522 0.4775,-0.8686 0,-1.0208 -1.7087,-0.5445 -4.6989,0.5444 -6.4076,0 -6.6666,-2.1244 1.7125,0.071 -1.6018,-2.0419 -0.3679,-0.2345 -6.3375,-1.9972 -6.4076,-2.0418 -0.6712,-0.4279 -1.1164,-2.4441 -1.6018,-3.0627 -0.3378,-0.4305 -1.3631,-0.5644 -1.6019,-1.0209 -0.5065,-0.9685 1.1327,-2.3409 0,-3.0627 -0.3775,-0.2408 -1.2243,0.2406 -1.6018,0 -1.5036,-0.9583 1.2102,-2.5638 1.6018,-3.0628 0.2388,-0.3044 -0.3775,-0.7803 0,-1.0209 0.3776,-0.2406 1.2243,0.2406 1.6019,0 0.3775,-0.2406 -0.3776,-0.7804 0,-1.021 2.3106,-1.4725 11.3769,0.9687 14.4169,0 0.6754,-0.2152 0.9264,-0.8057 1.6019,-1.0208 1.3337,-0.425 5.3913,0.6475 6.4074,0 0.3776,-0.2406 -0.3776,-0.7804 0,-1.021 1.1327,-0.7219 3.2037,0 4.8056,0 4.2536,0 13.4645,-2.3453 17.6205,-1.0209 1.8661,0.5946 2.9397,1.4472 4.8057,2.0419 0.4775,0.1522 1.6018,-0.3403 1.6018,0 0,0.032 -14.2233,-0.042 -14.4169,0 -1.1326,0.2406 -2.071,0.7802 -3.2037,1.0208 -1.9964,0.4242 -22.2199,0.5761 -24.028,0 -2.389,-0.7612 -3.9638,-2.284 -6.4074,-3.0627 -0.9552,-0.3043 -2.4487,0.4813 -3.2038,0 -0.7552,-0.4812 0.3377,-1.3962 0,-2.0418 -3.8676,-7.3949 0.4618,1.6095 -3.2037,-3.0628 -1.5103,-1.925 -2.3847,-4.0374 -3.2039,-6.1255 -0.1789,-0.4565 -0.4553,-3.7933 0,-4.0837 1.1329,-0.7218 3.2861,0.323 4.8057,0 1.6593,-0.3524 3.2165,-1.5353 4.8057,-2.0417 1.8246,-0.5815 15.4276,-0.555 17.6206,-1.0209 6.9146,-1.469 13.3305,-2.0419 20.8242,-2.0419 1.5186,0 5.0771,-0.4239 6.4074,0 3.959,1.2616 -0.5529,1.021 3.2038,1.021 1.6019,0 4.8056,-1.021 4.8056,0 0,0.1755 -13.4463,-0.2062 -14.4168,0 -1.1327,0.2406 -2.0454,0.8364 -3.2037,1.0209 -1.036,0.1651 -2.1906,-0.2153 -3.2037,0 -0.7164,0.1522 -0.8856,0.8687 -1.602,1.0209 -1.6517,0.351 -23.8357,0.5717 -25.6298,0 -6.6666,-2.1244 1.7124,0.071 -1.6019,-2.0418 -0.5988,-0.3817 -3.5069,-0.8003 -4.8057,-2.0418 -2.3879,-2.2828 -4.4822,-4.6925 -6.4074,-7.1464 -0.4776,-0.6088 0.7551,-1.5606 0,-2.0418 -0.3776,-0.2407 -1.2243,0.2406 -1.602,0 -0.755,-0.4814 0,-2.7225 0,-2.0418 0,5.6189 -0.8441,-1.5038 0,-2.0419 0.3777,-0.2406 1.2244,0.2406 1.602,0 1.0756,-0.6856 -1.0756,-1.3563 0,-2.0418 0.8009,-0.5104 2.4027,-0.5104 3.2037,-1.021 0.3776,-0.2406 -0.3775,-0.7802 0,-1.0208 0.3776,-0.2406 1.2243,0.2406 1.6019,0 0.3775,-0.2406 -0.3776,-0.7804 0,-1.021 1.0679,-0.6806 5.3396,0.6807 6.4075,0 0.3776,-0.2406 -0.3775,-0.7802 0,-1.0209 0.7405,-0.4719 3.8385,0.3083 4.8056,0 2.3128,-0.737 4.0947,-1.3049 6.4075,-2.0418 0.9672,-0.3082 4.0652,0.4719 4.8056,0 0.3776,-0.2406 -0.3776,-0.7804 0,-1.021 0.7551,-0.4812 2.1358,0 3.2037,0 3.1024,0 10.1002,-0.865 12.815,0 0.6753,0.2153 0.8854,0.8688 1.6019,1.021 1.5433,0.3279 8.4179,-0.7605 9.6112,0 0.3775,0.2406 -0.3777,0.7804 0,1.0209 1.3348,0.8508 6.6744,-0.8507 8.0093,0 0.3776,0.2406 -0.3776,0.7803 0,1.0209 1.8251,1.1632 23.8047,-1.1632 25.6299,0 0.3775,0.2407 -0.2389,0.7165 0,1.0209 1.1632,1.4829 2.4652,2.2008 3.2038,4.0837 1.6878,4.3031 3.0591,-1.7886 6.269,2.303 3.3333,4.2488 0.5561,0.7368 3.8704,2.8491 -3.8704,-2.8491 -8.5689,-11.5166 3.8705,2.4532 l 4.1037,4.6086 c 1.1713,1.3155 -22.6258,-19.2179 -22.6258,-19.2179 0.02,2.0672 31.2098,26.7416 33.3457,27.4221 0.6753,0.2154 0.9265,0.8058 1.6019,1.021 2.7646,0.881 15.0898,0 19.2224,0 l 12.8149,0"
       id="path4528-04-3"
       inkscape:connector-curvature="0"
       sodipodi:nodetypes="ccccccccccsccccsccccscscccccssccccccsccsccccccccccccccccccccccsccccccssccccccssccsscccsccsccsccsccsscccsscssccccsccscccccccccccsscsccsscscccssssssscccsscssccscccccccccsscssccccccccsscssscssc" />
    <text
       xml:space="preserve"
       style="font-style:normal;font-weight:normal;font-size:64.26939392px;line-height:125%;font-family:sans-serif;letter-spacing:0px;word-spacing:0px;fill:#000000;fill-opacity:1;stroke:none;stroke-width:1px;stroke-linecap:butt;stroke-linejoin:miter;stroke-opacity:1"
       x="1649.2876"
       y="546.24823"
       id="text4987-0"
       sodipodi:linespacing="125%"
       transform="scale(1.2933253,0.77320067)"><tspan
         sodipodi:role="line"
         id="tspan4989-0"
         x="1649.2876"
         y="546.24823">1</tspan></text>
    <path
       style="fill:#ffaaaa;fill-rule:evenodd;stroke:#000000;stroke-width:0.23328926px;stroke-linecap:butt;stroke-linejoin:miter;stroke-opacity:1"
       d="m 2233.3152,733.47033 c -2.5483,3.5575 -8.0613,0.1267 -11.4385,1.115 -0.8038,0.2352 -1.1025,0.8801 -1.9064,1.1153 -3.5586,1.0407 -9.7861,-1.0409 -13.3447,0 -0.8039,0.235 -1.1027,0.8799 -1.9064,1.1151 -1.1369,0.3324 -2.6073,-0.2352 -3.813,0 -3.7859,0.7383 -10.0774,1.2746 -13.3447,2.2303 -0.8039,0.2351 -1.0539,0.949 -1.9065,1.1151 -1.2056,0.2351 -2.607,-0.235 -3.8128,0 -0.8526,0.1663 -1.1025,0.8801 -1.9064,1.1152 -5.9566,1.7422 -12.9041,3.7742 -19.0639,5.5757 -1.6078,0.4703 -2.2053,1.7602 -3.8128,2.2303 -1.0907,0.3191 -9.0801,1.9659 -9.5321,2.2303 -0.9533,0.5576 -0.9533,1.6728 -1.9064,2.2304 -1.421,0.8312 -4.2983,0.284 -5.7192,1.1152 -0.4493,0.2627 0.2841,0.7826 0,1.1151 -3.9671,4.641 0.1311,-1.1921 -3.8129,1.1152 -0.4493,0.2628 0.4494,0.8523 0,1.1151 -0.4493,0.2628 -1.457,-0.2628 -1.9064,0 -0.4493,0.2628 0.4494,0.8522 0,1.1152 -0.9533,0.5576 -2.8595,0.5576 -3.8128,1.1151 -3.9444,2.3073 6.0276,-0.09 -1.9064,2.2303 -0.5684,0.1663 -1.457,-0.2628 -1.9064,0 -0.4493,0.2628 0.4494,0.8523 0,1.1152 -0.4493,0.2629 -1.3381,-0.1663 -1.9064,0 -7.934,2.3204 2.0379,-0.077 -1.9063,2.2302 -0.4494,0.263 -1.4571,-0.2628 -1.9064,0 -0.4495,0.263 0.4493,0.8524 0,1.1152 -3.9446,2.3073 0.1541,-3.5259 -3.8128,1.1153 -0.2844,0.3323 0.4492,0.8522 0,1.1151 -1.2499,0.7309 -6.6706,0.5565 -7.6257,1.115 -0.9532,0.5577 -0.9532,1.6728 -1.9064,2.2304 -0.8987,0.5257 -2.6761,-0.3325 -3.8128,0 -0.8039,0.2351 -1.1027,0.8801 -1.9065,1.1152 -1.1367,0.3323 -2.9141,-0.5258 -3.8128,0 -0.4492,0.2628 0.4493,0.8522 0,1.1151 -1.3534,0.7916 -16.9947,2.3257 -19.0639,1.1151 -0.4494,-0.2629 0.4492,-0.8523 0,-1.1151 -0.8987,-0.5257 -2.9143,0.5256 -3.8128,0 -0.4494,-0.2629 0.284,-0.7828 0,-1.1151 -3.9671,-4.641 0.1311,1.1921 -3.8129,-1.1152 -0.4493,-0.2629 0.2842,-0.7826 0,-1.1151 -1.3762,-1.6102 -2.4366,-2.8506 -3.8128,-4.4607 -0.4642,-0.543 -0.178,-12.0584 0,-12.2666 0.4019,-0.4703 1.5046,-0.645 1.9064,-1.1152 0.5684,-0.665 -0.8987,-1.7047 0,-2.2304 0.4493,-0.2628 1.4571,0.2629 1.9064,0 0.8987,-0.5256 -0.8987,-1.7045 0,-2.2303 0.9532,-0.5575 2.8596,-0.5575 3.8129,-1.1151 0.4492,-0.2628 -0.4494,-0.8524 0,-1.1152 0.6353,-0.3717 5.0836,-0.7434 5.7192,-1.1151 0.4493,-0.2628 -0.4494,-0.8524 0,-1.1152 1.0161,-0.5944 8.5157,-1.6358 9.5319,-2.2303 0.4494,-0.2628 -0.4493,-0.8523 0,-1.1151 0.4494,-0.2628 1.3381,0.1662 1.9064,0 0.8039,-0.2351 1.1027,-0.8801 1.9064,-1.1152 1.1368,-0.3324 2.9142,0.5258 3.8128,0 0.4493,-0.2629 -0.4492,-0.8523 0,-1.1151 0.4493,-0.2629 1.3381,0.1662 1.9065,0 0.8038,-0.2351 1.1025,-0.88 1.9063,-1.1152 1.1368,-0.3324 2.9142,0.5257 3.8129,0 0.9531,-0.5576 0.9531,-1.6727 1.9064,-2.2302 0.8987,-0.5258 2.6761,0.3323 3.8128,0 2.2208,-0.6496 3.4985,-1.5809 5.7193,-2.2303 1.151,-0.3367 4.8378,0.5154 5.7192,0 0.4492,-0.2629 -0.4494,-0.8524 0,-1.1153 0.8987,-0.5256 2.914,0.5258 3.8127,0 0.4494,-0.2628 -0.4493,-0.8522 0,-1.1151 0.6355,-0.3717 5.0838,-0.7435 5.7192,-1.1152 0.4494,-0.2628 -0.6354,-1.1151 0,-1.1151 0.6354,0 0.6354,1.1151 0,1.1151 -0.7975,0 -3.8081,-2.233 -5.7192,-1.1151 -0.4493,0.2629 0.4494,0.8523 0,1.1151 -1.1511,0.6734 -10.7226,0.6965 -11.4384,1.1152 -0.4493,0.2629 0.4493,0.8523 0,1.1151 -0.9532,0.5577 -4.7661,-0.5575 -5.7192,0 -0.4494,0.2629 0.4493,0.8524 0,1.1153 -0.7429,0.4344 -6.4623,0 -7.6257,0 -13.886,0 -28.5636,0.841 -41.9409,-1.1153 -1.233,-0.1803 -2.676,0.3325 -3.8128,0 -0.8038,-0.2351 -1.1027,-0.8799 -1.9064,-1.1151 -4.9117,-1.4366 -22.5142,1.1858 -28.596,0 -6.1829,-1.2055 -10.975,-2.1398 -17.1577,-3.3455 -1.0781,-0.2102 -4.9534,0.4479 -5.7193,0 -0.4492,-0.2628 0.4493,-0.8523 0,-1.1151 -0.4492,-0.2628 -1.3034,0.1176 -1.9063,0 -1.348,-0.2628 -2.4195,-0.9521 -3.8129,-1.1151 -1.8693,-0.2188 -3.9105,0.3526 -5.7192,0 -0.6028,-0.1176 0.4494,-0.8524 0,-1.1152 -0.9551,-0.5587 -6.3757,-0.3841 -7.6255,-1.1151 -0.4494,-0.2628 0.284,-0.7827 0,-1.1152 -0.8039,-0.9404 -2.7345,-1.3893 -3.8128,-2.2303 -1.9065,-1.4868 -4.2983,-2.7982 -5.7193,-4.4607 -0.2841,-0.3324 0.4493,-0.8522 0,-1.1151 -0.4494,-0.2628 -1.6222,0.3325 -1.9064,0 -0.8427,-0.9859 -3.5534,-12.5701 -1.9064,-14.4971 1.8026,-2.1086 6.7687,-1.4219 9.5321,-2.2301 0.8037,-0.2352 1.1025,-0.8801 1.9064,-1.1153 2.957,-0.8648 32.6507,0 38.128,0 6.6413,0 47.6672,-1.113 51.473,0 3.1131,0.9106 5.8427,1.511 9.5321,2.2303 1.2056,0.2352 2.6759,-0.3324 3.8127,0 0.8038,0.2352 1.1026,0.8801 1.9064,1.1151 0.3727,0.1085 23.5131,1.8583 24.7833,1.1153 2.5419,-1.487 -3.1774,-1.1153 1.9064,-1.1153 4.9847,0 5.3801,0.099 9.5321,-1.1151 1.1368,-0.3324 5.0837,0 3.8127,0 -12.2321,0 4.3648,0.4794 -3.8127,-1.115 -6.1246,-1.1942 -15.2597,1.6702 -20.9706,0 -0.8038,-0.2352 -1.0538,-0.949 -1.9063,-1.1153 -5.7107,-1.1134 -17.9472,1.4419 -22.8768,0 -0.5684,-0.1662 0.5682,-0.9488 0,-1.1151 -2.0336,-0.5948 -5.5922,0.5947 -7.6257,0 -7.934,-2.3205 2.038,0.077 -1.9064,-2.2303 -0.4379,-0.2561 -7.5423,-2.1815 -7.6257,-2.2303 -0.7989,-0.4674 -1.3287,-2.6697 -1.9064,-3.3454 -0.402,-0.4702 -1.6222,-0.6165 -1.9064,-1.1152 -0.6029,-1.0579 1.348,-2.5569 0,-3.3454 -0.4494,-0.263 -1.4571,0.2628 -1.9064,0 -1.7895,-1.0468 1.4403,-2.8004 1.9064,-3.3456 0.2842,-0.3324 -0.4494,-0.8522 0,-1.1151 0.4493,-0.2628 1.457,0.2629 1.9064,0 0.4493,-0.2628 -0.4494,-0.8523 0,-1.1152 2.7498,-1.6084 13.5398,1.0581 17.1578,0 0.8037,-0.2351 1.1025,-0.8801 1.9064,-1.1151 1.5872,-0.4642 6.4163,0.7074 7.6255,0 0.4494,-0.2628 -0.4493,-0.8524 0,-1.1152 1.3481,-0.7885 3.8128,0 5.7192,0 5.0623,0 16.0243,-2.5617 20.9705,-1.1151 2.2208,0.6494 3.4985,1.5808 5.7193,2.2303 0.5683,0.1663 1.9062,-0.3717 1.9062,0 0,0.035 -16.9272,-0.046 -17.1576,0 -1.3479,0.2629 -2.4648,0.8523 -3.8128,1.1151 -2.376,0.4633 -26.4442,0.6293 -28.596,0 -2.8433,-0.8315 -4.7175,-2.4948 -7.6256,-3.3454 -1.1368,-0.3325 -2.9142,0.5257 -3.8129,0 -0.8987,-0.5256 0.4019,-1.5251 0,-2.2303 -4.6029,-8.0775 0.5496,1.7581 -3.8128,-3.3455 -1.7974,-2.1028 -2.8381,-4.4101 -3.8129,-6.6909 -0.213,-0.4986 -0.5419,-4.1435 0,-4.4607 1.3482,-0.7885 3.9108,0.3528 5.7193,0 1.9747,-0.385 3.828,-1.6771 5.7193,-2.2302 2.1715,-0.6351 18.3606,-0.6063 20.9704,-1.1152 8.2293,-1.6045 15.8649,-2.2303 24.7833,-2.2303 1.8073,0 6.0423,-0.463 7.6256,0 4.7116,1.3781 -0.6581,1.1152 3.8127,1.1152 1.9066,0 5.7193,-1.1152 5.7193,0 0,0.1918 -16.0027,-0.2252 -17.1576,0 -1.3481,0.2629 -2.4343,0.9136 -3.8128,1.1151 -1.233,0.1804 -2.6071,-0.2351 -3.8128,0 -0.8526,0.1663 -1.0539,0.949 -1.9065,1.1152 -1.9657,0.3834 -28.3672,0.6245 -30.5024,0 -7.934,-2.3205 2.038,0.077 -1.9064,-2.2303 -0.7126,-0.4169 -4.1737,-0.8742 -5.7193,-2.2303 -2.8419,-2.4935 -5.3344,-5.1256 -7.6256,-7.806 -0.5684,-0.665 0.8987,-1.7047 0,-2.2303 -0.4493,-0.263 -1.457,0.2628 -1.9065,0 -0.8986,-0.5258 0,-2.9739 0,-2.2304 0,6.1376 -1.0047,-1.6425 0,-2.2303 0.4495,-0.2628 1.4572,0.2629 1.9065,0 1.2801,-0.7488 -1.2801,-1.4815 0,-2.2303 0.9531,-0.5575 2.8595,-0.5575 3.8128,-1.1152 0.4493,-0.2628 -0.4494,-0.8523 0,-1.1151 0.4493,-0.2628 1.457,0.2628 1.9064,0 0.4493,-0.2628 -0.4494,-0.8524 0,-1.1152 1.271,-0.7434 6.3547,0.7435 7.6257,0 0.4493,-0.2628 -0.4494,-0.8523 0,-1.1151 0.8812,-0.5155 4.5682,0.3367 5.7192,0 2.7525,-0.8051 4.8731,-1.4254 7.6257,-2.2303 1.1509,-0.3367 4.8379,0.5154 5.7191,0 0.4494,-0.2629 -0.4493,-0.8524 0,-1.1152 0.8987,-0.5257 2.5419,0 3.8128,0 3.6922,0 12.0204,-0.945 15.2513,0 0.8037,0.2351 1.0538,0.9489 1.9064,1.1152 1.8367,0.3581 10.0182,-0.8307 11.4385,0 0.4492,0.2628 -0.4495,0.8524 0,1.1151 1.5885,0.9293 7.9433,-0.9293 9.5319,0 0.4494,0.2628 -0.4493,0.8524 0,1.1152 2.1721,1.2705 28.3304,-1.2706 30.5026,0 0.4492,0.2628 -0.2844,0.7826 0,1.1151 1.3843,1.6198 2.9338,2.404 3.8128,4.4606 2.0087,4.7003 3.6407,-1.9536 7.4608,2.5156 3.9671,4.641 0.6619,0.8049 4.6063,3.1122 -4.6063,-3.1122 -10.198,-12.5797 4.6064,2.6796 l 4.8837,5.034 c 1.394,1.437 -26.9272,-20.9919 -26.9272,-20.9919 0.024,2.258 37.1432,29.2101 39.6852,29.9535 0.8037,0.2353 1.1026,0.8801 1.9064,1.1152 3.2902,0.9624 17.9586,0 22.8768,0 l 15.2513,0"
       id="path4528-04-8"
       inkscape:connector-curvature="0"
       sodipodi:nodetypes="ccccccccccsccccsccccscscccccssccccccsccsccccccccccccccccccccccsccccccssccccccssccsscccsccsccsccsccsscccsscssccccsccscccccccccccsscsccsscscccssssssscccsscssccscccccccccsscssccccccccsscssscssc" />
    <path
       style="fill:#ffaaaa;fill-rule:evenodd;stroke:#000000;stroke-width:0.21027443px;stroke-linecap:butt;stroke-linejoin:miter;stroke-opacity:1"
       d="m 2230.6307,578.90783 c -2.3584,3.1229 -7.4605,0.1112 -10.5861,0.9788 -0.7438,0.2064 -1.0203,0.7726 -1.7643,0.979 -3.2934,0.9136 -9.0568,-0.9137 -12.3503,0 -0.7439,0.2063 -1.0204,0.7725 -1.7643,0.9789 -1.0521,0.2919 -2.4129,-0.2064 -3.5288,0 -3.5037,0.6481 -9.3264,1.119 -12.3502,1.9579 -0.744,0.2064 -0.9754,0.833 -1.7645,0.9788 -1.1157,0.2064 -2.4127,-0.2062 -3.5286,0 -0.7891,0.1461 -1.0204,0.7726 -1.7644,0.979 -5.5127,1.5294 -11.9425,3.3132 -17.6432,4.8946 -1.488,0.4128 -2.041,1.5452 -3.5287,1.9579 -1.0094,0.2801 -8.4034,1.7258 -8.8217,1.9579 -0.8822,0.4894 -0.8822,1.4684 -1.7643,1.9578 -1.3152,0.7297 -3.978,0.2493 -5.293,0.979 -0.4159,0.2306 0.2629,0.687 0,0.9789 -3.6715,4.0741 0.1213,-1.0464 -3.5288,0.979 -0.4158,0.2307 0.4159,0.7481 0,0.9789 -0.4158,0.2307 -1.3484,-0.2308 -1.7643,0 -0.4159,0.2307 0.4159,0.7481 0,0.979 -0.8822,0.4894 -2.6464,0.4894 -3.5287,0.9788 -3.6504,2.0255 5.5785,-0.079 -1.7643,1.9579 -0.526,0.1459 -1.3484,-0.2307 -1.7643,0 -0.4159,0.2307 0.4159,0.7482 0,0.979 -0.4159,0.2307 -1.2384,-0.1461 -1.7643,0 -7.3428,2.0369 1.886,-0.068 -1.7644,1.9577 -0.4158,0.2309 -1.3484,-0.2307 -1.7643,0 -0.416,0.2309 0.4159,0.7483 0,0.979 -3.6506,2.0255 0.1427,-3.0951 -3.5286,0.979 -0.2632,0.2918 0.4157,0.7482 0,0.9789 -1.1568,0.6417 -6.1735,0.4885 -7.0575,0.9789 -0.8821,0.4895 -0.8821,1.4684 -1.7643,1.9578 -0.8317,0.4616 -2.4767,-0.2918 -3.5286,0 -0.744,0.2064 -1.0205,0.7726 -1.7645,0.979 -1.052,0.2918 -2.6969,-0.4615 -3.5286,0 -0.4158,0.2308 0.4158,0.7482 0,0.9789 -1.2525,0.6949 -15.7282,2.0416 -17.6433,0.9789 -0.4159,-0.2307 0.4158,-0.7482 0,-0.9789 -0.8317,-0.4614 -2.697,0.4615 -3.5286,0 -0.4159,-0.2307 0.2629,-0.6871 0,-0.9789 -3.6715,-4.074 0.1213,1.0465 -3.5288,-0.979 -0.4158,-0.2307 0.263,-0.687 0,-0.9788 -1.2736,-1.4135 -2.255,-2.5024 -3.5287,-3.9158 -0.4296,-0.4767 -0.1647,-10.5854 0,-10.7682 0.372,-0.4128 1.3925,-0.5662 1.7644,-0.979 0.526,-0.5837 -0.8318,-1.4964 0,-1.9578 0.4158,-0.2308 1.3485,0.2307 1.7643,0 0.8317,-0.4615 -0.8317,-1.4963 0,-1.9579 0.8822,-0.4894 2.6465,-0.4894 3.5288,-0.9789 0.4157,-0.2307 -0.4159,-0.7482 0,-0.979 0.5879,-0.3263 4.7047,-0.6525 5.2929,-0.9788 0.4159,-0.2308 -0.4158,-0.7483 0,-0.979 0.9405,-0.5218 7.8812,-1.436 8.8217,-1.9579 0.4158,-0.2307 -0.4159,-0.7482 0,-0.9789 0.4158,-0.2307 1.2384,0.146 1.7643,0 0.744,-0.2064 1.0205,-0.7726 1.7643,-0.979 1.0521,-0.2917 2.6971,0.4616 3.5287,0 0.4158,-0.2307 -0.4158,-0.7481 0,-0.9788 0.4158,-0.2308 1.2384,0.1459 1.7644,0 0.7439,-0.2064 1.0204,-0.7725 1.7642,-0.979 1.0521,-0.2918 2.6971,0.4615 3.5288,0 0.8821,-0.4895 0.8821,-1.4683 1.7643,-1.9578 0.8317,-0.4615 2.4767,0.2918 3.5287,0 2.0553,-0.5702 3.2378,-1.3878 5.2931,-1.9578 1.0652,-0.2956 4.4773,0.4524 5.2929,0 0.4158,-0.2308 -0.4158,-0.7483 0,-0.979 0.8318,-0.4615 2.697,0.4615 3.5287,0 0.4159,-0.2308 -0.4159,-0.7482 0,-0.9789 0.5881,-0.3263 4.7049,-0.6527 5.293,-0.979 0.4158,-0.2307 -0.5881,-0.9789 0,-0.9789 0.588,0 0.588,0.9789 0,0.9789 -0.7381,0 -3.5244,-1.9603 -5.293,-0.9789 -0.4159,0.2307 0.4159,0.7482 0,0.9789 -1.0653,0.5911 -9.9236,0.6114 -10.5861,0.979 -0.4157,0.2307 0.4159,0.7481 0,0.9789 -0.8821,0.4895 -4.4109,-0.4895 -5.293,0 -0.4158,0.2307 0.4159,0.7482 0,0.979 -0.6874,0.3813 -5.9807,0 -7.0574,0 -12.8512,0 -26.435,0.7382 -38.8154,-0.979 -1.1411,-0.1584 -2.4765,0.2918 -3.5286,0 -0.7439,-0.2064 -1.0205,-0.7725 -1.7644,-0.9789 -4.5457,-1.2611 -20.8364,1.0409 -26.465,0 -5.722,-1.0583 -10.1571,-1.8785 -15.879,-2.9369 -0.9978,-0.1845 -4.5843,0.3932 -5.2931,0 -0.4158,-0.2307 0.4158,-0.7481 0,-0.9788 -0.4158,-0.2308 -1.2063,0.1032 -1.7642,0 -1.2476,-0.2308 -2.2393,-0.8359 -3.5288,-0.9789 -1.73,-0.1921 -3.6191,0.3095 -5.293,0 -0.5579,-0.1033 0.4159,-0.7483 0,-0.9791 -0.8839,-0.4904 -5.9006,-0.3372 -7.0573,-0.9788 -0.4158,-0.2308 0.2629,-0.6872 0,-0.979 -0.7439,-0.8255 -2.5307,-1.2196 -3.5286,-1.9579 -1.7645,-1.3052 -3.978,-2.4563 -5.2931,-3.9157 -0.2629,-0.2918 0.4158,-0.7481 0,-0.9788 -0.4159,-0.2308 -1.5013,0.2918 -1.7643,0 -0.7799,-0.8656 -3.2886,-11.0346 -1.7644,-12.7261 1.6683,-1.8511 6.2643,-1.2483 8.8218,-1.9578 0.7438,-0.2064 1.0203,-0.7726 1.7643,-0.979 2.7366,-0.7592 30.2176,0 35.2866,0 6.1464,0 44.115,-0.977 47.6372,0 2.8811,0.7993 5.4073,1.3264 8.8217,1.9579 1.1159,0.2064 2.4766,-0.2919 3.5287,0 0.7438,0.2064 1.0203,0.7726 1.7643,0.9789 0.3449,0.095 21.7608,1.6312 22.9364,0.979 2.3525,-1.3053 -2.9406,-0.979 1.7643,-0.979 4.6132,0 4.9792,0.087 8.8217,-0.9789 1.0521,-0.2919 4.7049,0 3.5287,0 -11.3206,0 4.0395,0.4208 -3.5287,-0.9789 -5.6681,-1.0483 -14.1224,1.4663 -19.4078,0 -0.7438,-0.2064 -0.9752,-0.833 -1.7642,-0.979 -5.2851,-0.9774 -16.6098,1.2657 -21.172,0 -0.5261,-0.1459 0.5259,-0.8329 0,-0.9789 -1.882,-0.5221 -5.1755,0.5221 -7.0574,0 -7.3428,-2.037 1.8861,0.068 -1.7644,-1.9578 -0.4052,-0.2249 -6.9802,-1.9151 -7.0574,-1.9579 -0.7393,-0.4103 -1.2297,-2.3436 -1.7643,-2.9367 -0.372,-0.4128 -1.5013,-0.5412 -1.7643,-0.979 -0.558,-0.9286 1.2476,-2.2446 0,-2.9368 -0.4159,-0.2308 -1.3485,0.2308 -1.7644,0 -1.6561,-0.9188 1.3331,-2.4583 1.7644,-2.9368 0.263,-0.2919 -0.4159,-0.7482 0,-0.9789 0.4158,-0.2307 1.3484,0.2307 1.7643,0 0.4158,-0.2307 -0.4159,-0.7483 0,-0.979 2.5449,-1.412 12.5308,0.9289 15.8792,0 0.7438,-0.2064 1.0203,-0.7726 1.7643,-0.9789 1.4689,-0.4075 5.9381,0.6209 7.0573,0 0.4158,-0.2307 -0.4159,-0.7482 0,-0.979 1.2476,-0.6921 3.5286,0 5.293,0 4.685,0 14.8301,-2.2488 19.4077,-0.9788 2.0553,0.5701 3.2378,1.3876 5.2931,1.9578 0.5259,0.146 1.7642,-0.3263 1.7642,0 0,0.031 -15.6658,-0.04 -15.8791,0 -1.2475,0.2308 -2.281,0.7482 -3.5286,0.9789 -2.199,0.4067 -24.4736,0.5524 -26.465,0 -2.6314,-0.7299 -4.3659,-2.1901 -7.0573,-2.9367 -1.0521,-0.2919 -2.6971,0.4614 -3.5288,0 -0.8317,-0.4615 0.372,-1.3388 0,-1.9579 -4.2599,-7.0908 0.5086,1.5433 -3.5287,-2.9369 -1.6634,-1.8459 -2.6265,-3.8713 -3.5287,-5.8736 -0.1971,-0.4377 -0.5016,-3.6372 0,-3.9157 1.2477,-0.6922 3.6193,0.3097 5.2931,0 1.8275,-0.338 3.5427,-1.4722 5.2931,-1.9577 2.0097,-0.5576 16.9923,-0.5323 19.4077,-0.979 7.6159,-1.4086 14.6825,-1.9579 22.9363,-1.9579 1.6727,0 5.592,-0.4065 7.0573,0 4.3605,1.2097 -0.609,0.979 3.5287,0.979 1.7644,0 5.2931,-0.979 5.2931,0 0,0.1683 -14.8102,-0.1977 -15.8791,0 -1.2476,0.2307 -2.2529,0.8019 -3.5286,0.9789 -1.1411,0.1583 -2.4129,-0.2064 -3.5287,0 -0.7891,0.1459 -0.9754,0.833 -1.7644,0.979 -1.8193,0.3365 -26.2532,0.5481 -28.2294,0 -7.3427,-2.0371 1.8862,0.068 -1.7643,-1.9579 -0.6595,-0.366 -3.8626,-0.7674 -5.2931,-1.9579 -2.6301,-2.1889 -4.9368,-4.4995 -7.0573,-6.8525 -0.526,-0.5837 0.8317,-1.4964 0,-1.9578 -0.4159,-0.2309 -1.3485,0.2307 -1.7644,0 -0.8316,-0.4616 0,-2.6106 0,-1.9579 0,5.3878 -0.9298,-1.4419 0,-1.9579 0.4159,-0.2307 1.3485,0.2308 1.7644,0 1.1847,-0.6574 -1.1847,-1.3005 0,-1.9578 0.8821,-0.4895 2.6464,-0.4895 3.5287,-0.979 0.4158,-0.2307 -0.4159,-0.7482 0,-0.9789 0.4158,-0.2307 1.3484,0.2307 1.7643,0 0.4158,-0.2307 -0.4159,-0.7483 0,-0.979 1.1762,-0.6526 5.8812,0.6527 7.0574,0 0.4159,-0.2307 -0.4159,-0.7481 0,-0.9789 0.8156,-0.4525 4.2278,0.2956 5.293,0 2.5474,-0.7067 4.51,-1.2512 7.0574,-1.9578 1.0652,-0.2956 4.4774,0.4525 5.293,0 0.4158,-0.2307 -0.4159,-0.7483 0,-0.979 0.8317,-0.4615 2.3524,0 3.5286,0 3.417,0 11.1247,-0.8295 14.1148,0 0.7438,0.2064 0.9752,0.833 1.7643,0.979 1.6998,0.3143 9.2717,-0.7292 10.5861,0 0.4157,0.2307 -0.416,0.7482 0,0.9789 1.4701,0.8158 7.3513,-0.8158 8.8216,0 0.4159,0.2307 -0.4159,0.7482 0,0.9789 2.0102,1.1153 26.2191,-1.1154 28.2294,0 0.4158,0.2308 -0.2631,0.687 0,0.9789 1.2812,1.422 2.7152,2.1104 3.5287,3.9158 1.8591,4.1261 3.3694,-1.715 6.9048,2.2083 3.6715,4.074 0.6126,0.7065 4.2631,2.7319 -4.2631,-2.7319 -9.438,-11.043 4.263,2.3523 l 4.5199,4.4191 c 1.2901,1.2614 -24.9206,-18.4276 -24.9206,-18.4276 0.022,1.9822 34.3753,25.6419 36.7278,26.2945 0.7438,0.2065 1.0204,0.7726 1.7643,0.979 3.045,0.8448 16.6203,0 21.172,0 l 14.1147,0"
       id="path4528-04-9"
       inkscape:connector-curvature="0"
       sodipodi:nodetypes="ccccccccccsccccsccccscscccccssccccccsccsccccccccccccccccccccccsccccccssccccccssccsscccsccsccsccsccsscccsscssccccsccscccccccccccsscsccsscscccssssssscccsscssccscccccccccsscssccccccccsscssscssc" />
    <text
       xml:space="preserve"
       style="font-style:normal;font-weight:normal;font-size:47.43314362px;line-height:125%;font-family:sans-serif;letter-spacing:0px;word-spacing:0px;fill:#000000;fill-opacity:1;stroke:none;stroke-width:1px;stroke-linecap:butt;stroke-linejoin:miter;stroke-opacity:1"
       x="2080.7058"
       y="579.43951"
       id="text4987-2"
       sodipodi:linespacing="125%"
       transform="scale(1.0335823,0.96750882)"><tspan
         sodipodi:role="line"
         id="tspan4989-2"
         x="2080.7058"
         y="579.43951">2</tspan></text>
    <text
       xml:space="preserve"
       style="font-style:normal;font-weight:normal;font-size:54.3619957px;line-height:125%;font-family:sans-serif;letter-spacing:0px;word-spacing:0px;fill:#000000;fill-opacity:1;stroke:none;stroke-width:1px;stroke-linecap:butt;stroke-linejoin:miter;stroke-opacity:1"
       x="2016.2225"
       y="753.96277"
       id="text5369"
       sodipodi:linespacing="125%"
       transform="scale(1.0616687,0.94191342)"><tspan
         sodipodi:role="line"
         id="tspan5371"
         x="2016.2225"
         y="753.96277">3</tspan></text>
    <rect
       style="opacity:0.76999996;fill:#ffffff;fill-opacity:1;stroke:#1d0017;stroke-width:4.9000001;stroke-miterlimit:4;stroke-dasharray:none;stroke-opacity:0.92307691"
       id="rect4272-1-0-5"
       width="753.125"
       height="1065.625"
       x="2837.063"
       y="23.375349" />
    <rect
       style="opacity:0.81720001;fill:#ffffff;fill-opacity:1;stroke:#1d0017;stroke-width:4.9000001;stroke-miterlimit:4;stroke-dasharray:none;stroke-opacity:0.92307691"
       id="rect5543"
       width="640.81555"
       height="145.84077"
       x="2899.8469"
       y="348.47525" />
    <rect
       style="opacity:0.81720001;fill:#ffffff;fill-opacity:1;stroke:#1d0017;stroke-width:4.9000001;stroke-miterlimit:4;stroke-dasharray:none;stroke-opacity:0.92307691"
       id="rect5543-1"
       width="640.81555"
       height="145.84077"
       x="2898.9316"
       y="595.0473" />
    <rect
       style="opacity:0.81720001;fill:#ffffff;fill-opacity:1;stroke:#1d0017;stroke-width:4.9000001;stroke-miterlimit:4;stroke-dasharray:none;stroke-opacity:0.92307691"
       id="rect5543-4"
       width="640.81555"
       height="145.84077"
       x="2897.6372"
       y="836.82074" />
    <text
       xml:space="preserve"
       style="font-style:normal;font-variant:normal;font-weight:bold;font-stretch:normal;font-size:82.80503082px;line-height:125%;font-family:sans-serif;-inkscape-font-specification:'sans-serif Bold';letter-spacing:0px;word-spacing:0px;fill:#000000;fill-opacity:1;stroke:none;stroke-width:1px;stroke-linecap:butt;stroke-linejoin:miter;stroke-opacity:1"
       x="3662.7825"
       y="149.04665"
       id="text5569"
       sodipodi:linespacing="125%"
       transform="scale(0.82400037,1.2135917)"><tspan
         sodipodi:role="line"
         id="tspan5571"
         x="3662.7825"
         y="149.04665">Main Menu</tspan></text>
    <text
       xml:space="preserve"
       style="font-style:normal;font-weight:normal;font-size:76.32368469px;line-height:125%;font-family:sans-serif;letter-spacing:0px;word-spacing:0px;fill:#000000;fill-opacity:1;stroke:none;stroke-width:1px;stroke-linecap:butt;stroke-linejoin:miter;stroke-opacity:1"
       x="3425.5032"
       y="409.84509"
       id="text5573"
       sodipodi:linespacing="125%"
       transform="scale(0.90473323,1.1052982)"><tspan
         sodipodi:role="line"
         id="tspan5575"
         x="3425.5032"
         y="409.84509">Market</tspan></text>
    <text
       xml:space="preserve"
       style="font-style:normal;font-weight:normal;font-size:73.99671173px;line-height:125%;font-family:sans-serif;letter-spacing:0px;word-spacing:0px;fill:#000000;fill-opacity:1;stroke:none;stroke-width:1px;stroke-linecap:butt;stroke-linejoin:miter;stroke-opacity:1"
       x="3540.8115"
       y="613.896"
       id="text5577"
       sodipodi:linespacing="125%"
       transform="scale(0.87714958,1.1400564)"><tspan
         sodipodi:role="line"
         id="tspan5579"
         x="3540.8115"
         y="613.896">Friends</tspan></text>
    <text
       xml:space="preserve"
       style="font-style:normal;font-weight:normal;font-size:82.24266815px;line-height:125%;font-family:sans-serif;letter-spacing:0px;word-spacing:0px;fill:#000000;fill-opacity:1;stroke:none;stroke-width:1px;stroke-linecap:butt;stroke-linejoin:miter;stroke-opacity:1"
       x="3484.0525"
       y="836.96649"
       id="text5581"
       sodipodi:linespacing="125%"
       transform="scale(0.89299388,1.1198285)"><tspan
         sodipodi:role="line"
         id="tspan5583"
         x="3484.0525"
         y="836.96649">Profile</tspan></text>
    <g
       transform="matrix(0.00688287,-0.99997631,0.99997631,0.00688287,3887.6392,-158.70642)"
       id="g5246-7-7">
      <rect
         y="-288.58279"
         x="-636.14471"
         height="446.52347"
         width="17.983208"
         id="rect4541-5-54-4"
         style="opacity:0.76999996;fill:#000000;fill-opacity:1;stroke:#1d0017;stroke-width:4.61240864;stroke-miterlimit:4;stroke-dasharray:none;stroke-opacity:0.92307691"
         transform="matrix(0.99999986,5.2230235e-4,4.8546572e-4,0.99999988,0,0)" />
      <path
         inkscape:connector-curvature="0"
         id="rect4646-3-5-0"
         d="m -720.10526,162.14169 0,10.1231 c 2.4574,3.9841 4.7829,8.0572 6.916,12.2578 0.3012,0.5931 0.526,1.0732 0.7969,1.6211 2.0811,3.2465 3.9668,6.6059 5.6035,10.0937 1.9299,4.1128 3.0477,8.5583 4.5723,12.8379 0.075,0.2359 0.3343,1.0453 0.4297,1.3438 2.7043,5.0582 4.9844,9.5206 6.9511,13.5937 3.9687,2.3235 7.3824,4.9998 8.9766,10.2813 2.9066,7.293 -3.8609,-9.5008 3.3633,6.7988 0.7725,1.743 1.2286,3.6128 1.9512,5.377 2.2112,5.3993 4.5965,10.7325 6.8945,16.1015 5.9399,6.8515 11.7453,13.8223 17.1347,21.1074 9.7007,13.1129 17.7429,27.2248 25.5547,41.4707 1.5757,-2.8857 3.5013,-5.5483 5.7442,-7.9843 6.9122,-14.12 15.058,-27.6419 22.5234,-41.4727 1.1441,-2.1195 2.2375,-4.1796 3.3281,-6.2344 0.3375,-0.8683 0.6679,-1.7394 1.0313,-2.5976 7.2694,-17.1698 12.2922,-25.8316 20.8555,-41.7832 0.2508,-0.7091 0.4905,-1.4223 0.7597,-2.125 6.2599,-16.3382 15.2884,-31.4612 23.3692,-46.9121 0.4677,-0.8943 0.9154,-1.7988 1.375,-2.6973 0.9535,-2.2556 1.6459,-3.7955 2.1816,-4.8105 l 0,-6.3907 -170.3125,0 z"
         style="opacity:0.81720001;fill:#000000;fill-opacity:1;stroke:#1d0017;stroke-width:4.9000001;stroke-miterlimit:4;stroke-dasharray:none;stroke-opacity:0.92307691" />
    </g>
    <path
       style="fill:#ffaaaa;fill-rule:evenodd;stroke:#000000;stroke-width:0.32978231px;stroke-linecap:butt;stroke-linejoin:miter;stroke-opacity:1"
       d="m 4374.3107,962.32078 c -5.1244,-3.5352 -0.1835,-11.1836 -1.6063,-15.8688 -0.3386,-1.1151 -1.2676,-1.5296 -1.6063,-2.6448 -1.4992,-4.9369 1.4992,-13.5764 0,-18.5133 -0.3386,-1.1152 -1.2676,-1.5297 -1.6063,-2.6449 -0.4788,-1.577 0.3387,-3.6168 0,-5.2895 -1.0633,-5.2524 -1.836,-13.9807 -3.2125,-18.5136 -0.3387,-1.1151 -1.3669,-1.4619 -1.6063,-2.6448 -0.3387,-1.6725 0.3386,-3.6168 0,-5.2895 -0.2395,-1.1828 -1.2677,-1.5296 -1.6064,-2.6448 -2.5094,-8.2638 -5.4363,-17.9021 -8.0314,-26.4478 -0.6773,-2.2303 -2.5353,-3.0593 -3.2125,-5.2895 -0.4595,-1.513 -2.8317,-12.5968 -3.2127,-13.224 -0.8031,-1.3224 -2.4094,-1.3224 -3.2125,-2.6447 -1.1973,-1.9714 -0.409,-5.9631 -1.6063,-7.9344 -0.3786,-0.6234 -1.1275,0.3942 -1.6063,0 -6.685,-5.5035 1.7172,0.1826 -1.6063,-5.2896 -0.3786,-0.6234 -1.2277,0.6233 -1.6063,0 -0.3787,-0.6234 0.3786,-2.0214 0,-2.6448 -0.3787,-0.6233 -1.2277,0.6234 -1.6063,0 -0.8032,-1.3224 -0.8032,-3.9671 -1.6063,-5.2895 -3.3235,-5.4722 0.1299,8.3622 -3.2126,-2.6448 -0.2394,-0.7885 0.3786,-2.0214 0,-2.6448 -0.3786,-0.6234 -1.2277,0.6234 -1.6063,0 -0.3786,-0.6234 0.2395,-1.8563 0,-2.6448 -3.3424,-11.007 0.1109,2.8274 -3.2125,-2.6448 -0.3787,-0.6234 0.3785,-2.0214 0,-2.6447 -0.3787,-0.6235 -1.2278,0.6233 -1.6063,0 -3.3235,-5.4723 5.0787,0.2138 -1.6064,-5.2896 -0.4789,-0.3943 -1.2277,0.6233 -1.6062,0 -1.0531,-1.7339 -0.8016,-9.2541 -1.6063,-10.5791 -0.8032,-1.3224 -2.4095,-1.3224 -3.2126,-2.6449 -0.7573,-1.2467 0.4789,-3.7125 0,-5.2895 -0.3387,-1.1151 -1.2677,-1.5297 -1.6063,-2.6448 -0.4789,-1.5771 0.7572,-4.0428 0,-5.2896 -0.3786,-0.6233 -1.2277,0.6234 -1.6063,0 -1.1403,-1.8776 -3.3499,-23.5769 -1.6063,-26.4478 0.3786,-0.6234 1.2277,0.6234 1.6063,0 0.7572,-1.2467 -0.7572,-4.0428 0,-5.2895 0.3786,-0.6234 1.1274,0.3942 1.6063,0 6.685,-5.5035 -1.7172,0.1825 1.6063,-5.2896 0.3785,-0.6233 1.1273,0.3943 1.6063,0 2.3192,-1.9093 4.106,-3.3803 6.4252,-5.2896 0.7822,-0.6439 17.3692,-0.2469 17.6692,0 0.6773,0.5575 0.929,2.0872 1.6063,2.6448 0.9577,0.7885 2.4553,-1.2467 3.2125,0 0.3786,0.6234 -0.3786,2.0215 0,2.6448 0.7572,1.2468 2.4554,-1.2468 3.2127,0 0.8031,1.3224 0.8031,3.9672 1.6062,5.2896 0.3787,0.6233 1.2277,-0.6234 1.6063,0 0.5355,0.8815 1.0709,7.0527 1.6063,7.9343 0.3786,0.6234 1.2277,-0.6234 1.6063,0 0.8562,1.4097 2.3564,11.8142 3.2126,13.2238 0.3786,0.6235 1.2276,-0.6232 1.6062,0 0.3787,0.6235 -0.2394,1.8564 0,2.6449 0.3387,1.1152 1.2677,1.5297 1.6064,2.6448 0.4788,1.577 -0.7572,4.0428 0,5.2895 0.3786,0.6234 1.2276,-0.6233 1.6063,0 0.3786,0.6234 -0.2395,1.8563 0,2.6448 0.3386,1.1152 1.2676,1.5297 1.6063,2.6448 0.4788,1.577 -0.7572,4.0428 0,5.2896 0.8031,1.3224 2.4094,1.3224 3.2125,2.6447 0.7572,1.2469 -0.4788,3.7126 0,5.2897 0.9356,3.0808 2.2771,4.8535 3.2126,7.9343 0.485,1.5968 -0.7425,6.7118 0,7.9343 0.3786,0.6234 1.2277,-0.6234 1.6063,0 0.7572,1.2468 -0.7572,4.0428 0,5.2896 0.3787,0.6234 1.2277,-0.6234 1.6063,0 0.5354,0.8816 1.0709,7.0528 1.6063,7.9343 0.3786,0.6234 1.6063,-0.8815 1.6063,0 0,0.8816 -1.6063,0.8816 -1.6063,0 0,-1.1063 3.2165,-5.283 1.6063,-7.9343 -0.3786,-0.6234 -1.2277,0.6234 -1.6063,0 -0.9699,-1.597 -1.0032,-14.8757 -1.6063,-15.8687 -0.3786,-0.6233 -1.2276,0.6234 -1.6063,0 -0.8032,-1.3223 0.8031,-6.612 0,-7.9343 -0.3786,-0.6234 -1.2277,0.6233 -1.6063,0 -0.6259,-1.0305 0,-8.9652 0,-10.5792 0,-19.2644 -1.2115,-39.6268 1.6063,-58.1852 0.2598,-1.7105 -0.4789,-3.7125 0,-5.2896 0.3387,-1.1151 1.2677,-1.5297 1.6063,-2.6448 2.0692,-6.814 -1.7082,-31.2343 0,-39.6717 1.7365,-8.5775 3.0824,-15.2256 4.8189,-23.8031 0.3028,-1.4958 -0.6451,-6.872 0,-7.9344 0.3786,-0.6233 1.2277,0.6234 1.6063,0 0.3786,-0.6233 -0.1694,-1.8083 0,-2.6447 0.3786,-1.8702 1.3715,-3.3566 1.6062,-5.2896 0.3151,-2.5934 -0.5079,-5.4252 0,-7.9342 0.1694,-0.8364 1.2278,0.6234 1.6063,0 0.8048,-1.3251 0.5533,-8.8453 1.6063,-10.5792 0.3786,-0.6233 1.1274,0.3943 1.6064,0 1.3545,-1.1151 2.001,-3.7935 3.2125,-5.2895 2.1417,-2.6448 4.0307,-5.9631 6.4252,-7.9344 0.4789,-0.3942 1.2277,0.6234 1.6062,0 0.3787,-0.6233 -0.4788,-2.2506 0,-2.6448 1.4202,-1.169 18.1064,-4.9297 20.8819,-2.6447 3.0375,2.5006 2.0484,9.3902 3.2126,13.2239 0.3386,1.1151 1.2676,1.5296 1.6063,2.6448 1.2458,4.1024 0,45.2968 0,52.8955 0,9.2136 1.6033,66.1294 0,71.4092 -1.3116,4.3188 -2.1765,8.1057 -3.2126,13.2239 -0.3386,1.6727 0.4789,3.7125 0,5.2896 -0.3386,1.1151 -1.2677,1.5296 -1.6063,2.6447 -0.157,0.517 -2.6765,32.62 -1.6063,34.3823 2.1417,3.5263 1.6063,-4.4081 1.6063,2.6447 0,6.9153 -0.1429,7.4639 1.6063,13.2239 0.4789,1.5771 0,7.0529 0,5.2896 0,-16.9699 -0.6905,6.0554 1.6063,-5.2896 1.7201,-8.4965 -2.406,-21.1698 0,-29.0926 0.3386,-1.1151 1.3668,-1.462 1.6063,-2.6448 1.6038,-7.9224 -2.0768,-24.8983 0,-31.7373 0.2394,-0.7886 1.3668,0.7885 1.6063,0 0.8567,-2.8212 -0.8567,-7.7581 0,-10.5792 3.3425,-11.007 -0.1109,2.8273 3.2126,-2.6448 0.3689,-0.6074 3.1423,-10.4635 3.2126,-10.5791 0.6731,-1.1083 3.8453,-1.8434 4.8188,-2.6448 0.6773,-0.5576 0.8879,-2.2505 1.6063,-2.6448 1.5238,-0.8363 3.683,1.8701 4.8188,0 0.3787,-0.6233 -0.3785,-2.0214 0,-2.6448 1.5078,-2.4824 4.0337,1.9983 4.8189,2.6448 0.479,0.3943 1.2278,-0.6233 1.6063,0 0.3786,0.6233 -0.3785,2.0214 0,2.6448 0.3786,0.6233 1.2277,-0.6234 1.6063,0 2.317,3.8149 -1.5241,18.7839 0,23.8031 0.3387,1.1151 1.2677,1.5296 1.6063,2.6448 0.6687,2.202 -1.0189,8.9015 0,10.5791 0.3786,0.6233 1.2278,-0.6234 1.6063,0 1.1358,1.8702 0,5.2895 0,7.9342 0,7.0231 3.6901,22.2308 1.6063,29.0928 -0.9356,3.0808 -2.277,4.8535 -3.2126,7.9343 -0.2395,0.7885 0.5354,2.6448 0,2.6448 -0.051,0 0.065,-23.4835 0,-23.8031 -0.3786,-1.8701 -1.2277,-3.4195 -1.6063,-5.2896 -0.6674,-3.2964 -0.9065,-36.6866 0,-39.6717 1.1978,-3.9445 3.5937,-6.5447 4.8189,-10.5792 0.4789,-1.577 -0.7572,-4.0427 0,-5.2895 0.7572,-1.2468 2.1967,0.5575 3.2126,0 11.635,-6.3858 -2.5325,0.7625 4.8189,-5.2896 3.0288,-2.4935 6.3524,-3.9372 9.6378,-5.2896 0.7181,-0.2956 5.9684,-0.752 6.4252,0 1.1357,1.8702 -0.5081,5.4254 0,7.9344 0.5546,2.7395 2.4157,5.3106 3.2125,7.9343 0.9148,3.0127 0.8733,25.472 1.6063,29.0927 2.3113,11.4165 3.2126,22.0096 3.2126,34.3821 0,2.5074 0.667,8.3828 0,10.5792 -1.9849,6.5364 -1.6063,-0.9129 -1.6063,5.2896 0,2.6448 1.6063,7.9343 0,7.9343 -0.2763,0 0.3243,-22.2008 0,-23.8031 -0.3786,-1.8701 -1.316,-3.377 -1.6063,-5.2895 -0.2598,-1.7105 0.3386,-3.6169 0,-5.2896 -0.2395,-1.1827 -1.3668,-1.462 -1.6063,-2.6448 -0.5521,-2.7271 -0.8996,-39.3543 0,-42.3165 3.3425,-11.0069 -0.1109,2.8274 3.2126,-2.6447 0.6005,-0.9887 1.2591,-5.7902 3.2126,-7.9344 3.5917,-3.9426 7.383,-7.4005 11.244,-10.5792 0.9578,-0.7885 2.4554,1.2468 3.2126,0 0.3786,-0.6234 -0.3786,-2.0213 0,-2.6448 0.7572,-1.2467 4.2835,0 3.2126,0 -8.8409,0 2.366,-1.3939 3.2126,0 0.3786,0.6235 -0.3786,2.0214 0,2.6448 1.0786,1.776 2.134,-1.7759 3.2125,0 0.8032,1.3224 0.8032,3.9672 1.6063,5.2896 0.3787,0.6233 1.2277,-0.6233 1.6063,0 0.3786,0.6233 -0.3786,2.0214 0,2.6448 0.3786,0.6233 1.2277,-0.6234 1.6064,0 1.0708,1.7632 -1.0709,8.8159 0,10.5792 0.3786,0.6233 1.2276,-0.6234 1.6062,0 0.7425,1.2225 -0.485,6.3374 0,7.9343 1.1596,3.8185 2.0531,6.7606 3.2126,10.5791 0.4849,1.5969 -0.7425,6.7118 0,7.9344 0.3786,0.6233 1.2277,-0.6234 1.6063,0 0.7572,1.2467 0,3.5263 0,5.2895 0,5.1222 1.3611,16.6761 0,21.1583 -0.3386,1.1151 -1.3669,1.462 -1.6063,2.6448 -0.5159,2.5481 1.1966,13.8985 0,15.8687 -0.3786,0.6233 -1.2277,-0.6234 -1.6063,0 -1.3386,2.2039 1.3386,11.02 0,13.2239 -0.3786,0.6234 -1.2276,-0.6234 -1.6063,0 -1.8301,3.0133 1.8301,39.3032 0,42.3166 -0.3786,0.6233 -1.1274,-0.3943 -1.6062,0 -2.3332,1.9206 -3.4629,4.0701 -6.4252,5.2895 -6.7704,2.7868 2.814,5.0509 -3.6235,10.3507 -6.685,5.5034 -1.1593,0.9182 -4.4827,6.3904 4.4827,-6.3904 18.12,-14.1478 -3.86,6.3904 l -7.2511,6.7753 c -2.0698,1.934 30.2373,-37.3564 30.2373,-37.3564 -3.2526,0.033 -42.075,51.5293 -43.1458,55.0557 -0.3388,1.1151 -1.2678,1.5296 -1.6064,2.6448 -1.3861,4.5644 0,24.9142 0,31.7373 l 0,21.1584"
       id="path4528-2-1"
       inkscape:connector-curvature="0"
       sodipodi:nodetypes="ccccccccccsccccsccccscscccccssccccccsccsccccccccccccccccccccccsccccccssccccccssccsscccsccsccsccsccsscccsscssccccsccscccccccccccsscsccsscscccssssssscccsscssccscccccccccsscssccccccccsscssscssc" />
    <g
       transform="matrix(0.00805231,-0.99711609,1.1698784,0.00686318,2451.0935,-365.77556)"
       id="g5246-7-7-4">
      <rect
         y="-288.58279"
         x="-636.14471"
         height="446.52347"
         width="17.983208"
         id="rect4541-5-54-4-2"
         style="opacity:0.76999996;fill:#000000;fill-opacity:1;stroke:#1d0017;stroke-width:4.61240864;stroke-miterlimit:4;stroke-dasharray:none;stroke-opacity:0.92307691"
         transform="matrix(0.99999986,5.2230235e-4,4.8546572e-4,0.99999988,0,0)" />
      <path
         inkscape:connector-curvature="0"
         id="rect4646-3-5-0-1"
         d="m -720.10526,162.14169 0,10.1231 c 2.4574,3.9841 4.7829,8.0572 6.916,12.2578 0.3012,0.5931 0.526,1.0732 0.7969,1.6211 2.0811,3.2465 3.9668,6.6059 5.6035,10.0937 1.9299,4.1128 3.0477,8.5583 4.5723,12.8379 0.075,0.2359 0.3343,1.0453 0.4297,1.3438 2.7043,5.0582 4.9844,9.5206 6.9511,13.5937 3.9687,2.3235 7.3824,4.9998 8.9766,10.2813 2.9066,7.293 -3.8609,-9.5008 3.3633,6.7988 0.7725,1.743 1.2286,3.6128 1.9512,5.377 2.2112,5.3993 4.5965,10.7325 6.8945,16.1015 5.9399,6.8515 11.7453,13.8223 17.1347,21.1074 9.7007,13.1129 17.7429,27.2248 25.5547,41.4707 1.5757,-2.8857 3.5013,-5.5483 5.7442,-7.9843 6.9122,-14.12 15.058,-27.6419 22.5234,-41.4727 1.1441,-2.1195 2.2375,-4.1796 3.3281,-6.2344 0.3375,-0.8683 0.6679,-1.7394 1.0313,-2.5976 7.2694,-17.1698 12.2922,-25.8316 20.8555,-41.7832 0.2508,-0.7091 0.4905,-1.4223 0.7597,-2.125 6.2599,-16.3382 15.2884,-31.4612 23.3692,-46.9121 0.4677,-0.8943 0.9154,-1.7988 1.375,-2.6973 0.9535,-2.2556 1.6459,-3.7955 2.1816,-4.8105 l 0,-6.3907 -170.3125,0 z"
         style="opacity:0.81720001;fill:#000000;fill-opacity:1;stroke:#1d0017;stroke-width:4.9000001;stroke-miterlimit:4;stroke-dasharray:none;stroke-opacity:0.92307691" />
    </g>
  </g>
</svg>
