<?xml version="1.0" encoding="UTF-8" standalone="no"?>
<!-- Created with Inkscape (http://www.inkscape.org/) -->

<svg
   xmlns:dc="http://purl.org/dc/elements/1.1/"
   xmlns:cc="http://creativecommons.org/ns#"
   xmlns:rdf="http://www.w3.org/1999/02/22-rdf-syntax-ns#"
   xmlns:svg="http://www.w3.org/2000/svg"
   xmlns="http://www.w3.org/2000/svg"
   xmlns:sodipodi="http://sodipodi.sourceforge.net/DTD/sodipodi-0.dtd"
   xmlns:inkscape="http://www.inkscape.org/namespaces/inkscape"
   width="210mm"
   height="297mm"
   viewBox="0 0 744.09448819 1052.3622047"
   id="svg8048"
   version="1.1"
   inkscape:version="0.91 r13725"
   sodipodi:docname="SettingsMenu.svg"
   inkscape:export-filename="/Users/Dylan/g5246-7-9-8-0.png"
   inkscape:export-xdpi="90"
   inkscape:export-ydpi="90">
  <defs
     id="defs8050" />
  <sodipodi:namedview
     id="base"
     pagecolor="#ffffff"
     bordercolor="#666666"
     borderopacity="1.0"
     inkscape:pageopacity="0.0"
     inkscape:pageshadow="2"
     inkscape:zoom="0.08"
     inkscape:cx="3269.4308"
     inkscape:cy="678.72153"
     inkscape:document-units="px"
     inkscape:current-layer="layer1"
     showgrid="false"
     inkscape:window-width="1280"
     inkscape:window-height="690"
     inkscape:window-x="8"
     inkscape:window-y="40"
     inkscape:window-maximized="0" />
  <metadata
     id="metadata8053">
    <rdf:RDF>
      <cc:Work
         rdf:about="">
        <dc:format>image/svg+xml</dc:format>
        <dc:type
           rdf:resource="http://purl.org/dc/dcmitype/StillImage" />
        <dc:title></dc:title>
      </cc:Work>
    </rdf:RDF>
  </metadata>
  <g
     inkscape:label="Layer 1"
     inkscape:groupmode="layer"
     id="layer1">
    <rect
       style="opacity:0.81720001;fill:#ffffff;fill-opacity:1;stroke:#1d0017;stroke-width:1.00601506;stroke-miterlimit:4;stroke-dasharray:none;stroke-opacity:0.92307691"
       id="rect8432"
       width="1685.7142"
       height="1811.4286"
       x="2791.4287"
       y="-493.35208" />
    <rect
       style="opacity:0.76999996;fill:#ffffff;fill-opacity:1;stroke:#1d0017;stroke-width:4.9000001;stroke-miterlimit:4;stroke-dasharray:none;stroke-opacity:0.92307691"
       id="rect4272-1-0-5-5-8"
       width="753.125"
       height="1065.625"
       x="-0.11693137"
       y="3.2554088" />
    <rect
       style="opacity:0.81720001;fill:#ffffff;fill-opacity:1;stroke:#1d0017;stroke-width:4.9000001;stroke-miterlimit:4;stroke-dasharray:none;stroke-opacity:0.92307691"
       id="rect5543-5-6"
       width="640.81555"
       height="145.84077"
       x="62.666874"
       y="328.35562" />
    <rect
       style="opacity:0.81720001;fill:#ffffff;fill-opacity:1;stroke:#1d0017;stroke-width:4.9000001;stroke-miterlimit:4;stroke-dasharray:none;stroke-opacity:0.92307691"
       id="rect5543-1-7-1"
       width="640.81555"
       height="145.84077"
       x="61.751598"
       y="574.92737" />
    <rect
       style="opacity:0.81720001;fill:#ffffff;fill-opacity:1;stroke:#1d0017;stroke-width:4.9000001;stroke-miterlimit:4;stroke-dasharray:none;stroke-opacity:0.92307691"
       id="rect5543-4-6-5"
       width="640.81555"
       height="145.84077"
       x="60.457165"
       y="816.70081" />
    <text
       xml:space="preserve"
       style="font-style:normal;font-variant:normal;font-weight:bold;font-stretch:normal;font-size:82.80503082px;line-height:125%;font-family:sans-serif;-inkscape-font-specification:'sans-serif Bold';letter-spacing:0px;word-spacing:0px;fill:#000000;fill-opacity:1;stroke:none;stroke-width:1px;stroke-linecap:butt;stroke-linejoin:miter;stroke-opacity:1"
       x="219.60461"
       y="132.46771"
       id="text5569-9-5"
       sodipodi:linespacing="125%"
       transform="scale(0.82400037,1.2135917)"><tspan
         sodipodi:role="line"
         id="tspan5571-5-6"
         x="219.60461"
         y="132.46771">Main Menu</tspan></text>
    <text
       xml:space="preserve"
       style="font-style:normal;font-weight:normal;font-size:76.32368469px;line-height:125%;font-family:sans-serif;letter-spacing:0px;word-spacing:0px;fill:#000000;fill-opacity:1;stroke:none;stroke-width:1px;stroke-linecap:butt;stroke-linejoin:miter;stroke-opacity:1"
       x="289.57339"
       y="391.64246"
       id="text5573-7-9"
       sodipodi:linespacing="125%"
       transform="scale(0.9047333,1.1052981)"><tspan
         sodipodi:role="line"
         id="tspan5575-9-0"
         x="289.57339"
         y="391.64246">Market</tspan></text>
    <text
       xml:space="preserve"
       style="font-style:normal;font-weight:normal;font-size:73.99671173px;line-height:125%;font-family:sans-serif;letter-spacing:0px;word-spacing:0px;fill:#000000;fill-opacity:1;stroke:none;stroke-width:1px;stroke-linecap:butt;stroke-linejoin:miter;stroke-opacity:1"
       x="306.26633"
       y="596.24799"
       id="text5577-2-7"
       sodipodi:linespacing="125%"
       transform="scale(0.87714958,1.1400564)"><tspan
         sodipodi:role="line"
         id="tspan5579-9-2"
         x="306.26633"
         y="596.24799">Friends</tspan></text>
    <text
       xml:space="preserve"
       style="font-style:normal;font-weight:normal;font-size:75.21572113px;line-height:125%;font-family:sans-serif;letter-spacing:0px;word-spacing:0px;fill:#000000;fill-opacity:1;stroke:none;stroke-width:1px;stroke-linecap:butt;stroke-linejoin:miter;stroke-opacity:1"
       x="308.53616"
       y="849.53168"
       id="text5581-2-5"
       sodipodi:linespacing="125%"
       transform="scale(0.92611818,1.0797758)"><tspan
         sodipodi:role="line"
         id="tspan5583-5-9"
         x="308.53616"
         y="849.53168">Profile</tspan></text>
    <rect
       style="opacity:0.76999996;fill:#ffffff;fill-opacity:1;stroke:#1d0017;stroke-width:4.9000001;stroke-miterlimit:4;stroke-dasharray:none;stroke-opacity:0.92307691"
       id="rect4272-1-0-5-5-4"
       width="753.125"
       height="1065.625"
       x="1531.8297"
       y="5.842968" />
    <rect
       style="opacity:0.81720001;fill:#ffffff;fill-opacity:1;stroke:#1d0017;stroke-width:4.9000001;stroke-miterlimit:4;stroke-dasharray:none;stroke-opacity:0.92307691"
       id="rect5543-5-1"
       width="640.81555"
       height="145.84077"
       x="1594.6136"
       y="330.94318" />
    <rect
       style="opacity:0.81720001;fill:#ffffff;fill-opacity:1;stroke:#1d0017;stroke-width:4.9000001;stroke-miterlimit:4;stroke-dasharray:none;stroke-opacity:0.92307691"
       id="rect5543-1-7-13"
       width="640.81555"
       height="145.84077"
       x="1593.6984"
       y="577.51495" />
    <rect
       style="opacity:0.81720001;fill:#ffffff;fill-opacity:1;stroke:#1d0017;stroke-width:4.9000001;stroke-miterlimit:4;stroke-dasharray:none;stroke-opacity:0.92307691"
       id="rect5543-4-6-53"
       width="640.81555"
       height="145.84077"
       x="1592.4039"
       y="819.28839" />
    <text
       xml:space="preserve"
       style="font-style:normal;font-variant:normal;font-weight:bold;font-stretch:normal;font-size:82.80503082px;line-height:125%;font-family:sans-serif;-inkscape-font-specification:'sans-serif Bold';letter-spacing:0px;word-spacing:0px;fill:#000000;fill-opacity:1;stroke:none;stroke-width:1px;stroke-linecap:butt;stroke-linejoin:miter;stroke-opacity:1"
       x="2078.7625"
       y="134.59956"
       id="text5569-9-7"
       sodipodi:linespacing="125%"
       transform="scale(0.82400037,1.2135917)"><tspan
         sodipodi:role="line"
         id="tspan5571-5-62"
         x="2078.7625"
         y="134.59956">Main Menu</tspan></text>
    <text
       xml:space="preserve"
       style="font-style:normal;font-weight:normal;font-size:76.32368469px;line-height:125%;font-family:sans-serif;letter-spacing:0px;word-spacing:0px;fill:#000000;fill-opacity:1;stroke:none;stroke-width:1px;stroke-linecap:butt;stroke-linejoin:miter;stroke-opacity:1"
       x="1982.8312"
       y="393.98312"
       id="text5573-7-1"
       sodipodi:linespacing="125%"
       transform="scale(0.9047333,1.1052981)"><tspan
         sodipodi:role="line"
         id="tspan5575-9-7"
         x="1982.8312"
         y="393.98312">Market</tspan></text>
    <text
       xml:space="preserve"
       style="font-style:normal;font-weight:normal;font-size:73.99671173px;line-height:125%;font-family:sans-serif;letter-spacing:0px;word-spacing:0px;fill:#000000;fill-opacity:1;stroke:none;stroke-width:1px;stroke-linecap:butt;stroke-linejoin:miter;stroke-opacity:1"
       x="2052.772"
       y="598.51788"
       id="text5577-2-8"
       sodipodi:linespacing="125%"
       transform="scale(0.87714958,1.1400564)"><tspan
         sodipodi:role="line"
         id="tspan5579-9-3"
         x="2052.772"
         y="598.51788">Friends</tspan></text>
    <text
       xml:space="preserve"
       style="font-style:normal;font-weight:normal;font-size:75.21572113px;line-height:125%;font-family:sans-serif;letter-spacing:0px;word-spacing:0px;fill:#000000;fill-opacity:1;stroke:none;stroke-width:1px;stroke-linecap:butt;stroke-linejoin:miter;stroke-opacity:1"
       x="1962.6952"
       y="851.9281"
       id="text5581-2-3"
       sodipodi:linespacing="125%"
       transform="scale(0.92611818,1.0797758)"><tspan
         sodipodi:role="line"
         id="tspan5583-5-5"
         x="1962.6952"
         y="851.9281">Profile</tspan></text>
    <rect
       style="opacity:0.76999996;fill:#ffffff;fill-opacity:1;stroke:#1d0017;stroke-width:4.9000001;stroke-miterlimit:4;stroke-dasharray:none;stroke-opacity:0.92307691"
       id="rect4272-1-0-5-5-0"
       width="753.125"
       height="1065.625"
       x="2963.0796"
       y="18.342968" />
    <rect
       style="opacity:0.81720001;fill:#ffffff;fill-opacity:1;stroke:#1d0017;stroke-width:4.9000001;stroke-miterlimit:4;stroke-dasharray:none;stroke-opacity:0.92307691"
       id="rect5543-5-0"
       width="640.81555"
       height="145.84077"
       x="3025.8633"
       y="343.44318" />
    <rect
       style="opacity:0.81720001;fill:#ffffff;fill-opacity:1;stroke:#1d0017;stroke-width:4.9000001;stroke-miterlimit:4;stroke-dasharray:none;stroke-opacity:0.92307691"
       id="rect5543-1-7-9"
       width="640.81555"
       height="145.84077"
       x="3024.9482"
       y="590.01495" />
    <rect
       style="opacity:0.81720001;fill:#ffffff;fill-opacity:1;stroke:#1d0017;stroke-width:4.9000001;stroke-miterlimit:4;stroke-dasharray:none;stroke-opacity:0.92307691"
       id="rect5543-4-6-6"
       width="640.81555"
       height="145.84077"
       x="3023.6538"
       y="831.78839" />
    <text
       xml:space="preserve"
       style="font-style:normal;font-variant:normal;font-weight:bold;font-stretch:normal;font-size:82.80503082px;line-height:125%;font-family:sans-serif;-inkscape-font-specification:'sans-serif Bold';letter-spacing:0px;word-spacing:0px;fill:#000000;fill-opacity:1;stroke:none;stroke-width:1px;stroke-linecap:butt;stroke-linejoin:miter;stroke-opacity:1"
       x="3815.7153"
       y="144.89986"
       id="text5569-9-6"
       sodipodi:linespacing="125%"
       transform="scale(0.82400037,1.2135917)"><tspan
         sodipodi:role="line"
         id="tspan5571-5-25"
         x="3815.7153"
         y="144.89986">Main Menu</tspan></text>
    <text
       xml:space="preserve"
       style="font-style:normal;font-weight:normal;font-size:76.32368469px;line-height:125%;font-family:sans-serif;letter-spacing:0px;word-spacing:0px;fill:#000000;fill-opacity:1;stroke:none;stroke-width:1px;stroke-linecap:butt;stroke-linejoin:miter;stroke-opacity:1"
       x="3564.7891"
       y="405.29269"
       id="text5573-7-0"
       sodipodi:linespacing="125%"
       transform="scale(0.9047333,1.1052981)"><tspan
         sodipodi:role="line"
         id="tspan5575-9-6"
         x="3564.7891"
         y="405.29269">Market</tspan></text>
    <text
       xml:space="preserve"
       style="font-style:normal;font-weight:normal;font-size:73.99671173px;line-height:125%;font-family:sans-serif;letter-spacing:0px;word-spacing:0px;fill:#000000;fill-opacity:1;stroke:none;stroke-width:1px;stroke-linecap:butt;stroke-linejoin:miter;stroke-opacity:1"
       x="3684.478"
       y="609.48224"
       id="text5577-2-3"
       sodipodi:linespacing="125%"
       transform="scale(0.87714958,1.1400564)"><tspan
         sodipodi:role="line"
         id="tspan5579-9-37"
         x="3684.478"
         y="609.48224">Friends</tspan></text>
    <text
       xml:space="preserve"
       style="font-style:normal;font-weight:normal;font-size:75.21572113px;line-height:125%;font-family:sans-serif;letter-spacing:0px;word-spacing:0px;fill:#000000;fill-opacity:1;stroke:none;stroke-width:1px;stroke-linecap:butt;stroke-linejoin:miter;stroke-opacity:1"
       x="3508.1248"
       y="863.50476"
       id="text5581-2-30"
       sodipodi:linespacing="125%"
       transform="scale(0.92611818,1.0797758)"><tspan
         sodipodi:role="line"
         id="tspan5583-5-3"
         x="3508.1248"
         y="863.50476">Profile</tspan></text>
    <rect
       style="opacity:0.76999996;fill:#ffffff;fill-opacity:1;stroke:#1d0017;stroke-width:4.9000001;stroke-miterlimit:4;stroke-dasharray:none;stroke-opacity:0.92307691"
       id="rect4272-1-0-5-5-0-8"
       width="753.125"
       height="1065.625"
       x="4256.8301"
       y="49.650097" />
    <rect
       style="opacity:0.81720001;fill:#ffffff;fill-opacity:1;stroke:#1d0017;stroke-width:4.9000001;stroke-miterlimit:4;stroke-dasharray:none;stroke-opacity:0.92307691"
       id="rect5543-5-0-1"
       width="640.81555"
       height="145.84077"
       x="4319.6138"
       y="374.75031" />
    <rect
       style="opacity:0.81720001;fill:#ffffff;fill-opacity:1;stroke:#1d0017;stroke-width:4.9000001;stroke-miterlimit:4;stroke-dasharray:none;stroke-opacity:0.92307691"
       id="rect5543-1-7-9-9"
       width="640.81555"
       height="145.84077"
       x="4318.6987"
       y="621.32208" />
    <rect
       style="opacity:0.81720001;fill:#ffffff;fill-opacity:1;stroke:#1d0017;stroke-width:4.9000001;stroke-miterlimit:4;stroke-dasharray:none;stroke-opacity:0.92307691"
       id="rect5543-4-6-6-2"
       width="640.81555"
       height="145.84077"
       x="4317.4043"
       y="863.09552" />
    <text
       xml:space="preserve"
       style="font-style:normal;font-variant:normal;font-weight:bold;font-stretch:normal;font-size:82.80503082px;line-height:125%;font-family:sans-serif;-inkscape-font-specification:'sans-serif Bold';letter-spacing:0px;word-spacing:0px;fill:#000000;fill-opacity:1;stroke:none;stroke-width:1px;stroke-linecap:butt;stroke-linejoin:miter;stroke-opacity:1"
       x="5385.8003"
       y="170.69673"
       id="text5569-9-6-4"
       sodipodi:linespacing="125%"
       transform="scale(0.82400037,1.2135917)"><tspan
         sodipodi:role="line"
         id="tspan5571-5-25-1"
         x="5385.8003"
         y="170.69673">Main Menu</tspan></text>
    <text
       xml:space="preserve"
       style="font-style:normal;font-weight:normal;font-size:76.32368469px;line-height:125%;font-family:sans-serif;letter-spacing:0px;word-spacing:0px;fill:#000000;fill-opacity:1;stroke:none;stroke-width:1px;stroke-linecap:butt;stroke-linejoin:miter;stroke-opacity:1"
       x="4994.7686"
       y="433.61728"
       id="text5573-7-0-5"
       sodipodi:linespacing="125%"
       transform="scale(0.9047333,1.1052981)"><tspan
         sodipodi:role="line"
         id="tspan5575-9-6-0"
         x="4994.7686"
         y="433.61728">Market</tspan></text>
    <text
       xml:space="preserve"
       style="font-style:normal;font-weight:normal;font-size:73.99671173px;line-height:125%;font-family:sans-serif;letter-spacing:0px;word-spacing:0px;fill:#000000;fill-opacity:1;stroke:none;stroke-width:1px;stroke-linecap:butt;stroke-linejoin:miter;stroke-opacity:1"
       x="5159.4258"
       y="636.94366"
       id="text5577-2-3-0"
       sodipodi:linespacing="125%"
       transform="scale(0.87714958,1.1400564)"><tspan
         sodipodi:role="line"
         id="tspan5579-9-37-4"
         x="5159.4258"
         y="636.94366">Friends</tspan></text>
    <text
       xml:space="preserve"
       style="font-style:normal;font-weight:normal;font-size:75.21572113px;line-height:125%;font-family:sans-serif;letter-spacing:0px;word-spacing:0px;fill:#000000;fill-opacity:1;stroke:none;stroke-width:1px;stroke-linecap:butt;stroke-linejoin:miter;stroke-opacity:1"
       x="4905.0845"
       y="892.49841"
       id="text5581-2-30-8"
       sodipodi:linespacing="125%"
       transform="scale(0.92611818,1.0797758)"><tspan
         sodipodi:role="line"
         id="tspan5583-5-3-2"
         x="4905.0845"
         y="892.49841">Profile</tspan></text>
    <rect
       style="opacity:0.81720001;fill:#ffffff;fill-opacity:1;stroke:#1d0017;stroke-width:4.9000001;stroke-miterlimit:4;stroke-dasharray:none;stroke-opacity:0.92307691"
       id="rect5472-3-0-4"
       width="129.07513"
       height="119.5969"
       x="4879.6489"
       y="49.535839" />
    <ellipse
       style="opacity:0.81720001;fill:#ffffff;fill-opacity:1;stroke:#1d0017;stroke-width:4.9000001;stroke-miterlimit:4;stroke-dasharray:none;stroke-opacity:0.92307691"
       id="path5477-3-1-6"
       cx="4969.1421"
       cy="134.88203"
       rx="17.67767"
       ry="16.572815" />
    <ellipse
       style="opacity:0.81720001;fill:#ffffff;fill-opacity:1;stroke:#1d0017;stroke-width:4.9000001;stroke-miterlimit:4;stroke-dasharray:none;stroke-opacity:0.92307691"
       id="path5477-9-3-9-2"
       cx="4921.3882"
       cy="134.3503"
       rx="17.67767"
       ry="16.572815" />
    <ellipse
       style="opacity:0.81720001;fill:#ffffff;fill-opacity:1;stroke:#1d0017;stroke-width:4.9000001;stroke-miterlimit:4;stroke-dasharray:none;stroke-opacity:0.92307691"
       id="path5477-6-3-7-0"
       cx="4967.811"
       cy="83.426956"
       rx="17.67767"
       ry="16.572815" />
    <ellipse
       style="opacity:0.81720001;fill:#ffffff;fill-opacity:1;stroke:#1d0017;stroke-width:4.9000001;stroke-miterlimit:4;stroke-dasharray:none;stroke-opacity:0.92307691"
       id="path5477-7-3-1-2"
       cx="4917.9893"
       cy="82.5168"
       rx="17.67767"
       ry="16.572815" />
    <rect
       style="opacity:0.81720001;fill:#ffffff;fill-opacity:1;stroke:#1d0017;stroke-width:4.14102364;stroke-miterlimit:4;stroke-dasharray:none;stroke-opacity:0.92307691"
       id="rect6171-8"
       width="596.10651"
       height="135.55121"
       x="4414.228"
       y="165.9958" />
    <rect
       style="opacity:0.81720001;fill:#ffffff;fill-opacity:1;stroke:#1d0017;stroke-width:4.14102364;stroke-miterlimit:4;stroke-dasharray:none;stroke-opacity:0.92307691"
       id="rect6171-5-7"
       width="596.10651"
       height="135.55121"
       x="4413.6021"
       y="301.1839" />
    <text
       xml:space="preserve"
       style="font-style:normal;font-weight:normal;font-size:49.41643143px;line-height:125%;font-family:sans-serif;letter-spacing:0px;word-spacing:0px;fill:#000000;fill-opacity:1;stroke:none;stroke-width:1px;stroke-linecap:butt;stroke-linejoin:miter;stroke-opacity:1"
       x="4623.9727"
       y="381.2399"
       id="text6188-0"
       sodipodi:linespacing="125%"
       transform="scale(0.99896686,1.0010342)"><tspan
         sodipodi:role="line"
         id="tspan6190-4"
         x="4623.9727"
         y="381.2399">Logout</tspan></text>
    <text
       xml:space="preserve"
       style="font-style:normal;font-weight:normal;font-size:50.16847229px;line-height:125%;font-family:sans-serif;letter-spacing:0px;word-spacing:0px;fill:#000000;fill-opacity:1;stroke:none;stroke-width:1px;stroke-linecap:butt;stroke-linejoin:miter;stroke-opacity:1"
       x="4960.9321"
       y="231.93219"
       id="text6192-4"
       sodipodi:linespacing="125%"
       transform="scale(0.92898461,1.0764441)"><tspan
         sodipodi:role="line"
         id="tspan6194-3"
         x="4960.9321"
         y="231.93219">Settings</tspan></text>
    <rect
       style="opacity:0.76999996;fill:#ffffff;fill-opacity:1;stroke:#1d0017;stroke-width:4.9000001;stroke-miterlimit:4;stroke-dasharray:none;stroke-opacity:0.92307691"
       id="rect4272-1-0-5-5-0-1"
       width="753.125"
       height="1065.625"
       x="4256.8301"
       y="-1381.5999" />
    <rect
       style="opacity:0.81720001;fill:#ffffff;fill-opacity:1;stroke:#1d0017;stroke-width:4.9000001;stroke-miterlimit:4;stroke-dasharray:none;stroke-opacity:0.92307691"
       id="rect5543-5-0-6"
       width="640.81555"
       height="145.84077"
       x="4319.6138"
       y="-1056.4996" />
    <rect
       style="opacity:0.81720001;fill:#ffffff;fill-opacity:1;stroke:#1d0017;stroke-width:4.9000001;stroke-miterlimit:4;stroke-dasharray:none;stroke-opacity:0.92307691"
       id="rect5543-1-7-9-8"
       width="640.81555"
       height="145.84077"
       x="4318.6987"
       y="-809.92792" />
    <rect
       style="opacity:0.81720001;fill:#ffffff;fill-opacity:1;stroke:#1d0017;stroke-width:4.9000001;stroke-miterlimit:4;stroke-dasharray:none;stroke-opacity:0.92307691"
       id="rect5543-4-6-6-6"
       width="640.81555"
       height="145.84077"
       x="4317.4043"
       y="-568.15448" />
    <text
       xml:space="preserve"
       style="font-style:normal;font-variant:normal;font-weight:bold;font-stretch:normal;font-size:82.80503082px;line-height:125%;font-family:sans-serif;-inkscape-font-specification:'sans-serif Bold';letter-spacing:0px;word-spacing:0px;fill:#000000;fill-opacity:1;stroke:none;stroke-width:1px;stroke-linecap:butt;stroke-linejoin:miter;stroke-opacity:1"
       x="5385.8003"
       y="-1008.6538"
       id="text5569-9-6-7"
       sodipodi:linespacing="125%"
       transform="scale(0.82400037,1.2135917)"><tspan
         sodipodi:role="line"
         id="tspan5571-5-25-9"
         x="5385.8003"
         y="-1008.6538">Main Menu</tspan></text>
    <text
       xml:space="preserve"
       style="font-style:normal;font-weight:normal;font-size:76.32368469px;line-height:125%;font-family:sans-serif;letter-spacing:0px;word-spacing:0px;fill:#000000;fill-opacity:1;stroke:none;stroke-width:1px;stroke-linecap:butt;stroke-linejoin:miter;stroke-opacity:1"
       x="4994.7686"
       y="-861.28198"
       id="text5573-7-0-3"
       sodipodi:linespacing="125%"
       transform="scale(0.9047333,1.1052981)"><tspan
         sodipodi:role="line"
         id="tspan5575-9-6-4"
         x="4994.7686"
         y="-861.28198">Market</tspan></text>
    <text
       xml:space="preserve"
       style="font-style:normal;font-weight:normal;font-size:73.99671173px;line-height:125%;font-family:sans-serif;letter-spacing:0px;word-spacing:0px;fill:#000000;fill-opacity:1;stroke:none;stroke-width:1px;stroke-linecap:butt;stroke-linejoin:miter;stroke-opacity:1"
       x="5159.4258"
       y="-618.47662"
       id="text5577-2-3-9"
       sodipodi:linespacing="125%"
       transform="scale(0.87714958,1.1400564)"><tspan
         sodipodi:role="line"
         id="tspan5579-9-37-9"
         x="5159.4258"
         y="-618.47662">Friends</tspan></text>
    <text
       xml:space="preserve"
       style="font-style:normal;font-weight:normal;font-size:75.21572113px;line-height:125%;font-family:sans-serif;letter-spacing:0px;word-spacing:0px;fill:#000000;fill-opacity:1;stroke:none;stroke-width:1px;stroke-linecap:butt;stroke-linejoin:miter;stroke-opacity:1"
       x="4905.0845"
       y="-433.00809"
       id="text5581-2-30-84"
       sodipodi:linespacing="125%"
       transform="scale(0.92611818,1.0797758)"><tspan
         sodipodi:role="line"
         id="tspan5583-5-3-1"
         x="4905.0845"
         y="-433.00809">Profile</tspan></text>
    <rect
       style="opacity:0.81720001;fill:#ffffff;fill-opacity:1;stroke:#1d0017;stroke-width:4.9000001;stroke-miterlimit:4;stroke-dasharray:none;stroke-opacity:0.92307691"
       id="rect5472-3-0-8"
       width="129.07513"
       height="119.5969"
       x="4879.6489"
       y="-1381.7141" />
    <ellipse
       style="opacity:0.81720001;fill:#ffffff;fill-opacity:1;stroke:#1d0017;stroke-width:4.9000001;stroke-miterlimit:4;stroke-dasharray:none;stroke-opacity:0.92307691"
       id="path5477-3-1-7"
       cx="4969.1421"
       cy="-1296.3679"
       rx="17.67767"
       ry="16.572815" />
    <ellipse
       style="opacity:0.81720001;fill:#ffffff;fill-opacity:1;stroke:#1d0017;stroke-width:4.9000001;stroke-miterlimit:4;stroke-dasharray:none;stroke-opacity:0.92307691"
       id="path5477-9-3-9-25"
       cx="4921.3882"
       cy="-1296.8997"
       rx="17.67767"
       ry="16.572815" />
    <ellipse
       style="opacity:0.81720001;fill:#ffffff;fill-opacity:1;stroke:#1d0017;stroke-width:4.9000001;stroke-miterlimit:4;stroke-dasharray:none;stroke-opacity:0.92307691"
       id="path5477-6-3-7-5"
       cx="4967.811"
       cy="-1347.823"
       rx="17.67767"
       ry="16.572815" />
    <ellipse
       style="opacity:0.81720001;fill:#ffffff;fill-opacity:1;stroke:#1d0017;stroke-width:4.9000001;stroke-miterlimit:4;stroke-dasharray:none;stroke-opacity:0.92307691"
       id="path5477-7-3-1-21"
       cx="4917.9893"
       cy="-1348.7332"
       rx="17.67767"
       ry="16.572815" />
    <rect
       style="opacity:0.81720001;fill:#ffffff;fill-opacity:1;stroke:#1d0017;stroke-width:4.14102364;stroke-miterlimit:4;stroke-dasharray:none;stroke-opacity:0.92307691"
       id="rect6171-0"
       width="596.10651"
       height="135.55121"
       x="4414.228"
       y="-1265.2542" />
    <rect
       style="opacity:0.81720001;fill:#ffffff;fill-opacity:1;stroke:#1d0017;stroke-width:4.14102364;stroke-miterlimit:4;stroke-dasharray:none;stroke-opacity:0.92307691"
       id="rect6171-5-8"
       width="596.10651"
       height="135.55121"
       x="4413.6021"
       y="-1130.066" />
    <text
       xml:space="preserve"
       style="font-style:normal;font-weight:normal;font-size:49.41643143px;line-height:125%;font-family:sans-serif;letter-spacing:0px;word-spacing:0px;fill:#000000;fill-opacity:1;stroke:none;stroke-width:1px;stroke-linecap:butt;stroke-linejoin:miter;stroke-opacity:1"
       x="4623.9727"
       y="-1048.5311"
       id="text6188-5"
       sodipodi:linespacing="125%"
       transform="scale(0.99896686,1.0010342)"><tspan
         sodipodi:role="line"
         id="tspan6190-1"
         x="4623.9727"
         y="-1048.5311">Logout</tspan></text>
    <text
       xml:space="preserve"
       style="font-style:normal;font-weight:normal;font-size:50.16847229px;line-height:125%;font-family:sans-serif;letter-spacing:0px;word-spacing:0px;fill:#000000;fill-opacity:1;stroke:none;stroke-width:1px;stroke-linecap:butt;stroke-linejoin:miter;stroke-opacity:1"
       x="4960.9321"
       y="-1097.6768"
       id="text6192-44"
       sodipodi:linespacing="125%"
       transform="scale(0.92898461,1.0764441)"><tspan
         sodipodi:role="line"
         id="tspan6194-1"
         x="4960.9321"
         y="-1097.6768">Settings</tspan></text>
    <rect
       style="opacity:0.76999996;fill:#ffffff;fill-opacity:1;stroke:#1d0017;stroke-width:4.9000001;stroke-miterlimit:4;stroke-dasharray:none;stroke-opacity:0.92307691"
       id="rect4272-1-0-5-5-0-8-8"
       width="753.125"
       height="1065.625"
       x="5731.8301"
       y="43.400097" />
    <rect
       style="opacity:0.81720001;fill:#ffffff;fill-opacity:1;stroke:#1d0017;stroke-width:4.9000001;stroke-miterlimit:4;stroke-dasharray:none;stroke-opacity:0.92307691"
       id="rect5543-5-0-1-9"
       width="640.81555"
       height="145.84077"
       x="5794.6138"
       y="368.50031" />
    <rect
       style="opacity:0.81720001;fill:#ffffff;fill-opacity:1;stroke:#1d0017;stroke-width:4.9000001;stroke-miterlimit:4;stroke-dasharray:none;stroke-opacity:0.92307691"
       id="rect5543-1-7-9-9-9"
       width="640.81555"
       height="145.84077"
       x="5793.6987"
       y="615.07208" />
    <rect
       style="opacity:0.81720001;fill:#ffffff;fill-opacity:1;stroke:#1d0017;stroke-width:4.9000001;stroke-miterlimit:4;stroke-dasharray:none;stroke-opacity:0.92307691"
       id="rect5543-4-6-6-2-9"
       width="640.81555"
       height="145.84077"
       x="5792.4043"
       y="856.84552" />
    <text
       xml:space="preserve"
       style="font-style:normal;font-variant:normal;font-weight:bold;font-stretch:normal;font-size:82.80503082px;line-height:125%;font-family:sans-serif;-inkscape-font-specification:'sans-serif Bold';letter-spacing:0px;word-spacing:0px;fill:#000000;fill-opacity:1;stroke:none;stroke-width:1px;stroke-linecap:butt;stroke-linejoin:miter;stroke-opacity:1"
       x="7175.8472"
       y="165.54683"
       id="text5569-9-6-4-4"
       sodipodi:linespacing="125%"
       transform="scale(0.82400037,1.2135917)"><tspan
         sodipodi:role="line"
         id="tspan5571-5-25-1-4"
         x="7175.8472"
         y="165.54683">Main Menu</tspan></text>
    <text
       xml:space="preserve"
       style="font-style:normal;font-weight:normal;font-size:76.32368469px;line-height:125%;font-family:sans-serif;letter-spacing:0px;word-spacing:0px;fill:#000000;fill-opacity:1;stroke:none;stroke-width:1px;stroke-linecap:butt;stroke-linejoin:miter;stroke-opacity:1"
       x="6625.083"
       y="427.96249"
       id="text5573-7-0-5-5"
       sodipodi:linespacing="125%"
       transform="scale(0.9047333,1.1052981)"><tspan
         sodipodi:role="line"
         id="tspan5575-9-6-0-7"
         x="6625.083"
         y="427.96249">Market</tspan></text>
    <text
       xml:space="preserve"
       style="font-style:normal;font-weight:normal;font-size:73.99671173px;line-height:125%;font-family:sans-serif;letter-spacing:0px;word-spacing:0px;fill:#000000;fill-opacity:1;stroke:none;stroke-width:1px;stroke-linecap:butt;stroke-linejoin:miter;stroke-opacity:1"
       x="6841.0083"
       y="631.46173"
       id="text5577-2-3-0-7"
       sodipodi:linespacing="125%"
       transform="scale(0.87714958,1.1400564)"><tspan
         sodipodi:role="line"
         id="tspan5579-9-37-4-5"
         x="6841.0083"
         y="631.46173">Friends</tspan></text>
    <text
       xml:space="preserve"
       style="font-style:normal;font-weight:normal;font-size:75.21572113px;line-height:125%;font-family:sans-serif;letter-spacing:0px;word-spacing:0px;fill:#000000;fill-opacity:1;stroke:none;stroke-width:1px;stroke-linecap:butt;stroke-linejoin:miter;stroke-opacity:1"
       x="6497.7539"
       y="886.71033"
       id="text5581-2-30-8-2"
       sodipodi:linespacing="125%"
       transform="scale(0.92611818,1.0797758)"><tspan
         sodipodi:role="line"
         id="tspan5583-5-3-2-0"
         x="6497.7539"
         y="886.71033">Profile</tspan></text>
    <rect
       style="opacity:0.81720001;fill:#ffffff;fill-opacity:1;stroke:#1d0017;stroke-width:4.9000001;stroke-miterlimit:4;stroke-dasharray:none;stroke-opacity:0.92307691"
       id="rect5472-3-0-4-7"
       width="129.07513"
       height="119.5969"
       x="6354.6489"
       y="43.285839" />
    <ellipse
       style="opacity:0.81720001;fill:#ffffff;fill-opacity:1;stroke:#1d0017;stroke-width:4.9000001;stroke-miterlimit:4;stroke-dasharray:none;stroke-opacity:0.92307691"
       id="path5477-3-1-6-1"
       cx="6444.1421"
       cy="128.63203"
       rx="17.67767"
       ry="16.572815" />
    <ellipse
       style="opacity:0.81720001;fill:#ffffff;fill-opacity:1;stroke:#1d0017;stroke-width:4.9000001;stroke-miterlimit:4;stroke-dasharray:none;stroke-opacity:0.92307691"
       id="path5477-9-3-9-2-6"
       cx="6396.3882"
       cy="128.1003"
       rx="17.67767"
       ry="16.572815" />
    <ellipse
       style="opacity:0.81720001;fill:#ffffff;fill-opacity:1;stroke:#1d0017;stroke-width:4.9000001;stroke-miterlimit:4;stroke-dasharray:none;stroke-opacity:0.92307691"
       id="path5477-6-3-7-0-4"
       cx="6442.811"
       cy="77.176956"
       rx="17.67767"
       ry="16.572815" />
    <ellipse
       style="opacity:0.81720001;fill:#ffffff;fill-opacity:1;stroke:#1d0017;stroke-width:4.9000001;stroke-miterlimit:4;stroke-dasharray:none;stroke-opacity:0.92307691"
       id="path5477-7-3-1-2-6"
       cx="6392.9893"
       cy="76.2668"
       rx="17.67767"
       ry="16.572815" />
    <rect
       style="opacity:0.81720001;fill:#ffffff;fill-opacity:1;stroke:#1d0017;stroke-width:4.14102364;stroke-miterlimit:4;stroke-dasharray:none;stroke-opacity:0.92307691"
       id="rect6171-8-3"
       width="596.10651"
       height="135.55121"
       x="5889.228"
       y="159.7458" />
    <rect
       style="opacity:0.81720001;fill:#ffffff;fill-opacity:1;stroke:#1d0017;stroke-width:4.14102364;stroke-miterlimit:4;stroke-dasharray:none;stroke-opacity:0.92307691"
       id="rect6171-5-7-6"
       width="596.10651"
       height="135.55121"
       x="5888.6021"
       y="294.9339" />
    <text
       xml:space="preserve"
       style="font-style:normal;font-weight:normal;font-size:49.41643143px;line-height:125%;font-family:sans-serif;letter-spacing:0px;word-spacing:0px;fill:#000000;fill-opacity:1;stroke:none;stroke-width:1px;stroke-linecap:butt;stroke-linejoin:miter;stroke-opacity:1"
       x="6100.498"
       y="374.99673"
       id="text6188-0-5"
       sodipodi:linespacing="125%"
       transform="scale(0.99896686,1.0010342)"><tspan
         sodipodi:role="line"
         id="tspan6190-4-6"
         x="6100.498"
         y="374.99673">Logout</tspan></text>
    <text
       xml:space="preserve"
       style="font-style:normal;font-weight:normal;font-size:50.16847229px;line-height:125%;font-family:sans-serif;letter-spacing:0px;word-spacing:0px;fill:#000000;fill-opacity:1;stroke:none;stroke-width:1px;stroke-linecap:butt;stroke-linejoin:miter;stroke-opacity:1"
       x="6548.6875"
       y="226.12604"
       id="text6192-4-6"
       sodipodi:linespacing="125%"
       transform="scale(0.92898461,1.0764441)"><tspan
         sodipodi:role="line"
         id="tspan6194-3-1"
         x="6548.6875"
         y="226.12604">Settings</tspan></text>
    <rect
       style="opacity:0.81720001;fill:#ffffff;fill-opacity:1;stroke:#1d0017;stroke-width:4.9000001;stroke-miterlimit:4;stroke-dasharray:none;stroke-opacity:0.92307691"
       id="rect6522"
       width="670.3125"
       height="445.15527"
       x="5777.1426"
       y="349.75031" />
    <text
       xml:space="preserve"
       style="font-style:normal;font-weight:normal;font-size:128.38117981px;line-height:125%;font-family:sans-serif;letter-spacing:0px;word-spacing:0px;fill:#000000;fill-opacity:1;stroke:none;stroke-width:1px;stroke-linecap:butt;stroke-linejoin:miter;stroke-opacity:1"
       x="7309.3794"
       y="419.58438"
       id="text6524"
       sodipodi:linespacing="125%"
       transform="scale(0.80925811,1.2356997)"><tspan
         sodipodi:role="line"
         id="tspan6526"
         x="7309.3794"
         y="419.58438">Logout?</tspan></text>
    <rect
       style="opacity:0.81720001;fill:#ffffff;fill-opacity:1;stroke:#1d0017;stroke-width:4.9000001;stroke-miterlimit:4;stroke-dasharray:none;stroke-opacity:0.92307691"
       id="rect6528"
       width="335.9375"
       height="187.5"
       x="5777.1426"
       y="607.40558" />
    <rect
       style="opacity:0.81720001;fill:#ffffff;fill-opacity:1;stroke:#1d0017;stroke-width:4.82250929;stroke-miterlimit:4;stroke-dasharray:none;stroke-opacity:0.92307691"
       id="rect6530"
       width="334.45248"
       height="189.13998"
       x="6109.9165"
       y="607.367" />
    <text
       xml:space="preserve"
       style="font-style:normal;font-weight:normal;font-size:82.54781342px;line-height:125%;font-family:sans-serif;letter-spacing:0px;word-spacing:0px;fill:#000000;fill-opacity:1;stroke:none;stroke-width:1px;stroke-linecap:butt;stroke-linejoin:miter;stroke-opacity:1"
       x="6144.1753"
       y="692.88989"
       id="text6532"
       sodipodi:linespacing="125%"
       transform="scale(0.95499454,1.0471264)"><tspan
         sodipodi:role="line"
         id="tspan6534"
         x="6144.1753"
         y="692.88989">Yes</tspan></text>
    <text
       xml:space="preserve"
       style="font-style:normal;font-weight:normal;font-size:86.83766937px;line-height:125%;font-family:sans-serif;letter-spacing:0px;word-spacing:0px;fill:#000000;fill-opacity:1;stroke:none;stroke-width:1px;stroke-linecap:butt;stroke-linejoin:miter;stroke-opacity:1"
       x="5875.6074"
       y="768.98853"
       id="text6536"
       sodipodi:linespacing="125%"
       transform="scale(1.0576384,0.94550274)"><tspan
         sodipodi:role="line"
         id="tspan6538"
         x="5875.6074"
         y="768.98853">No</tspan></text>
    <rect
       style="opacity:0.76999996;fill:#ffffff;fill-opacity:1;stroke:#1d0017;stroke-width:4.9000001;stroke-miterlimit:4;stroke-dasharray:none;stroke-opacity:0.92307691"
       id="rect4272-1-0-5-5-0-1-0"
       width="753.125"
       height="1065.625"
       x="5756.1279"
       y="-1387.6936" />
    <rect
       style="opacity:0.81720001;fill:#ffffff;fill-opacity:1;stroke:#1d0017;stroke-width:4.9000001;stroke-miterlimit:4;stroke-dasharray:none;stroke-opacity:0.92307691"
       id="rect5472-3"
       width="129.07513"
       height="119.5969"
       x="622.80591"
       y="13.856606" />
    <ellipse
       style="opacity:0.81720001;fill:#ffffff;fill-opacity:1;stroke:#1d0017;stroke-width:4.9000001;stroke-miterlimit:4;stroke-dasharray:none;stroke-opacity:0.92307691"
       id="path5477-3"
       cx="712.29932"
       cy="99.202797"
       rx="17.67767"
       ry="16.572815" />
    <ellipse
       style="opacity:0.81720001;fill:#ffffff;fill-opacity:1;stroke:#1d0017;stroke-width:4.9000001;stroke-miterlimit:4;stroke-dasharray:none;stroke-opacity:0.92307691"
       id="path5477-9-3"
       cx="664.54517"
       cy="98.671059"
       rx="17.67767"
       ry="16.572815" />
    <ellipse
       style="opacity:0.81720001;fill:#ffffff;fill-opacity:1;stroke:#1d0017;stroke-width:4.9000001;stroke-miterlimit:4;stroke-dasharray:none;stroke-opacity:0.92307691"
       id="path5477-6-3"
       cx="710.96802"
       cy="47.747719"
       rx="17.67767"
       ry="16.572815" />
    <ellipse
       style="opacity:0.81720001;fill:#ffffff;fill-opacity:1;stroke:#1d0017;stroke-width:4.9000001;stroke-miterlimit:4;stroke-dasharray:none;stroke-opacity:0.92307691"
       id="path5477-7-3"
       cx="661.14624"
       cy="46.837563"
       rx="17.67767"
       ry="16.572815" />
    <rect
       style="opacity:0.81720001;fill:#ffffff;fill-opacity:1;stroke:#1d0017;stroke-width:4.9000001;stroke-miterlimit:4;stroke-dasharray:none;stroke-opacity:0.92307691"
       id="rect5472-3-2"
       width="129.07513"
       height="119.5969"
       x="2156.5962"
       y="6.5330315" />
    <ellipse
       style="opacity:0.81720001;fill:#ffffff;fill-opacity:1;stroke:#1d0017;stroke-width:4.9000001;stroke-miterlimit:4;stroke-dasharray:none;stroke-opacity:0.92307691"
       id="path5477-3-6"
       cx="2246.0894"
       cy="91.879227"
       rx="17.67767"
       ry="16.572815" />
    <ellipse
       style="opacity:0.81720001;fill:#ffffff;fill-opacity:1;stroke:#1d0017;stroke-width:4.9000001;stroke-miterlimit:4;stroke-dasharray:none;stroke-opacity:0.92307691"
       id="path5477-9-3-8"
       cx="2198.3354"
       cy="91.347488"
       rx="17.67767"
       ry="16.572815" />
    <ellipse
       style="opacity:0.81720001;fill:#ffffff;fill-opacity:1;stroke:#1d0017;stroke-width:4.9000001;stroke-miterlimit:4;stroke-dasharray:none;stroke-opacity:0.92307691"
       id="path5477-6-3-2"
       cx="2244.7583"
       cy="40.424145"
       rx="17.67767"
       ry="16.572815" />
    <ellipse
       style="opacity:0.81720001;fill:#ffffff;fill-opacity:1;stroke:#1d0017;stroke-width:4.9000001;stroke-miterlimit:4;stroke-dasharray:none;stroke-opacity:0.92307691"
       id="path5477-7-3-5"
       cx="2194.9365"
       cy="39.513988"
       rx="17.67767"
       ry="16.572815" />
    <rect
       style="opacity:0.81720001;fill:#ffffff;fill-opacity:1;stroke:#1d0017;stroke-width:4.9000001;stroke-miterlimit:4;stroke-dasharray:none;stroke-opacity:0.92307691"
       id="rect5472-3-0"
       width="129.07513"
       height="119.5969"
       x="3585.8984"
       y="22.648266" />
    <ellipse
       style="opacity:0.81720001;fill:#ffffff;fill-opacity:1;stroke:#1d0017;stroke-width:4.9000001;stroke-miterlimit:4;stroke-dasharray:none;stroke-opacity:0.92307691"
       id="path5477-3-1"
       cx="3675.3916"
       cy="107.99446"
       rx="17.67767"
       ry="16.572815" />
    <ellipse
       style="opacity:0.81720001;fill:#ffffff;fill-opacity:1;stroke:#1d0017;stroke-width:4.9000001;stroke-miterlimit:4;stroke-dasharray:none;stroke-opacity:0.92307691"
       id="path5477-9-3-9"
       cx="3627.6377"
       cy="107.46272"
       rx="17.67767"
       ry="16.572815" />
    <ellipse
       style="opacity:0.81720001;fill:#ffffff;fill-opacity:1;stroke:#1d0017;stroke-width:4.9000001;stroke-miterlimit:4;stroke-dasharray:none;stroke-opacity:0.92307691"
       id="path5477-6-3-7"
       cx="3674.0605"
       cy="56.539379"
       rx="17.67767"
       ry="16.572815" />
    <ellipse
       style="opacity:0.81720001;fill:#ffffff;fill-opacity:1;stroke:#1d0017;stroke-width:4.9000001;stroke-miterlimit:4;stroke-dasharray:none;stroke-opacity:0.92307691"
       id="path5477-7-3-1"
       cx="3624.2388"
       cy="55.629223"
       rx="17.67767"
       ry="16.572815" />
    <g
       transform="matrix(0.00527161,-0.93787279,0.76588444,0.00645541,1313.2916,-74.486813)"
       id="g5246-7-9-8-0">
      <rect
         y="-712.8197"
         x="-636.13129"
         height="822.78149"
         width="16.74312"
         id="rect4541-5-54-1-8-5"
         style="opacity:0.76999996;fill:#000000;fill-opacity:1;stroke:#1d0017;stroke-width:6.04132891;stroke-miterlimit:4;stroke-dasharray:none;stroke-opacity:0.92307691"
         transform="matrix(0.99996979,0.00777341,0.0036507,0.99999334,0,0)" />
      <path
         inkscape:connector-curvature="0"
         id="rect4646-3-5-37-3-1"
         d="m -719.51728,109.96253 0,10.1231 c 2.4574,3.9841 4.7829,8.0572 6.916,12.2578 0.3012,0.5931 0.526,1.0732 0.7969,1.6211 2.0811,3.2465 3.9668,6.6059 5.6035,10.0937 1.9299,4.1128 3.0477,8.5583 4.5723,12.8379 0.075,0.2359 0.3343,1.0453 0.4297,1.3438 2.7043,5.0582 4.9844,9.5206 6.9511,13.5937 3.9687,2.3235 7.3824,4.9998 8.9766,10.2813 2.9066,7.293 -3.8609,-9.5008 3.3633,6.7988 0.7725,1.743 1.2286,3.6128 1.9512,5.377 2.2112,5.3993 4.5965,10.7325 6.8945,16.1015 5.9399,6.8515 11.7453,13.8223 17.1347,21.1074 9.7007,13.1129 17.7429,27.2248 25.5547,41.4707 1.5757,-2.8857 3.5013,-5.5483 5.7442,-7.9843 6.9122,-14.12 15.058,-27.6419 22.5234,-41.4727 1.1441,-2.1195 2.2375,-4.1796 3.3281,-6.2344 0.3375,-0.8683 0.6679,-1.7394 1.0313,-2.5976 7.2694,-17.1698 12.2922,-25.8316 20.8555,-41.7832 0.2508,-0.7091 0.4905,-1.4223 0.7597,-2.125 6.2599,-16.3382 15.2884,-31.4612 23.3692,-46.9121 0.4677,-0.8943 0.9154,-1.7988 1.375,-2.6973 0.9535,-2.2556 1.6459,-3.7955 2.1816,-4.8105 l 0,-6.3907 -170.3125,0 z"
         style="opacity:0.81720001;fill:#000000;fill-opacity:1;stroke:#1d0017;stroke-width:4.9000001;stroke-miterlimit:4;stroke-dasharray:none;stroke-opacity:0.92307691" />
    </g>
    <g
       transform="matrix(0.00467757,-0.90347596,0.67957903,0.00621865,2780.5525,-68.264783)"
       id="g5246-7-9-8-7">
      <rect
         y="-712.8197"
         x="-636.13129"
         height="822.78149"
         width="16.74312"
         id="rect4541-5-54-1-8-1"
         style="opacity:0.76999996;fill:#000000;fill-opacity:1;stroke:#1d0017;stroke-width:6.04132891;stroke-miterlimit:4;stroke-dasharray:none;stroke-opacity:0.92307691"
         transform="matrix(0.99996979,0.00777341,0.0036507,0.99999334,0,0)" />
      <path
         inkscape:connector-curvature="0"
         id="rect4646-3-5-37-3-9"
         d="m -719.51728,109.96253 0,10.1231 c 2.4574,3.9841 4.7829,8.0572 6.916,12.2578 0.3012,0.5931 0.526,1.0732 0.7969,1.6211 2.0811,3.2465 3.9668,6.6059 5.6035,10.0937 1.9299,4.1128 3.0477,8.5583 4.5723,12.8379 0.075,0.2359 0.3343,1.0453 0.4297,1.3438 2.7043,5.0582 4.9844,9.5206 6.9511,13.5937 3.9687,2.3235 7.3824,4.9998 8.9766,10.2813 2.9066,7.293 -3.8609,-9.5008 3.3633,6.7988 0.7725,1.743 1.2286,3.6128 1.9512,5.377 2.2112,5.3993 4.5965,10.7325 6.8945,16.1015 5.9399,6.8515 11.7453,13.8223 17.1347,21.1074 9.7007,13.1129 17.7429,27.2248 25.5547,41.4707 1.5757,-2.8857 3.5013,-5.5483 5.7442,-7.9843 6.9122,-14.12 15.058,-27.6419 22.5234,-41.4727 1.1441,-2.1195 2.2375,-4.1796 3.3281,-6.2344 0.3375,-0.8683 0.6679,-1.7394 1.0313,-2.5976 7.2694,-17.1698 12.2922,-25.8316 20.8555,-41.7832 0.2508,-0.7091 0.4905,-1.4223 0.7597,-2.125 6.2599,-16.3382 15.2884,-31.4612 23.3692,-46.9121 0.4677,-0.8943 0.9154,-1.7988 1.375,-2.6973 0.9535,-2.2556 1.6459,-3.7955 2.1816,-4.8105 l 0,-6.3907 -170.3125,0 z"
         style="opacity:0.81720001;fill:#000000;fill-opacity:1;stroke:#1d0017;stroke-width:4.9000001;stroke-miterlimit:4;stroke-dasharray:none;stroke-opacity:0.92307691" />
    </g>
    <g
       transform="matrix(0.00360235,-0.61723163,0.52336645,0.00424842,4098.4136,138.54232)"
       id="g5246-7-9-8-43">
      <rect
         y="-712.8197"
         x="-636.13129"
         height="822.78149"
         width="16.74312"
         id="rect4541-5-54-1-8-3"
         style="opacity:0.76999996;fill:#000000;fill-opacity:1;stroke:#1d0017;stroke-width:6.04132891;stroke-miterlimit:4;stroke-dasharray:none;stroke-opacity:0.92307691"
         transform="matrix(0.99996979,0.00777341,0.0036507,0.99999334,0,0)" />
      <path
         inkscape:connector-curvature="0"
         id="rect4646-3-5-37-3-74"
         d="m -719.51728,109.96253 0,10.1231 c 2.4574,3.9841 4.7829,8.0572 6.916,12.2578 0.3012,0.5931 0.526,1.0732 0.7969,1.6211 2.0811,3.2465 3.9668,6.6059 5.6035,10.0937 1.9299,4.1128 3.0477,8.5583 4.5723,12.8379 0.075,0.2359 0.3343,1.0453 0.4297,1.3438 2.7043,5.0582 4.9844,9.5206 6.9511,13.5937 3.9687,2.3235 7.3824,4.9998 8.9766,10.2813 2.9066,7.293 -3.8609,-9.5008 3.3633,6.7988 0.7725,1.743 1.2286,3.6128 1.9512,5.377 2.2112,5.3993 4.5965,10.7325 6.8945,16.1015 5.9399,6.8515 11.7453,13.8223 17.1347,21.1074 9.7007,13.1129 17.7429,27.2248 25.5547,41.4707 1.5757,-2.8857 3.5013,-5.5483 5.7442,-7.9843 6.9122,-14.12 15.058,-27.6419 22.5234,-41.4727 1.1441,-2.1195 2.2375,-4.1796 3.3281,-6.2344 0.3375,-0.8683 0.6679,-1.7394 1.0313,-2.5976 7.2694,-17.1698 12.2922,-25.8316 20.8555,-41.7832 0.2508,-0.7091 0.4905,-1.4223 0.7597,-2.125 6.2599,-16.3382 15.2884,-31.4612 23.3692,-46.9121 0.4677,-0.8943 0.9154,-1.7988 1.375,-2.6973 0.9535,-2.2556 1.6459,-3.7955 2.1816,-4.8105 l 0,-6.3907 -170.3125,0 z"
         style="opacity:0.81720001;fill:#000000;fill-opacity:1;stroke:#1d0017;stroke-width:4.9000001;stroke-miterlimit:4;stroke-dasharray:none;stroke-opacity:0.92307691" />
    </g>
    <path
       style="fill:#ffaaaa;fill-rule:evenodd;stroke:#000000;stroke-width:0.21270716px;stroke-linecap:butt;stroke-linejoin:miter;stroke-opacity:1"
       d="m 2179.4685,289.86992 c -3.1774,-2.3719 -0.1138,-7.5036 -0.996,-10.647 -0.21,-0.7482 -0.7861,-1.0263 -0.996,-1.7746 -0.9296,-3.3123 0.9296,-9.109 0,-12.4213 -0.2099,-0.7483 -0.786,-1.0264 -0.996,-1.7745 -0.2969,-1.0581 0.21,-2.4268 0,-3.5491 -0.6593,-3.524 -1.1384,-9.3802 -1.9919,-12.4215 -0.21,-0.7481 -0.8475,-0.9808 -0.996,-1.7745 -0.21,-1.1222 0.21,-2.4267 0,-3.549 -0.1484,-0.7935 -0.786,-1.0262 -0.996,-1.7745 -1.556,-5.5445 -3.3708,-12.0112 -4.9799,-17.7449 -0.4199,-1.4963 -1.572,-2.0526 -1.9919,-3.5489 -0.2849,-1.0152 -1.7558,-8.4518 -1.992,-8.8725 -0.4979,-0.8873 -1.494,-0.8873 -1.9919,-1.7746 -0.7423,-1.3226 -0.2537,-4.0008 -0.996,-5.3234 -0.2347,-0.4183 -0.699,0.2645 -0.9959,0 -4.145,-3.6926 1.0647,0.1224 -0.9961,-3.5491 -0.2347,-0.4182 -0.7612,0.4183 -0.996,0 -0.2348,-0.4182 0.2348,-1.3562 0,-1.7745 -0.2348,-0.4182 -0.7611,0.4183 -0.9959,0 -0.498,-0.8872 -0.498,-2.6617 -0.996,-3.5489 -2.0607,-3.6715 0.081,5.6106 -1.9919,-1.7746 -0.1485,-0.529 0.2347,-1.3561 0,-1.7745 -0.2348,-0.4182 -0.7612,0.4184 -0.996,0 -0.2348,-0.4182 0.1485,-1.2454 0,-1.7744 -2.0725,-7.3851 0.069,1.897 -1.9919,-1.7745 -0.2348,-0.4183 0.2346,-1.3563 0,-1.7745 -0.2348,-0.4183 -0.7613,0.4182 -0.996,0 -2.0608,-3.6715 3.149,0.1435 -0.996,-3.5489 -0.297,-0.2646 -0.7613,0.4181 -0.996,0 -0.6529,-1.1634 -0.497,-6.2091 -0.996,-7.098 -0.498,-0.8873 -1.494,-0.8873 -1.9919,-1.7746 -0.4695,-0.8365 0.2969,-2.4909 0,-3.549 -0.21,-0.7482 -0.786,-1.0263 -0.996,-1.7745 -0.297,-1.0581 0.4695,-2.7125 0,-3.549 -0.2348,-0.4182 -0.7612,0.4183 -0.996,0 -0.7071,-1.2597 -2.0771,-15.8187 -0.9959,-17.7449 0.2347,-0.4183 0.7612,0.4182 0.9959,0 0.4695,-0.8365 -0.4694,-2.7125 0,-3.549 0.2348,-0.4183 0.699,0.2645 0.996,0 4.145,-3.6925 -1.0647,0.1224 0.996,-3.549 0.2347,-0.4182 0.699,0.2645 0.996,0 1.438,-1.281 2.5458,-2.268 3.9839,-3.549 0.485,-0.4321 10.7697,-0.1657 10.9557,0 0.42,0.3741 0.576,1.4004 0.996,1.7745 0.5939,0.529 1.5225,-0.8365 1.9919,0 0.2347,0.4182 -0.2347,1.3563 0,1.7745 0.4695,0.8365 1.5225,-0.8365 1.992,0 0.498,0.8872 0.498,2.6618 0.996,3.549 0.2347,0.4183 0.7612,-0.4183 0.9959,0 0.3321,0.5914 0.6641,4.7319 0.996,5.3234 0.2347,0.4183 0.7612,-0.4182 0.996,0 0.5309,0.9459 1.4611,7.9267 1.992,8.8725 0.2347,0.4183 0.7611,-0.4182 0.9959,0 0.2348,0.4183 -0.1485,1.2456 0,1.7745 0.21,0.7483 0.786,1.0264 0.996,1.7746 0.2969,1.058 -0.4695,2.7124 0,3.5489 0.2348,0.4183 0.7612,-0.4182 0.996,0 0.2348,0.4183 -0.1485,1.2455 0,1.7746 0.2099,0.7481 0.786,1.0262 0.996,1.7744 0.2969,1.0581 -0.4696,2.7125 0,3.549 0.4979,0.8873 1.4939,0.8873 1.9919,1.7745 0.4695,0.8366 -0.2969,2.4909 0,3.549 0.5801,2.0671 1.4119,3.2565 1.992,5.3236 0.3006,1.0713 -0.4604,4.5031 0,5.3234 0.2346,0.4182 0.7612,-0.4183 0.9959,0 0.4695,0.8365 -0.4695,2.7124 0,3.5489 0.2348,0.4184 0.7612,-0.4182 0.996,0 0.332,0.5916 0.664,4.7321 0.996,5.3236 0.2348,0.4182 0.9959,-0.5915 0.9959,0 0,0.5914 -0.9959,0.5914 -0.9959,0 0,-0.7424 1.9944,-3.5447 0.9959,-5.3236 -0.2347,-0.4182 -0.7611,0.4184 -0.9959,0 -0.6014,-1.0714 -0.6221,-9.9807 -0.996,-10.6469 -0.2348,-0.4182 -0.7612,0.4183 -0.996,0 -0.498,-0.8872 0.498,-4.4363 0,-5.3234 -0.2347,-0.4183 -0.7613,0.4181 -0.9959,0 -0.3881,-0.6915 0,-6.0152 0,-7.0981 0,-12.9253 -0.7512,-26.5873 0.9959,-39.0389 0.1611,-1.1476 -0.2969,-2.4909 0,-3.549 0.21,-0.7481 0.786,-1.0263 0.996,-1.7745 1.283,-4.5718 -1.0591,-20.9564 0,-26.617403 1.0767,-5.755 1.9112,-10.2155 2.988,-15.9705 0.1877,-1.0036 -0.4001,-4.6108 0,-5.3234 0.2347,-0.4183 0.7612,0.4181 0.996,0 0.2347,-0.4183 -0.1051,-1.2134 0,-1.7746 0.2347,-1.2547 0.8503,-2.252 0.9958,-3.549 0.1954,-1.74 -0.3148,-3.64 0,-5.3235 0.1051,-0.5611 0.7613,0.4183 0.9961,0 0.499,-0.889 0.343,-5.9346 0.996,-7.098 0.2347,-0.4182 0.699,0.2645 0.996,0 0.8398,-0.7481 1.2407,-2.5451 1.9919,-3.5489 1.3279,-1.7745 2.4992,-4.0009 3.9839,-5.3235 0.2969,-0.2645 0.7612,0.4182 0.9959,0 0.2348,-0.4183 -0.2969,-1.51 0,-1.7745 0.8806,-0.7844 11.2268,-3.3076 12.9478,-1.7745 1.8834,1.6778 1.27,6.3003 1.9919,8.8725 0.21,0.7482 0.786,1.0263 0.996,1.7745 0.7724,2.7525 0,30.3916 0,35.4899 0,6.1818 0.9941,44.369003 0,47.911403 -0.8132,2.8977 -1.3495,5.4385 -1.992,8.8724 -0.2099,1.1224 0.297,2.4909 0,3.5491 -0.2099,0.7482 -0.786,1.0263 -0.9959,1.7744 -0.097,0.3469 -1.6595,21.8862 -0.996,23.0685 1.328,2.366 0.996,-2.9575 0.996,1.7745 0,4.6398 -0.089,5.0078 0.9959,8.8725 0.297,1.0581 0,4.732 0,3.5489 0,-11.3857 -0.4281,4.0629 0.996,-3.5489 1.0665,-5.7007 -1.4918,-14.2037 0,-19.5195 0.21,-0.7482 0.8475,-0.9808 0.996,-1.7744 0.9945,-5.3156 -1.2877,-16.7054 0,-21.2939 0.1484,-0.5291 0.8475,0.5289 0.996,0 0.5311,-1.893 -0.5311,-5.2053 0,-7.0981 2.0725,-7.385 -0.069,1.897 1.9919,-1.7745 0.2288,-0.4076 1.9485,-7.0204 1.992,-7.098 0.4174,-0.7435 2.3843,-1.2368 2.9879,-1.7745 0.42,-0.3741 0.5506,-1.51 0.996,-1.7745 0.9449,-0.5611 2.2837,1.2548 2.9879,0 0.2348,-0.4182 -0.2347,-1.3563 0,-1.7745 0.9349,-1.6655 2.5011,1.3407 2.9879,1.7745 0.297,0.2645 0.7613,-0.4182 0.996,0 0.2348,0.4182 -0.2347,1.3563 0,1.7745 0.2348,0.4183 0.7612,-0.4182 0.996,0 1.4366,2.5596 -0.9451,12.6029 0,15.9705 0.21,0.7482 0.7861,1.0263 0.996,1.7746 0.4146,1.4773 -0.6318,5.9723 0,7.0979 0.2347,0.4182 0.7612,-0.4183 0.996,0 0.7042,1.2548 0,3.5489 0,5.3234 0,4.712 2.288,14.9155 0.996,19.5195 -0.5801,2.0671 -1.412,3.2565 -1.992,5.3236 -0.1485,0.529 0.332,1.7743 0,1.7743 -0.032,0 0.04,-15.756 0,-15.9704 -0.2348,-1.2547 -0.7613,-2.2943 -0.996,-3.549 -0.4138,-2.2117 -0.5621,-24.6146 0,-26.6174 0.7427,-2.6465 2.2282,-4.391 2.988,-7.098 0.2969,-1.0581 -0.4696,-2.7124 0,-3.549 0.4694,-0.8365 1.362,0.3741 1.9919,0 7.2142,-4.2845 -1.5702,0.5116 2.9879,-3.549 1.8781,-1.673 3.9389,-2.6417 5.9759,-3.549 0.4453,-0.1983 3.7007,-0.5045 3.984,0 0.7041,1.2548 -0.315,3.6401 0,5.3235 0.3438,1.8381 1.4978,3.5631 1.9919,5.3235 0.5672,2.0213 0.5415,17.0902 0.996,19.5195 1.433,7.6598 1.9919,14.7671 1.9919,23.0684 0,1.6823 0.4136,5.6243 0,7.098 -1.2308,4.3855 -0.996,-0.6125 -0.996,3.5489 0,1.7746 0.996,5.3236 0,5.3236 -0.1713,0 0.2011,-14.8954 0,-15.9705 -0.2348,-1.2547 -0.8159,-2.2658 -0.9959,-3.549 -0.1611,-1.1476 0.2099,-2.4268 0,-3.5489 -0.1485,-0.7936 -0.8476,-0.981 -0.996,-1.7746 -0.3424,-1.8298 -0.5578,-26.4044 0,-28.3919 2.0725,-7.3851 -0.069,1.897 1.9919,-1.7745 0.3723,-0.6633 0.7807,-3.8848 1.992,-5.3235 2.227,-2.6452 4.5778,-4.9653 6.9718,-7.098 0.5939,-0.529 1.5224,0.8366 1.9919,0 0.2348,-0.4182 -0.2347,-1.3562 0,-1.7745 0.4696,-0.8365 2.6561,0 1.992,0 -5.4818,0 1.467,-0.9352 1.992,0 0.2347,0.4183 -0.2348,1.3563 0,1.7745 0.6688,1.1916 1.3232,-1.1915 1.9918,0 0.4981,0.8873 0.4981,2.6617 0.9961,3.549 0.2348,0.4182 0.7612,-0.4182 0.9959,0 0.2348,0.4182 -0.2347,1.3563 0,1.7745 0.2348,0.4183 0.7613,-0.4182 0.9961,0 0.6639,1.183 -0.6641,5.915 0,7.098 0.2347,0.4183 0.7612,-0.4182 0.9959,0 0.4604,0.8202 -0.3007,4.252 0,5.3235 0.719,2.562 1.273,4.536 1.992,7.098 0.3007,1.0714 -0.4604,4.5032 0,5.3235 0.2347,0.4182 0.7612,-0.4183 0.996,0 0.4695,0.8365 0,2.366 0,3.5489 0,3.4367 0.8439,11.1887 0,14.196 -0.21,0.7481 -0.8476,0.9809 -0.996,1.7745 -0.3199,1.7097 0.7419,9.3251 0,10.6471 -0.2348,0.4181 -0.7613,-0.4184 -0.9961,0 -0.8299,1.4786 0.8301,7.3936 0,8.8723 -0.2346,0.4184 -0.7611,-0.4182 -0.9959,0 -1.1348,2.0218 1.1348,26.3702 0,28.3921 -0.2347,0.4181 -0.699,-0.2646 -0.9959,0 -1.4467,1.2886 -2.1471,2.7308 -3.984,3.5489 -4.1979,1.8698 1.7449,3.3889 -2.2467,6.9448 -4.145,3.6924 -0.7188,0.616 -2.7795,4.2875 2.7795,-4.2875 11.2353,-9.4923 -2.3934,4.2876 l -4.4959,4.5458 c -1.2834,1.2977 18.7485,-25.064 18.7485,-25.064 -2.0168,0.022 -26.0885,34.5733 -26.7524,36.9393 -0.2101,0.7481 -0.7862,1.0262 -0.9961,1.7744 -0.8594,3.0625 0,16.716 0,21.2939 l 0,14.1961"
       id="path4528-2-3-8-1-5"
       inkscape:connector-curvature="0"
       sodipodi:nodetypes="ccccccccccsccccsccccscscccccssccccccsccsccccccccccccccccccccccsccccccssccccccssccsscccsccsccsccsccsscccsscssccccsccscccccccccccsscsccsscscccssssssscccsscssccscccccccccsscssccccccccsscssscssc" />
    <rect
       style="opacity:0.81720001;fill:#ffffff;fill-opacity:1;stroke:#1d0017;stroke-width:4.14102364;stroke-miterlimit:4;stroke-dasharray:none;stroke-opacity:0.92307691"
       id="rect6171"
       width="596.10651"
       height="135.55121"
       x="3120.4775"
       y="139.10823" />
    <rect
       style="opacity:0.81720001;fill:#ffffff;fill-opacity:1;stroke:#1d0017;stroke-width:4.14102364;stroke-miterlimit:4;stroke-dasharray:none;stroke-opacity:0.92307691"
       id="rect6171-5"
       width="596.10651"
       height="135.55121"
       x="3119.8516"
       y="274.2962" />
    <text
       xml:space="preserve"
       style="font-style:normal;font-weight:normal;font-size:49.41643143px;line-height:125%;font-family:sans-serif;letter-spacing:0px;word-spacing:0px;fill:#000000;fill-opacity:1;stroke:none;stroke-width:1px;stroke-linecap:butt;stroke-linejoin:miter;stroke-opacity:1"
       x="3328.8845"
       y="354.38004"
       id="text6188"
       sodipodi:linespacing="125%"
       transform="scale(0.99896686,1.0010342)"><tspan
         sodipodi:role="line"
         id="tspan6190"
         x="3328.8845"
         y="354.38004">Logout</tspan></text>
    <text
       xml:space="preserve"
       style="font-style:normal;font-weight:normal;font-size:50.16847229px;line-height:125%;font-family:sans-serif;letter-spacing:0px;word-spacing:0px;fill:#000000;fill-opacity:1;stroke:none;stroke-width:1px;stroke-linecap:butt;stroke-linejoin:miter;stroke-opacity:1"
       x="3568.2822"
       y="206.95416"
       id="text6192"
       sodipodi:linespacing="125%"
       transform="scale(0.92898461,1.0764441)"><tspan
         sodipodi:role="line"
         id="tspan6194"
         x="3568.2822"
         y="206.95416">Settings</tspan></text>
    <path
       style="fill:#ffaaaa;fill-rule:evenodd;stroke:#000000;stroke-width:0.21270716px;stroke-linecap:butt;stroke-linejoin:miter;stroke-opacity:1"
       d="m 4773.2714,589.92382 c -3.1774,-2.3719 -0.1138,-7.5036 -0.996,-10.647 -0.21,-0.7482 -0.7861,-1.0263 -0.996,-1.7746 -0.9296,-3.3123 0.9296,-9.109 0,-12.4213 -0.2099,-0.7483 -0.786,-1.0264 -0.996,-1.7745 -0.2969,-1.0581 0.21,-2.4268 0,-3.5491 -0.6593,-3.524 -1.1384,-9.3802 -1.9919,-12.4215 -0.21,-0.7481 -0.8475,-0.9808 -0.996,-1.7745 -0.21,-1.1222 0.21,-2.4267 0,-3.549 -0.1484,-0.7935 -0.786,-1.0262 -0.996,-1.7745 -1.556,-5.5445 -3.3708,-12.0112 -4.9799,-17.7449 -0.4199,-1.4963 -1.572,-2.0526 -1.9919,-3.5489 -0.2849,-1.0152 -1.7558,-8.4518 -1.992,-8.8725 -0.4979,-0.8873 -1.494,-0.8873 -1.9919,-1.7746 -0.7423,-1.3226 -0.2537,-4.0008 -0.996,-5.3234 -0.2347,-0.4183 -0.699,0.2645 -0.9959,0 -4.145,-3.6926 1.0647,0.1224 -0.9961,-3.5491 -0.2347,-0.4182 -0.7612,0.4183 -0.996,0 -0.2348,-0.4182 0.2348,-1.3562 0,-1.7745 -0.2348,-0.4182 -0.7611,0.4183 -0.9959,0 -0.498,-0.8872 -0.498,-2.6617 -0.996,-3.5489 -2.0607,-3.6715 0.081,5.6106 -1.9919,-1.7746 -0.1485,-0.529 0.2347,-1.3561 0,-1.7745 -0.2348,-0.4182 -0.7612,0.4184 -0.996,0 -0.2348,-0.4182 0.1485,-1.2454 0,-1.7744 -2.0725,-7.3851 0.069,1.897 -1.9919,-1.7745 -0.2348,-0.4183 0.2346,-1.3563 0,-1.7745 -0.2348,-0.4183 -0.7613,0.4182 -0.996,0 -2.0608,-3.6715 3.149,0.1435 -0.996,-3.5489 -0.297,-0.2646 -0.7613,0.4181 -0.996,0 -0.6529,-1.1634 -0.497,-6.2091 -0.996,-7.098 -0.498,-0.8873 -1.494,-0.8873 -1.9919,-1.7746 -0.4695,-0.8365 0.2969,-2.4909 0,-3.549 -0.21,-0.7482 -0.786,-1.0263 -0.996,-1.7745 -0.297,-1.0581 0.4695,-2.7125 0,-3.549 -0.2348,-0.4182 -0.7612,0.4183 -0.996,0 -0.7071,-1.2597 -2.0771,-15.8187 -0.9959,-17.7449 0.2347,-0.4183 0.7612,0.4182 0.9959,0 0.4695,-0.8365 -0.4694,-2.7125 0,-3.549 0.2348,-0.4183 0.699,0.2645 0.996,0 4.145,-3.6925 -1.0647,0.1224 0.996,-3.549 0.2347,-0.4182 0.699,0.2645 0.996,0 1.438,-1.281 2.5458,-2.268 3.9839,-3.549 0.485,-0.4321 10.7697,-0.1657 10.9557,0 0.42,0.3741 0.576,1.4004 0.996,1.7745 0.5939,0.529 1.5225,-0.8365 1.9919,0 0.2347,0.4182 -0.2347,1.3563 0,1.7745 0.4695,0.8365 1.5225,-0.8365 1.992,0 0.498,0.8872 0.498,2.6618 0.996,3.549 0.2347,0.4183 0.7612,-0.4183 0.9959,0 0.3321,0.5914 0.6641,4.7319 0.996,5.3234 0.2347,0.4183 0.7612,-0.4182 0.996,0 0.5309,0.9459 1.4611,7.9267 1.992,8.8725 0.2347,0.4183 0.7611,-0.4182 0.9959,0 0.2348,0.4183 -0.1485,1.2456 0,1.7745 0.21,0.7483 0.786,1.0264 0.996,1.7746 0.2969,1.058 -0.4695,2.7124 0,3.5489 0.2348,0.4183 0.7612,-0.4182 0.996,0 0.2348,0.4183 -0.1485,1.2455 0,1.7746 0.2099,0.7481 0.786,1.0262 0.996,1.7744 0.2969,1.0581 -0.4696,2.7125 0,3.549 0.4979,0.8873 1.4939,0.8873 1.9919,1.7745 0.4695,0.8366 -0.2969,2.4909 0,3.549 0.5801,2.0671 1.4119,3.2565 1.992,5.3236 0.3006,1.0713 -0.4604,4.5031 0,5.3234 0.2346,0.4182 0.7612,-0.4183 0.9959,0 0.4695,0.8365 -0.4695,2.7124 0,3.5489 0.2348,0.4184 0.7612,-0.4182 0.996,0 0.332,0.5916 0.664,4.7321 0.996,5.3236 0.2348,0.4182 0.9959,-0.5915 0.9959,0 0,0.5914 -0.9959,0.5914 -0.9959,0 0,-0.7424 1.9944,-3.5447 0.9959,-5.3236 -0.2347,-0.4182 -0.7611,0.4184 -0.9959,0 -0.6014,-1.0714 -0.6221,-9.9807 -0.996,-10.6469 -0.2348,-0.4182 -0.7612,0.4183 -0.996,0 -0.498,-0.8872 0.498,-4.4363 0,-5.3234 -0.2347,-0.4183 -0.7613,0.4181 -0.9959,0 -0.3881,-0.6915 0,-6.0152 0,-7.0981 0,-12.9253 -0.7512,-26.5873 0.9959,-39.0389 0.1611,-1.1476 -0.2969,-2.4909 0,-3.549 0.21,-0.7481 0.786,-1.0263 0.996,-1.7745 1.283,-4.5718 -1.0591,-20.9564 0,-26.6174 1.0767,-5.755 1.9112,-10.2155 2.988,-15.9705 0.1877,-1.0036 -0.4001,-4.6108 0,-5.3234 0.2347,-0.4183 0.7612,0.4181 0.996,0 0.2347,-0.4183 -0.1051,-1.2134 0,-1.7746 0.2347,-1.2547 0.8503,-2.252 0.9958,-3.549 0.1954,-1.74 -0.3148,-3.64 0,-5.3235 0.1051,-0.5611 0.7613,0.4183 0.9961,0 0.499,-0.889 0.343,-5.9346 0.996,-7.098 0.2347,-0.4182 0.699,0.2645 0.996,0 0.8398,-0.7481 1.2407,-2.5451 1.9919,-3.5489 1.3279,-1.7745 2.4992,-4.0009 3.9839,-5.3235 0.2969,-0.2645 0.7612,0.4182 0.9959,0 0.2348,-0.4183 -0.2969,-1.51 0,-1.7745 0.8806,-0.7844 11.2268,-3.3076 12.9478,-1.7745 1.8834,1.6778 1.27,6.3003 1.9919,8.8725 0.21,0.7482 0.786,1.0263 0.996,1.7745 0.7724,2.7525 0,30.3916 0,35.4899 0,6.1818 0.9941,44.369 0,47.9114 -0.8132,2.8977 -1.3495,5.4385 -1.992,8.8724 -0.2099,1.1224 0.297,2.4909 0,3.5491 -0.2099,0.7482 -0.786,1.0263 -0.9959,1.7744 -0.097,0.3469 -1.6595,21.8862 -0.996,23.0685 1.328,2.366 0.996,-2.9575 0.996,1.7745 0,4.6398 -0.089,5.0078 0.9959,8.8725 0.297,1.0581 0,4.732 0,3.5489 0,-11.3857 -0.4281,4.0629 0.996,-3.5489 1.0665,-5.7007 -1.4918,-14.2037 0,-19.5195 0.21,-0.7482 0.8475,-0.9808 0.996,-1.7744 0.9945,-5.3156 -1.2877,-16.7054 0,-21.2939 0.1484,-0.5291 0.8475,0.5289 0.996,0 0.5311,-1.893 -0.5311,-5.2053 0,-7.0981 2.0725,-7.385 -0.069,1.897 1.9919,-1.7745 0.2288,-0.4076 1.9485,-7.0204 1.992,-7.098 0.4174,-0.7435 2.3843,-1.2368 2.9879,-1.7745 0.42,-0.3741 0.5506,-1.51 0.996,-1.7745 0.9449,-0.5611 2.2837,1.2548 2.9879,0 0.2348,-0.4182 -0.2347,-1.3563 0,-1.7745 0.9349,-1.6655 2.5011,1.3407 2.9879,1.7745 0.297,0.2645 0.7613,-0.4182 0.996,0 0.2348,0.4182 -0.2347,1.3563 0,1.7745 0.2348,0.4183 0.7612,-0.4182 0.996,0 1.4366,2.5596 -0.9451,12.6029 0,15.9705 0.21,0.7482 0.7861,1.0263 0.996,1.7746 0.4146,1.4773 -0.6318,5.9723 0,7.0979 0.2347,0.4182 0.7612,-0.4183 0.996,0 0.7042,1.2548 0,3.5489 0,5.3234 0,4.712 2.288,14.9155 0.996,19.5195 -0.5801,2.0671 -1.412,3.2565 -1.992,5.3236 -0.1485,0.529 0.332,1.7743 0,1.7743 -0.032,0 0.04,-15.756 0,-15.9704 -0.2348,-1.2547 -0.7613,-2.2943 -0.996,-3.549 -0.4138,-2.2117 -0.5621,-24.6146 0,-26.6174 0.7427,-2.6465 2.2282,-4.391 2.988,-7.098 0.2969,-1.0581 -0.4696,-2.7124 0,-3.549 0.4694,-0.8365 1.362,0.3741 1.9919,0 7.2142,-4.2845 -1.5702,0.5116 2.9879,-3.549 1.8781,-1.673 3.9389,-2.6417 5.9759,-3.549 0.4453,-0.1983 3.7007,-0.5045 3.984,0 0.7041,1.2548 -0.315,3.6401 0,5.3235 0.3438,1.8381 1.4978,3.5631 1.9919,5.3235 0.5672,2.0213 0.5415,17.0902 0.996,19.5195 1.433,7.6598 1.9919,14.7671 1.9919,23.0684 0,1.6823 0.4136,5.6243 0,7.098 -1.2308,4.3855 -0.996,-0.6125 -0.996,3.5489 0,1.7746 0.996,5.3236 0,5.3236 -0.1713,0 0.2011,-14.8954 0,-15.9705 -0.2348,-1.2547 -0.8159,-2.2658 -0.9959,-3.549 -0.1611,-1.1476 0.2099,-2.4268 0,-3.5489 -0.1485,-0.7936 -0.8476,-0.981 -0.996,-1.7746 -0.3424,-1.8298 -0.5578,-26.4044 0,-28.3919 2.0725,-7.3851 -0.069,1.897 1.9919,-1.7745 0.3723,-0.6633 0.7807,-3.8848 1.992,-5.3235 2.227,-2.6452 4.5778,-4.9653 6.9718,-7.098 0.5939,-0.529 1.5224,0.8366 1.9919,0 0.2348,-0.4182 -0.2347,-1.3562 0,-1.7745 0.4696,-0.8365 2.6561,0 1.992,0 -5.4818,0 1.467,-0.9352 1.992,0 0.2347,0.4183 -0.2348,1.3563 0,1.7745 0.6688,1.1916 1.3232,-1.1915 1.9918,0 0.4981,0.8873 0.4981,2.6617 0.9961,3.549 0.2348,0.4182 0.7612,-0.4182 0.9959,0 0.2348,0.4182 -0.2347,1.3563 0,1.7745 0.2348,0.4183 0.7613,-0.4182 0.9961,0 0.6639,1.183 -0.6641,5.915 0,7.098 0.2347,0.4183 0.7612,-0.4182 0.9959,0 0.4604,0.8202 -0.3007,4.252 0,5.3235 0.719,2.562 1.273,4.536 1.992,7.098 0.3007,1.0714 -0.4604,4.5032 0,5.3235 0.2347,0.4182 0.7612,-0.4183 0.996,0 0.4695,0.8365 0,2.366 0,3.5489 0,3.4367 0.8439,11.1887 0,14.196 -0.21,0.7481 -0.8476,0.9809 -0.996,1.7745 -0.3199,1.7097 0.7419,9.3251 0,10.6471 -0.2348,0.4181 -0.7613,-0.4184 -0.9961,0 -0.8299,1.4786 0.8301,7.3936 0,8.8723 -0.2346,0.4184 -0.7611,-0.4182 -0.9959,0 -1.1348,2.0218 1.1348,26.3702 0,28.3921 -0.2347,0.4181 -0.699,-0.2646 -0.9959,0 -1.4467,1.2886 -2.1471,2.7308 -3.984,3.5489 -4.1979,1.8698 1.7449,3.3889 -2.2467,6.9448 -4.145,3.6924 -0.7188,0.616 -2.7795,4.2875 2.7795,-4.2875 11.2353,-9.4923 -2.3934,4.2876 l -4.4959,4.5458 c -1.2834,1.2977 18.7485,-25.064 18.7485,-25.064 -2.0168,0.022 -26.0885,34.5733 -26.7524,36.9393 -0.2101,0.7481 -0.7862,1.0262 -0.9961,1.7744 -0.8594,3.0625 0,16.716 0,21.2939 l 0,14.1961"
       id="path4528-2-3-8-1-5-6"
       inkscape:connector-curvature="0"
       sodipodi:nodetypes="ccccccccccsccccsccccscscccccssccccccsccsccccccccccccccccccccccsccccccssccccccssccsscccsccsccsccsccsscccsscssccccsccscccccccccccsscsccsscscccssssssscccsscssccscccccccccsscssccccccccsscssscssc" />
    <path
       style="fill:#ffaaaa;fill-rule:evenodd;stroke:#000000;stroke-width:0.21270716px;stroke-linecap:butt;stroke-linejoin:miter;stroke-opacity:1"
       d="m 4817.0214,-953.82619 c -3.1774,-2.3719 -0.1138,-7.5036 -0.996,-10.647 -0.21,-0.7482 -0.7861,-1.0263 -0.996,-1.7746 -0.9296,-3.3123 0.9296,-9.109 0,-12.4213 -0.2099,-0.7483 -0.786,-1.0264 -0.996,-1.7745 -0.2969,-1.0581 0.21,-2.4268 0,-3.5491 -0.6593,-3.524 -1.1384,-9.3802 -1.9919,-12.4215 -0.21,-0.7481 -0.8475,-0.9808 -0.996,-1.7745 -0.21,-1.1222 0.21,-2.42671 0,-3.54901 -0.1484,-0.7935 -0.786,-1.0262 -0.996,-1.7745 -1.556,-5.5445 -3.3708,-12.0112 -4.9799,-17.7449 -0.4199,-1.4963 -1.572,-2.0526 -1.9919,-3.5489 -0.2849,-1.0152 -1.7558,-8.4518 -1.992,-8.8725 -0.4979,-0.8873 -1.494,-0.8873 -1.9919,-1.7746 -0.7423,-1.3226 -0.2537,-4.0008 -0.996,-5.3234 -0.2347,-0.4183 -0.699,0.2645 -0.9959,0 -4.145,-3.6926 1.0647,0.1224 -0.9961,-3.5491 -0.2347,-0.4182 -0.7612,0.4183 -0.996,0 -0.2348,-0.4182 0.2348,-1.3562 0,-1.7745 -0.2348,-0.4182 -0.7611,0.4183 -0.9959,0 -0.498,-0.8872 -0.498,-2.6617 -0.996,-3.5489 -2.0607,-3.6715 0.081,5.6106 -1.9919,-1.7746 -0.1485,-0.529 0.2347,-1.3561 0,-1.7745 -0.2348,-0.4182 -0.7612,0.4184 -0.996,0 -0.2348,-0.4182 0.1485,-1.2454 0,-1.7744 -2.0725,-7.3851 0.069,1.897 -1.9919,-1.7745 -0.2348,-0.4183 0.2346,-1.3563 0,-1.7745 -0.2348,-0.4183 -0.7613,0.4182 -0.996,0 -2.0608,-3.6715 3.149,0.1435 -0.996,-3.5489 -0.297,-0.2646 -0.7613,0.4181 -0.996,0 -0.6529,-1.1634 -0.497,-6.2091 -0.996,-7.098 -0.498,-0.8873 -1.494,-0.8873 -1.9919,-1.7746 -0.4695,-0.8365 0.2969,-2.4909 0,-3.549 -0.21,-0.7482 -0.786,-1.0263 -0.996,-1.7745 -0.297,-1.0581 0.4695,-2.7125 0,-3.549 -0.2348,-0.4182 -0.7612,0.4183 -0.996,0 -0.7071,-1.2597 -2.0771,-15.8187 -0.9959,-17.7449 0.2347,-0.4183 0.7612,0.4182 0.9959,0 0.4695,-0.8365 -0.4694,-2.7125 0,-3.549 0.2348,-0.4183 0.699,0.2645 0.996,0 4.145,-3.6925 -1.0647,0.1224 0.996,-3.549 0.2347,-0.4182 0.699,0.2645 0.996,0 1.438,-1.281 2.5458,-2.268 3.9839,-3.549 0.485,-0.4321 10.7697,-0.1657 10.9557,0 0.42,0.3741 0.576,1.4004 0.996,1.7745 0.5939,0.529 1.5225,-0.8365 1.9919,0 0.2347,0.4182 -0.2347,1.3563 0,1.7745 0.4695,0.8365 1.5225,-0.8365 1.992,0 0.498,0.8872 0.498,2.6618 0.996,3.549 0.2347,0.4183 0.7612,-0.4183 0.9959,0 0.3321,0.5914 0.6641,4.7319 0.996,5.3234 0.2347,0.4183 0.7612,-0.4182 0.996,0 0.5309,0.9459 1.4611,7.9267 1.992,8.8725 0.2347,0.4183 0.7611,-0.4182 0.9959,0 0.2348,0.4183 -0.1485,1.2456 0,1.7745 0.21,0.7483 0.786,1.0264 0.996,1.7746 0.2969,1.058 -0.4695,2.7124 0,3.5489 0.2348,0.4183 0.7612,-0.4182 0.996,0 0.2348,0.4183 -0.1485,1.2455 0,1.7746 0.2099,0.7481 0.786,1.0262 0.996,1.7744 0.2969,1.0581 -0.4696,2.7125 0,3.549 0.4979,0.8873 1.4939,0.8873 1.9919,1.7745 0.4695,0.8366 -0.2969,2.4909 0,3.549 0.5801,2.0671 1.4119,3.2565 1.992,5.3236 0.3006,1.0713 -0.4604,4.5031 0,5.3234 0.2346,0.4182 0.7612,-0.4183 0.9959,0 0.4695,0.8365 -0.4695,2.7124 0,3.5489 0.2348,0.4184 0.7612,-0.4182 0.996,0 0.332,0.5916 0.664,4.7321 0.996,5.3236 0.2348,0.4182 0.9959,-0.5915 0.9959,0 0,0.5914 -0.9959,0.5914 -0.9959,0 0,-0.7424 1.9944,-3.5447 0.9959,-5.3236 -0.2347,-0.4182 -0.7611,0.4184 -0.9959,0 -0.6014,-1.0714 -0.6221,-9.9807 -0.996,-10.6469 -0.2348,-0.4182 -0.7612,0.4183 -0.996,0 -0.498,-0.8872 0.498,-4.4363 0,-5.3234 -0.2347,-0.4183 -0.7613,0.4181 -0.9959,0 -0.3881,-0.6915 0,-6.0152 0,-7.0981 0,-12.9253 -0.7512,-26.5873 0.9959,-39.0389 0.1611,-1.1476 -0.2969,-2.4909 0,-3.549 0.21,-0.7481 0.786,-1.0263 0.996,-1.7745 1.283,-4.5718 -1.0591,-20.9564 0,-26.6174 1.0767,-5.755 1.9112,-10.2155 2.988,-15.9705 0.1877,-1.0036 -0.4001,-4.6108 0,-5.3234 0.2347,-0.4183 0.7612,0.4181 0.996,0 0.2347,-0.4183 -0.1051,-1.2134 0,-1.7746 0.2347,-1.2547 0.8503,-2.252 0.9958,-3.549 0.1954,-1.74 -0.3148,-3.64 0,-5.3235 0.1051,-0.5611 0.7613,0.4183 0.9961,0 0.499,-0.889 0.343,-5.9346 0.996,-7.098 0.2347,-0.4182 0.699,0.2645 0.996,0 0.8398,-0.7481 1.2407,-2.5451 1.9919,-3.5489 1.3279,-1.7745 2.4992,-4.0009 3.9839,-5.3235 0.2969,-0.2645 0.7612,0.4182 0.9959,0 0.2348,-0.4183 -0.2969,-1.51 0,-1.7745 0.8806,-0.7844 11.2268,-3.3076 12.9478,-1.7745 1.8834,1.6778 1.27,6.3003 1.9919,8.8725 0.21,0.7482 0.786,1.0263 0.996,1.7745 0.7724,2.7525 0,30.3916 0,35.4899 0,6.1818 0.9941,44.369 0,47.9114 -0.8132,2.8977 -1.3495,5.4385 -1.992,8.8724 -0.2099,1.1224 0.297,2.4909 0,3.5491 -0.2099,0.7482 -0.786,1.0263 -0.9959,1.7744 -0.097,0.3469 -1.6595,21.8862 -0.996,23.0685 1.328,2.366 0.996,-2.9575 0.996,1.7745 0,4.6398 -0.089,5.0078 0.9959,8.8725 0.297,1.0581 0,4.732 0,3.5489 0,-11.3857 -0.4281,4.0629 0.996,-3.5489 1.0665,-5.7007 -1.4918,-14.2037 0,-19.5195 0.21,-0.7482 0.8475,-0.9808 0.996,-1.7744 0.9945,-5.3156 -1.2877,-16.7054 0,-21.2939 0.1484,-0.5291 0.8475,0.5289 0.996,0 0.5311,-1.893 -0.5311,-5.2053 0,-7.0981 2.0725,-7.385 -0.069,1.897 1.9919,-1.7745 0.2288,-0.4076 1.9485,-7.0204 1.992,-7.098 0.4174,-0.7435 2.3843,-1.2368 2.9879,-1.7745 0.42,-0.3741 0.5506,-1.51 0.996,-1.7745 0.9449,-0.5611 2.2837,1.2548 2.9879,0 0.2348,-0.4182 -0.2347,-1.3563 0,-1.7745 0.9349,-1.6655 2.5011,1.3407 2.9879,1.7745 0.297,0.2645 0.7613,-0.4182 0.996,0 0.2348,0.4182 -0.2347,1.3563 0,1.7745 0.2348,0.4183 0.7612,-0.4182 0.996,0 1.4366,2.5596 -0.9451,12.6029 0,15.9705 0.21,0.7482 0.7861,1.0263 0.996,1.7746 0.4146,1.4773 -0.6318,5.9723 0,7.0979 0.2347,0.4182 0.7612,-0.4183 0.996,0 0.7042,1.2548 0,3.5489 0,5.3234 0,4.712 2.288,14.9155 0.996,19.5195 -0.5801,2.0671 -1.412,3.2565 -1.992,5.3236 -0.1485,0.529 0.332,1.7743 0,1.7743 -0.032,0 0.04,-15.756 0,-15.9704 -0.2348,-1.2547 -0.7613,-2.2943 -0.996,-3.549 -0.4138,-2.2117 -0.5621,-24.6146 0,-26.6174 0.7427,-2.6465 2.2282,-4.391 2.988,-7.098 0.2969,-1.0581 -0.4696,-2.7124 0,-3.549 0.4694,-0.8365 1.362,0.3741 1.9919,0 7.2142,-4.2845 -1.5702,0.5116 2.9879,-3.549 1.8781,-1.673 3.9389,-2.6417 5.9759,-3.549 0.4453,-0.1983 3.7007,-0.5045 3.984,0 0.7041,1.2548 -0.315,3.6401 0,5.3235 0.3438,1.8381 1.4978,3.5631 1.9919,5.3235 0.5672,2.0213 0.5415,17.0902 0.996,19.5195 1.433,7.6598 1.9919,14.7671 1.9919,23.0684 0,1.6823 0.4136,5.6243 0,7.098 -1.2308,4.3855 -0.996,-0.6125 -0.996,3.5489 0,1.7746 0.996,5.3236 0,5.3236 -0.1713,0 0.2011,-14.8954 0,-15.9705 -0.2348,-1.2547 -0.8159,-2.2658 -0.9959,-3.549 -0.1611,-1.1476 0.2099,-2.4268 0,-3.5489 -0.1485,-0.7936 -0.8476,-0.981 -0.996,-1.7746 -0.3424,-1.8298 -0.5578,-26.4044 0,-28.3919 2.0725,-7.3851 -0.069,1.897 1.9919,-1.7745 0.3723,-0.6633 0.7807,-3.8848 1.992,-5.3235 2.227,-2.6452 4.5778,-4.9653 6.9718,-7.098 0.5939,-0.529 1.5224,0.8366 1.9919,0 0.2348,-0.4182 -0.2347,-1.3562 0,-1.7745 0.4696,-0.8365 2.6561,0 1.992,0 -5.4818,0 1.467,-0.9352 1.992,0 0.2347,0.4183 -0.2348,1.3563 0,1.7745 0.6688,1.1916 1.3232,-1.1915 1.9918,0 0.4981,0.8873 0.4981,2.6617 0.9961,3.549 0.2348,0.4182 0.7612,-0.4182 0.9959,0 0.2348,0.4182 -0.2347,1.3563 0,1.7745 0.2348,0.4183 0.7613,-0.4182 0.9961,0 0.6639,1.183 -0.6641,5.915 0,7.098 0.2347,0.4183 0.7612,-0.4182 0.9959,0 0.4604,0.8202 -0.3007,4.252 0,5.3235 0.719,2.562 1.273,4.536 1.992,7.098 0.3007,1.0714 -0.4604,4.5032 0,5.3235 0.2347,0.4182 0.7612,-0.4183 0.996,0 0.4695,0.8365 0,2.366 0,3.5489 0,3.4367 0.8439,11.1887 0,14.196 -0.21,0.7481 -0.8476,0.9809 -0.996,1.7745 -0.3199,1.7097 0.7419,9.3251 0,10.6471 -0.2348,0.4181 -0.7613,-0.4184 -0.9961,0 -0.8299,1.4786 0.8301,7.3936 0,8.8723 -0.2346,0.4184 -0.7611,-0.4182 -0.9959,0 -1.1348,2.0218 1.1348,26.3702 0,28.3921 -0.2347,0.4181 -0.699,-0.2646 -0.9959,0 -1.4467,1.2886 -2.1471,2.7308 -3.984,3.5489 -4.1979,1.8698 1.7449,3.3889 -2.2467,6.9448 -4.145,3.6924 -0.7188,0.616 -2.7795,4.2875 2.7795,-4.2875 11.2353,-9.4923 -2.3934,4.2876 l -4.4959,4.5458 c -1.2834,1.29771 18.7485,-25.064 18.7485,-25.064 -2.0168,0.022 -26.0885,34.57331 -26.7524,36.93931 -0.2101,0.7481 -0.7862,1.0262 -0.9961,1.7744 -0.8594,3.0625 0,16.716 0,21.2939 l 0,14.1961"
       id="path4528-2-3-8-1-5-67"
       inkscape:connector-curvature="0"
       sodipodi:nodetypes="ccccccccccsccccsccccscscccccssccccccsccsccccccccccccccccccccccsccccccssccccccssccsscccsccsccsccsccsscccsscssccccsccscccccccccccsscsccsscscccssssssscccsscssccscccccccccsscssccccccccsscssscssc" />
    <path
       style="fill:#ffaaaa;fill-rule:evenodd;stroke:#000000;stroke-width:0.21270716px;stroke-linecap:butt;stroke-linejoin:miter;stroke-opacity:1"
       d="m 5912.3339,914.92392 c -3.1775,-2.3719 -0.1138,-7.5036 -0.9961,-10.647 -0.2099,-0.7481 -0.7861,-1.0263 -0.996,-1.7745 -0.9295,-3.3124 0.9297,-9.1091 5e-4,-12.4214 -0.21,-0.7483 -0.786,-1.0264 -0.9961,-1.7745 -0.2969,-1.058 0.21,-2.4268 1e-4,-3.549 -0.6593,-3.5241 -1.1384,-9.3803 -1.9919,-12.4216 -0.2099,-0.7481 -0.8474,-0.9808 -0.9959,-1.7745 -0.21,-1.1221 0.21,-2.4267 10e-5,-3.5489 -0.1484,-0.7935 -0.786,-1.0263 -0.9961,-1.7745 -1.5559,-5.5446 -3.3707,-12.0113 -4.9798,-17.7449 -0.4199,-1.4964 -1.572,-2.0526 -1.9919,-3.549 -0.2849,-1.0151 -1.7559,-8.4518 -1.992,-8.8725 -0.4979,-0.8872 -1.494,-0.8872 -1.9919,-1.7745 -0.7423,-1.3227 -0.2537,-4.0009 -0.996,-5.3235 -0.2347,-0.4183 -0.699,0.2646 -0.9959,0 -4.145,-3.6925 1.0647,0.1225 -0.9961,-3.5491 -0.2347,-0.4182 -0.7612,0.4183 -0.996,0 -0.2348,-0.4182 0.2348,-1.3562 0,-1.7745 -0.2348,-0.4182 -0.7612,0.4183 -0.9959,0 -0.498,-0.8872 -0.498,-2.6617 -0.996,-3.5489 -2.0607,-3.6715 0.081,5.6106 -1.992,-1.7745 -0.1485,-0.529 0.2348,-1.3561 0,-1.7746 -0.2348,-0.4182 -0.7611,0.4184 -0.996,0 -0.2348,-0.4182 0.1485,-1.2454 0,-1.7744 -2.0725,-7.3851 0.069,1.897 -1.9918,-1.7745 -0.2348,-0.4183 0.2346,-1.3563 0,-1.7745 -0.2348,-0.4183 -0.7614,0.4182 -0.996,0 -2.0608,-3.6716 3.149,0.1434 -0.996,-3.5489 -0.297,-0.2647 -0.7614,0.4181 -0.996,0 -0.653,-1.1635 -0.497,-6.2092 -0.996,-7.098 -0.4981,-0.8873 -1.494,-0.8873 -1.992,-1.7746 -0.4694,-0.8365 0.297,-2.4909 2e-4,-3.549 -0.21,-0.7482 -0.786,-1.0263 -0.996,-1.7745 -0.297,-1.0581 0.4695,-2.7125 1e-4,-3.549 -0.2348,-0.4182 -0.7612,0.4183 -0.996,0 -0.7071,-1.2598 -2.0771,-15.8187 -0.9959,-17.7449 0.2347,-0.4184 0.7612,0.4182 0.9959,0 0.4695,-0.8366 -0.4694,-2.7126 10e-5,-3.5491 0.2348,-0.4183 0.699,0.2646 0.996,0 4.145,-3.6924 -1.0647,0.1225 0.996,-3.5489 0.2347,-0.4182 0.699,0.2645 0.996,0 1.438,-1.281 2.5458,-2.268 3.9839,-3.549 0.4849,-0.4322 10.7697,-0.1657 10.9557,4e-4 0.42,0.374 0.576,1.4004 0.996,1.7745 0.5939,0.5289 1.5224,-0.8365 1.9919,0 0.2347,0.4182 -0.2347,1.3563 0,1.7745 0.4695,0.8365 1.5225,-0.8365 1.9921,0 0.4979,0.8872 0.498,2.6617 0.996,3.5489 0.2346,0.4184 0.7612,-0.4183 0.9959,0 0.332,0.5915 0.664,4.7319 0.996,5.3235 0.2347,0.4183 0.7611,-0.4182 0.9959,0 0.531,0.9459 1.4611,7.9267 1.992,8.8725 0.2348,0.4183 0.7611,-0.4182 0.9959,0 0.2348,0.4182 -0.1485,1.2456 0,1.7745 0.2101,0.7483 0.786,1.0264 0.9961,1.7746 0.2969,1.058 -0.4696,2.7124 -1e-4,3.5489 0.2347,0.4183 0.7612,-0.4182 0.996,0 0.2347,0.4183 -0.1486,1.2455 0,1.7746 0.2099,0.7481 0.786,1.0262 0.996,1.7744 0.2968,1.0581 -0.4696,2.7125 -2e-4,3.549 0.498,0.8873 1.494,0.8873 1.992,1.7746 0.4694,0.8366 -0.2969,2.4909 -1e-4,3.5489 0.58,2.0671 1.4119,3.2565 1.9919,5.3236 0.3007,1.0713 -0.4604,4.5032 -2e-4,5.3234 0.2347,0.4182 0.7613,-0.4183 0.9959,0 0.4696,0.8365 -0.4694,2.7124 -1e-4,3.549 0.2349,0.4184 0.7612,-0.4182 0.996,0 0.3321,0.5915 0.6641,4.732 0.996,5.3235 0.2348,0.4182 0.996,-0.5915 0.9959,0 0,0.5914 -0.9959,0.5914 -0.9959,0 0,-0.7424 1.9945,-3.5447 0.9959,-5.3235 -0.2347,-0.4182 -0.761,0.4184 -0.9959,0 -0.6013,-1.0715 -0.622,-9.9808 -0.9959,-10.647 -0.2348,-0.4182 -0.7613,0.4183 -0.996,0 -0.498,-0.8872 0.498,-4.4363 10e-5,-5.3234 -0.2346,-0.4182 -0.7613,0.4181 -0.9958,0 -0.3882,-0.6915 5e-4,-6.0152 2e-4,-7.0981 10e-5,-12.9253 -0.7513,-26.5873 0.9959,-39.0389 0.1611,-1.1476 -0.2969,-2.4909 1e-4,-3.549 0.21,-0.7481 0.786,-1.0262 0.996,-1.7745 1.283,-4.5718 -1.0591,-20.9564 -10e-5,-26.6174 1.0767,-5.755 1.9112,-10.2155 2.988,-15.9705 0.1877,-1.0035 -0.4001,-4.6108 1e-4,-5.3234 0.2348,-0.4183 0.7612,0.4181 0.996,0 0.2348,-0.4183 -0.105,-1.2134 0,-1.7746 0.2347,-1.2547 0.8503,-2.252 0.9958,-3.549 0.1954,-1.74 -0.3148,-3.64 2e-4,-5.3235 0.1051,-0.5611 0.7613,0.4183 0.9961,0 0.499,-0.889 0.3429,-5.9346 0.996,-7.098 0.2346,-0.4182 0.699,0.2645 0.996,0 0.8398,-0.7481 1.2407,-2.5451 1.9918,-3.5489 1.328,-1.7745 2.4993,-4.0009 3.9839,-5.3235 0.2969,-0.2645 0.7613,0.4182 0.9959,0 0.2349,-0.4183 -0.2968,-1.51 0,-1.7745 0.8806,-0.7844 11.2268,-3.3076 12.9478,-1.7745 1.8834,1.6778 1.27,6.3003 1.9919,8.8724 0.21,0.7483 0.786,1.0264 0.996,1.7745 0.7724,2.7526 0,30.3917 0,35.49 -1e-4,6.1818 0.9942,44.369 10e-5,47.9114 -0.8133,2.8977 -1.3496,5.4385 -1.992,8.8724 -0.21,1.1224 0.297,2.4909 -2e-4,3.5491 -0.2099,0.7482 -0.786,1.0263 -0.9959,1.7744 -0.097,0.3469 -1.6595,21.8862 -0.996,23.0685 1.3279,2.366 0.996,-2.9575 0.996,1.7745 1e-4,4.6398 -0.089,5.0078 0.9959,8.8725 0.297,1.0581 -2e-4,4.7319 -1e-4,3.5489 -2e-4,-11.3857 -0.4281,4.0629 0.996,-3.5489 1.0665,-5.7007 -1.4918,-14.2038 -4e-4,-19.5195 0.21,-0.7482 0.8475,-0.9808 0.996,-1.7744 0.9945,-5.3156 -1.2877,-16.7054 -3e-4,-21.2939 0.1484,-0.5291 0.8475,0.5289 0.996,0 0.5311,-1.893 -0.5311,-5.2053 2e-4,-7.0981 2.0725,-7.385 -0.068,1.897 1.9919,-1.7745 0.2289,-0.4076 1.9486,-7.0204 1.992,-7.098 0.4175,-0.7435 2.3844,-1.2368 2.9879,-1.7745 0.42,-0.3741 0.5507,-1.51 0.9961,-1.7745 0.9448,-0.5611 2.2836,1.2548 2.9878,2e-4 0.2348,-0.4182 -0.2347,-1.3564 0,-1.7746 0.935,-1.6654 2.5012,1.3408 2.988,1.7745 0.297,0.2646 0.7613,-0.4182 0.996,0 0.2348,0.4182 -0.2347,1.3563 0,1.7746 0.2348,0.4183 0.7612,-0.4182 0.996,0 1.4366,2.5596 -0.9451,12.6029 -5e-4,15.9705 0.21,0.7482 0.7861,1.0262 0.996,1.7746 0.4146,1.4773 -0.6318,5.9722 -3e-4,7.0979 0.2348,0.4182 0.7613,-0.4183 0.996,0 0.7042,1.2548 -1e-4,3.5489 -2e-4,5.3233 0,4.7121 2.288,14.9155 0.9961,19.5196 -0.5801,2.0671 -1.412,3.2564 -1.9921,5.3236 -0.1484,0.529 0.3321,1.7743 0,1.7743 -0.032,0 0.04,-15.7561 -5e-4,-15.9704 -0.2347,-1.2547 -0.7613,-2.2943 -0.996,-3.549 -0.4138,-2.2117 -0.5621,-24.6146 -10e-5,-26.6174 0.7427,-2.6465 2.2282,-4.391 2.988,-7.098 0.2969,-1.0581 -0.4696,-2.7124 1e-4,-3.549 0.4694,-0.8365 1.3621,0.3741 1.992,0 7.2141,-4.2845 -1.5703,0.5116 2.9878,-3.549 1.8781,-1.673 3.9389,-2.6417 5.9759,-3.549 0.4453,-0.1983 3.7007,-0.5045 3.9841,-4e-4 0.704,1.2547 -0.3151,3.6401 -2e-4,5.3235 0.3437,1.838 1.4977,3.5631 1.9918,5.3235 0.5672,2.0212 0.5416,17.0901 0.9961,19.5195 1.433,7.6597 1.9919,14.7671 1.9919,23.0683 0,1.6824 0.4136,5.6244 -3e-4,7.0981 -1.2308,4.3855 -0.996,-0.6125 -0.996,3.5489 0,1.7746 0.996,5.3236 -2e-4,5.3236 -0.1713,0 0.2012,-14.8954 5e-4,-15.9706 -0.2348,-1.2546 -0.8158,-2.2658 -0.9958,-3.5489 -0.1611,-1.1476 0.2098,-2.4268 1e-4,-3.5489 -0.1485,-0.7936 -0.8476,-0.981 -0.996,-1.7746 -0.3424,-1.8298 -0.5578,-26.4044 0,-28.3919 2.0724,-7.3851 -0.068,1.897 1.9918,-1.7745 0.3723,-0.6633 0.7807,-3.8848 1.992,-5.3235 2.2271,-2.6452 4.5778,-4.9653 6.9718,-7.0981 0.5939,-0.5289 1.5224,0.8366 1.9919,0 0.2348,-0.4182 -0.2347,-1.3561 0,-1.7744 0.4696,-0.8365 2.6561,-9e-4 1.992,0 -5.4818,3e-4 1.467,-0.9352 1.992,0 0.2347,0.4183 -0.2348,1.3562 0,1.7744 0.6689,1.1917 1.3232,-1.1914 1.9919,0 0.498,0.8874 0.4981,2.6618 0.9961,3.5491 0.2347,0.4182 0.7612,-0.4182 0.9959,0 0.2347,0.4182 -0.2348,1.3563 0,1.7745 0.2348,0.4183 0.7613,-0.4182 0.9961,0 0.6639,1.183 -0.6641,5.915 -2e-4,7.098 0.2346,0.4183 0.7612,-0.4182 0.9959,0 0.4604,0.8202 -0.3008,4.252 -2e-4,5.3235 0.7189,2.562 1.273,4.536 1.992,7.098 0.3007,1.0714 -0.4604,4.5032 -2e-4,5.3235 0.2347,0.4182 0.7612,-0.4183 0.996,0 0.4695,0.8365 0,2.3661 -1e-4,3.5489 2e-4,3.4367 0.8439,11.1887 -5e-4,14.196 -0.21,0.7481 -0.8476,0.9809 -0.996,1.7745 -0.3199,1.7097 0.7419,9.3251 -3e-4,10.6471 -0.2348,0.4181 -0.7614,-0.4184 -0.9961,0 -0.83,1.4786 0.8301,7.3936 -3e-4,8.8723 -0.2346,0.4184 -0.7611,-0.4182 -0.9959,0 -1.1348,2.0218 1.1348,26.3702 1e-4,28.3921 -0.2347,0.4181 -0.699,-0.2646 -0.9959,0 -1.4467,1.2886 -2.1471,2.7308 -3.984,3.5489 -4.198,1.8698 1.7449,3.3889 -2.2468,6.9448 -4.1449,3.6924 -0.7187,0.616 -2.7794,4.2875 2.7794,-4.2875 11.2352,-9.4923 -2.3934,4.2876 l -4.4959,4.5458 c -1.2835,1.2977 18.7485,-25.064 18.7485,-25.064 -2.0168,0.022 -26.0885,34.5733 -26.7524,36.9393 -0.2102,0.7481 -0.7862,1.0262 -0.9962,1.7744 -0.8593,3.0625 0,16.716 3e-4,21.2939 l -4e-4,14.1961"
       id="path4528-2-3-8-1-5-6-2"
       inkscape:connector-curvature="0"
       sodipodi:nodetypes="ccccccccccsccccsccccscscccccssccccccsccsccccccccccccccccccccccsccccccssccccccssccsscccsccsccsccsccsscccsscssccccsccscccccccccccsscsccsscscccssssssscccsscssccscccccccccsscssccccccccsscssscssc" />
    <rect
       style="opacity:0.76999996;fill:#ffffff;fill-opacity:1;stroke:#1d0017;stroke-width:4.9000001;stroke-miterlimit:4;stroke-dasharray:none;stroke-opacity:0.92307691"
       id="rect4272-1-0-53"
       width="753.125"
       height="1065.625"
       x="7156.8311"
       y="35.262524" />
    <text
       xml:space="preserve"
       style="font-style:normal;font-weight:normal;font-size:92.07600403px;line-height:125%;font-family:sans-serif;letter-spacing:0px;word-spacing:0px;fill:#000000;fill-opacity:1;stroke:none;stroke-width:1px;stroke-linecap:butt;stroke-linejoin:miter;stroke-opacity:1"
       x="7747.1377"
       y="228.55011"
       id="text4136-2-8-49"
       sodipodi:linespacing="125%"
       transform="scale(0.94104423,1.0626493)"><tspan
         sodipodi:role="line"
         id="tspan4138-6-4-64"
         x="7747.1377"
         y="228.55011"
         style="font-style:normal;font-variant:normal;font-weight:bold;font-stretch:normal;font-family:sans-serif;-inkscape-font-specification:'sans-serif Bold';letter-spacing:0px"
         dy="0 0 0 0 0 0 0 0 -1.7300086">Tradio GC</tspan></text>
    <rect
       style="opacity:0.76999996;fill:#ffffff;fill-opacity:1;stroke:#1d0017;stroke-width:6.37090206;stroke-miterlimit:4;stroke-dasharray:none;stroke-opacity:0.92307691"
       id="rect4140-9-7-5-2"
       width="536.8327"
       height="91.564796"
       x="7266.0029"
       y="394.03351" />
    <rect
       style="opacity:0.76999996;fill:#ffffff;fill-opacity:1;stroke:#1d0017;stroke-width:6.37090206;stroke-miterlimit:4;stroke-dasharray:none;stroke-opacity:0.92307691"
       id="rect4140-3-3-4-0-9"
       width="536.8327"
       height="91.564796"
       x="7267.4766"
       y="531.44464" />
    <text
       xml:space="preserve"
       style="font-style:normal;font-weight:normal;font-size:41.33838654px;line-height:125%;font-family:sans-serif;letter-spacing:0px;word-spacing:0px;fill:#000000;fill-opacity:1;stroke:none;stroke-width:1px;stroke-linecap:butt;stroke-linejoin:miter;stroke-opacity:1"
       x="7101.1494"
       y="609.45929"
       id="text4163-1-1-9-18"
       sodipodi:linespacing="125%"
       transform="scale(1.0334596,0.96762369)"><tspan
         sodipodi:role="line"
         id="tspan4165-4-7-0-7"
         x="7101.1494"
         y="609.45929"
         style="font-style:italic;font-variant:normal;font-weight:normal;font-stretch:normal;font-family:sans-serif;-inkscape-font-specification:'sans-serif Italic'">ENTER PASSWORD</tspan></text>
    <rect
       style="opacity:0.76999996;fill:#ffffff;fill-opacity:1;stroke:#1d0017;stroke-width:4.9000001;stroke-miterlimit:4;stroke-dasharray:none;stroke-opacity:0.92307691"
       id="rect4179-8-4-2-1"
       width="546.875"
       height="96.875"
       x="7270.2676"
       y="855.35187" />
    <text
       xml:space="preserve"
       style="font-style:normal;font-weight:normal;font-size:40px;line-height:125%;font-family:sans-serif;letter-spacing:0px;word-spacing:0px;fill:#000000;fill-opacity:1;stroke:none;stroke-width:1px;stroke-linecap:butt;stroke-linejoin:miter;stroke-opacity:1"
       x="7357.7676"
       y="452.22687"
       id="text4159-2-9-1-9"
       sodipodi:linespacing="125%"><tspan
         sodipodi:role="line"
         id="tspan4161-0-4-7-59"
         x="7357.7676"
         y="452.22687"
         style="font-style:italic;font-variant:normal;font-weight:normal;font-stretch:normal;font-family:sans-serif;-inkscape-font-specification:'sans-serif Italic'">ENTER USERNAME</tspan></text>
    <text
       xml:space="preserve"
       style="font-style:normal;font-weight:normal;font-size:50.41472244px;line-height:125%;font-family:sans-serif;letter-spacing:0px;word-spacing:0px;fill:#000000;fill-opacity:1;stroke:none;stroke-width:1px;stroke-linecap:butt;stroke-linejoin:miter;stroke-opacity:1"
       x="8280.6406"
       y="823.64691"
       id="text4181-3-6-7-0"
       sodipodi:linespacing="125%"
       transform="scale(0.89153607,1.1216596)"><tspan
         sodipodi:role="line"
         id="tspan4183-7-9-2-5"
         x="8280.6406"
         y="823.64691">Create Account</tspan></text>
    <rect
       style="opacity:0.81720001;fill:#ffffff;fill-opacity:1;stroke:#1d0017;stroke-width:4.00083447;stroke-miterlimit:4;stroke-dasharray:none;stroke-opacity:0.92307691"
       id="rect5168-8-40"
       width="528.89917"
       height="88.899155"
       x="7272.9434"
       y="657.62531" />
    <text
       xml:space="preserve"
       style="font-style:normal;font-variant:normal;font-weight:bold;font-stretch:normal;font-size:47.87596893px;line-height:125%;font-family:sans-serif;-inkscape-font-specification:'sans-serif Bold';letter-spacing:0px;word-spacing:0px;fill:#000000;fill-opacity:1;stroke:none;stroke-width:1px;stroke-linecap:butt;stroke-linejoin:miter;stroke-opacity:1"
       x="8307.6016"
       y="643.81683"
       id="text5170-1-26"
       sodipodi:linespacing="125%"
       transform="scale(0.90001111,1.1110974)"><tspan
         sodipodi:role="line"
         id="tspan5172-7-9"
         x="8307.6016"
         y="643.81683">Login</tspan></text>
    <g
       transform="matrix(0.00493872,-1.0750631,0.71752089,0.00739969,5543.3645,-96.973783)"
       id="g5246-7-9-8-43-9">
      <rect
         y="-712.8197"
         x="-636.13129"
         height="822.78149"
         width="16.74312"
         id="rect4541-5-54-1-8-3-4"
         style="opacity:0.76999996;fill:#000000;fill-opacity:1;stroke:#1d0017;stroke-width:6.04132891;stroke-miterlimit:4;stroke-dasharray:none;stroke-opacity:0.92307691"
         transform="matrix(0.99996979,0.00777341,0.0036507,0.99999334,0,0)" />
      <path
         inkscape:connector-curvature="0"
         id="rect4646-3-5-37-3-74-9"
         d="m -719.51728,109.96253 0,10.1231 c 2.4574,3.9841 4.7829,8.0572 6.916,12.2578 0.3012,0.5931 0.526,1.0732 0.7969,1.6211 2.0811,3.2465 3.9668,6.6059 5.6035,10.0937 1.9299,4.1128 3.0477,8.5583 4.5723,12.8379 0.075,0.2359 0.3343,1.0453 0.4297,1.3438 2.7043,5.0582 4.9844,9.5206 6.9511,13.5937 3.9687,2.3235 7.3824,4.9998 8.9766,10.2813 2.9066,7.293 -3.8609,-9.5008 3.3633,6.7988 0.7725,1.743 1.2286,3.6128 1.9512,5.377 2.2112,5.3993 4.5965,10.7325 6.8945,16.1015 5.9399,6.8515 11.7453,13.8223 17.1347,21.1074 9.7007,13.1129 17.7429,27.2248 25.5547,41.4707 1.5757,-2.8857 3.5013,-5.5483 5.7442,-7.9843 6.9122,-14.12 15.058,-27.6419 22.5234,-41.4727 1.1441,-2.1195 2.2375,-4.1796 3.3281,-6.2344 0.3375,-0.8683 0.6679,-1.7394 1.0313,-2.5976 7.2694,-17.1698 12.2922,-25.8316 20.8555,-41.7832 0.2508,-0.7091 0.4905,-1.4223 0.7597,-2.125 6.2599,-16.3382 15.2884,-31.4612 23.3692,-46.9121 0.4677,-0.8943 0.9154,-1.7988 1.375,-2.6973 0.9535,-2.2556 1.6459,-3.7955 2.1816,-4.8105 l 0,-6.3907 -170.3125,0 z"
         style="opacity:0.81720001;fill:#000000;fill-opacity:1;stroke:#1d0017;stroke-width:4.9000001;stroke-miterlimit:4;stroke-dasharray:none;stroke-opacity:0.92307691" />
    </g>
    <g
       transform="matrix(0.00457507,-0.87081758,0.6646882,0.00599386,6981.0068,50.429617)"
       id="g5246-7-9-8-43-0">
      <rect
         y="-712.8197"
         x="-636.13129"
         height="822.78149"
         width="16.74312"
         id="rect4541-5-54-1-8-3-3"
         style="opacity:0.76999996;fill:#000000;fill-opacity:1;stroke:#1d0017;stroke-width:6.04132891;stroke-miterlimit:4;stroke-dasharray:none;stroke-opacity:0.92307691"
         transform="matrix(0.99996979,0.00777341,0.0036507,0.99999334,0,0)" />
      <path
         inkscape:connector-curvature="0"
         id="rect4646-3-5-37-3-74-4"
         d="m -719.51728,109.96253 0,10.1231 c 2.4574,3.9841 4.7829,8.0572 6.916,12.2578 0.3012,0.5931 0.526,1.0732 0.7969,1.6211 2.0811,3.2465 3.9668,6.6059 5.6035,10.0937 1.9299,4.1128 3.0477,8.5583 4.5723,12.8379 0.075,0.2359 0.3343,1.0453 0.4297,1.3438 2.7043,5.0582 4.9844,9.5206 6.9511,13.5937 3.9687,2.3235 7.3824,4.9998 8.9766,10.2813 2.9066,7.293 -3.8609,-9.5008 3.3633,6.7988 0.7725,1.743 1.2286,3.6128 1.9512,5.377 2.2112,5.3993 4.5965,10.7325 6.8945,16.1015 5.9399,6.8515 11.7453,13.8223 17.1347,21.1074 9.7007,13.1129 17.7429,27.2248 25.5547,41.4707 1.5757,-2.8857 3.5013,-5.5483 5.7442,-7.9843 6.9122,-14.12 15.058,-27.6419 22.5234,-41.4727 1.1441,-2.1195 2.2375,-4.1796 3.3281,-6.2344 0.3375,-0.8683 0.6679,-1.7394 1.0313,-2.5976 7.2694,-17.1698 12.2922,-25.8316 20.8555,-41.7832 0.2508,-0.7091 0.4905,-1.4223 0.7597,-2.125 6.2599,-16.3382 15.2884,-31.4612 23.3692,-46.9121 0.4677,-0.8943 0.9154,-1.7988 1.375,-2.6973 0.9535,-2.2556 1.6459,-3.7955 2.1816,-4.8105 l 0,-6.3907 -170.3125,0 z"
         style="opacity:0.81720001;fill:#000000;fill-opacity:1;stroke:#1d0017;stroke-width:4.9000001;stroke-miterlimit:4;stroke-dasharray:none;stroke-opacity:0.92307691" />
    </g>
    <g
       transform="matrix(0.00524445,-1.0740805,0.761939,0.00739293,5557.8109,-1647.5652)"
       id="g5246-7-9-8-43-9-4">
      <rect
         y="-712.8197"
         x="-636.13129"
         height="822.78149"
         width="16.74312"
         id="rect4541-5-54-1-8-3-4-7"
         style="opacity:0.76999996;fill:#000000;fill-opacity:1;stroke:#1d0017;stroke-width:6.04132891;stroke-miterlimit:4;stroke-dasharray:none;stroke-opacity:0.92307691"
         transform="matrix(0.99996979,0.00777341,0.0036507,0.99999334,0,0)" />
      <path
         inkscape:connector-curvature="0"
         id="rect4646-3-5-37-3-74-9-6"
         d="m -719.51728,109.96253 0,10.1231 c 2.4574,3.9841 4.7829,8.0572 6.916,12.2578 0.3012,0.5931 0.526,1.0732 0.7969,1.6211 2.0811,3.2465 3.9668,6.6059 5.6035,10.0937 1.9299,4.1128 3.0477,8.5583 4.5723,12.8379 0.075,0.2359 0.3343,1.0453 0.4297,1.3438 2.7043,5.0582 4.9844,9.5206 6.9511,13.5937 3.9687,2.3235 7.3824,4.9998 8.9766,10.2813 2.9066,7.293 -3.8609,-9.5008 3.3633,6.7988 0.7725,1.743 1.2286,3.6128 1.9512,5.377 2.2112,5.3993 4.5965,10.7325 6.8945,16.1015 5.9399,6.8515 11.7453,13.8223 17.1347,21.1074 9.7007,13.1129 17.7429,27.2248 25.5547,41.4707 1.5757,-2.8857 3.5013,-5.5483 5.7442,-7.9843 6.9122,-14.12 15.058,-27.6419 22.5234,-41.4727 1.1441,-2.1195 2.2375,-4.1796 3.3281,-6.2344 0.3375,-0.8683 0.6679,-1.7394 1.0313,-2.5976 7.2694,-17.1698 12.2922,-25.8316 20.8555,-41.7832 0.2508,-0.7091 0.4905,-1.4223 0.7597,-2.125 6.2599,-16.3382 15.2884,-31.4612 23.3692,-46.9121 0.4677,-0.8943 0.9154,-1.7988 1.375,-2.6973 0.9535,-2.2556 1.6459,-3.7955 2.1816,-4.8105 l 0,-6.3907 -170.3125,0 z"
         style="opacity:0.81720001;fill:#000000;fill-opacity:1;stroke:#1d0017;stroke-width:4.9000001;stroke-miterlimit:4;stroke-dasharray:none;stroke-opacity:0.92307691" />
    </g>
    <text
       xml:space="preserve"
       style="font-style:normal;font-weight:normal;font-size:103.38392639px;line-height:125%;font-family:sans-serif;letter-spacing:0px;word-spacing:0px;fill:#000000;fill-opacity:1;stroke:none;stroke-width:1px;stroke-linecap:butt;stroke-linejoin:miter;stroke-opacity:1"
       x="7281.1226"
       y="-1030.6782"
       id="text6699"
       sodipodi:linespacing="125%"
       transform="scale(0.81820025,1.2221947)"><tspan
         sodipodi:role="line"
         id="tspan6701"
         x="7281.1226"
         y="-1030.6782">Settings</tspan></text>
    <text
       xml:space="preserve"
       style="font-style:normal;font-weight:normal;font-size:68.59815216px;line-height:125%;font-family:sans-serif;letter-spacing:0px;word-spacing:0px;fill:#000000;fill-opacity:1;stroke:none;stroke-width:1px;stroke-linecap:butt;stroke-linejoin:miter;stroke-opacity:1"
       x="6398.4409"
       y="-1000.9785"
       id="text6703"
       sodipodi:linespacing="125%"
       transform="scale(0.92426474,1.0819411)"><tspan
         sodipodi:role="line"
         id="tspan6705"
         x="6398.4409"
         y="-1000.9785">Picture Mode</tspan></text>
    <rect
       style="opacity:0.81720001;fill:#ffffff;fill-opacity:1;stroke:#1d0017;stroke-width:4.9000001;stroke-miterlimit:4;stroke-dasharray:none;stroke-opacity:0.92307691"
       id="rect6707"
       width="236.43883"
       height="134.79224"
       x="5880.7842"
       y="-1067.0128" />
    <rect
       style="opacity:0.81720001;fill:#ffffff;fill-opacity:1;stroke:#1d0017;stroke-width:4.84581518;stroke-miterlimit:4;stroke-dasharray:none;stroke-opacity:0.92307691"
       id="rect6709"
       width="233.73087"
       height="134.84642"
       x="6122.167"
       y="-1067.0402" />
    <text
       xml:space="preserve"
       style="font-style:normal;font-weight:normal;font-size:65.08332062px;line-height:125%;font-family:sans-serif;letter-spacing:0px;word-spacing:0px;fill:#000000;fill-opacity:1;stroke:none;stroke-width:1px;stroke-linecap:butt;stroke-linejoin:miter;stroke-opacity:1"
       x="6061.459"
       y="-961.63519"
       id="text6711"
       sodipodi:linespacing="125%"
       transform="scale(0.98224059,1.0180805)"><tspan
         sodipodi:role="line"
         id="tspan6713"
         x="6061.459"
         y="-961.63519">ON</tspan></text>
    <text
       xml:space="preserve"
       style="font-style:normal;font-weight:normal;font-size:59.84118271px;line-height:125%;font-family:sans-serif;letter-spacing:0px;word-spacing:0px;fill:#000000;fill-opacity:1;stroke:none;stroke-width:1px;stroke-linecap:butt;stroke-linejoin:miter;stroke-opacity:1"
       x="6544.4717"
       y="-926.95563"
       id="text6715"
       sodipodi:linespacing="125%"
       transform="scale(0.9447274,1.0585064)"><tspan
         sodipodi:role="line"
         id="tspan6717"
         x="6544.4717"
         y="-926.95563">OFF</tspan></text>
    <rect
       style="opacity:0.81720001;fill:#ffffff;fill-opacity:1;stroke:#1d0017;stroke-width:4.9000001;stroke-miterlimit:4;stroke-dasharray:none;stroke-opacity:0.92307691"
       id="rect6719"
       width="567.89514"
       height="192.24466"
       x="5858.6865"
       y="-784.1701" />
    <text
       xml:space="preserve"
       style="font-style:normal;font-weight:normal;font-size:79.36014557px;line-height:125%;font-family:sans-serif;letter-spacing:0px;word-spacing:0px;fill:#000000;fill-opacity:1;stroke:none;stroke-width:1px;stroke-linecap:butt;stroke-linejoin:miter;stroke-opacity:1"
       x="8072.3867"
       y="-476.00241"
       id="text6721"
       sodipodi:linespacing="125%"
       transform="scale(0.73184604,1.3664076)"><tspan
         sodipodi:role="line"
         id="tspan6723"
         x="8072.3867"
         y="-476.00241">Delete Account</tspan></text>
  </g>
</svg>
